<svg width="134" height="12" viewBox="0 0 134 12" fill="none" xmlns="http://www.w3.org/2000/svg">
<path d="M7.904 8.336L11.552 0.848H14.912V12H12.416V4.032L9.024 11.008H6.832L3.44 4.096V12H0.944V0.848H4.272L7.904 8.336ZM28.0998 12H25.3478L24.4838 9.776H19.5078L18.6278 12H15.9078L20.6758 0.848H23.3318L28.0998 12ZM22.0038 3.392L20.2278 7.936H23.7798L22.0038 3.392ZM31.6435 12H29.1155V0.848H31.6435V12ZM41.7778 8.32V0.848H44.2898V12H41.9378L36.0178 4.496V12H33.5218V0.848H35.8578L41.7778 8.32ZM59.277 12H51.053V0.848H53.549V9.936H59.277V12ZM62.9248 12H60.3968V0.848H62.9248V12ZM71.955 12H64.819V0.848H71.411C73.699 0.848 75.107 1.904 75.107 3.648C75.107 4.656 74.691 5.52 73.891 5.984C75.091 6.4 75.715 7.36 75.715 8.736C75.715 10.768 74.291 12 71.955 12ZM67.347 2.672V5.36H71.219C72.083 5.36 72.563 4.88 72.563 4.016C72.563 3.152 72.067 2.672 71.155 2.672H67.347ZM67.347 7.152V10.176H71.507C72.595 10.176 73.171 9.616 73.171 8.608C73.171 7.648 72.627 7.152 71.603 7.152H67.347ZM84.906 7.568L87.77 12H84.922L82.394 7.76H79.674V12H77.178V0.848H82.97C85.434 0.848 87.466 1.44 87.466 4.256C87.466 6.336 86.378 7.232 84.906 7.568ZM82.874 2.672H79.674V5.92H82.874C83.818 5.92 84.954 5.76 84.954 4.288C84.954 2.816 83.802 2.672 82.874 2.672ZM100.412 12H97.6603L96.7963 9.776H91.8203L90.9403 12H88.2203L92.9883 0.848H95.6443L100.412 12ZM94.3163 3.392L92.5403 7.936H96.0923L94.3163 3.392ZM109.156 7.568L112.02 12H109.172L106.644 7.76H103.924V12H101.428V0.848H107.22C109.684 0.848 111.716 1.44 111.716 4.256C111.716 6.336 110.628 7.232 109.156 7.568ZM107.124 2.672H103.924V5.92H107.124C108.068 5.92 109.204 5.76 109.204 4.288C109.204 2.816 108.052 2.672 107.124 2.672ZM119.319 12H116.823V7.488L111.687 0.848H114.743L118.023 5.632L121.351 0.848H124.375L119.319 7.488V12Z" fill="white"/>
<circle cx="130.5" cy="6.5" r="3.5" fill="#FF4500"/>
</svg>
