<svg width="1862" height="699" viewBox="0 0 1862 699" fill="none" xmlns="http://www.w3.org/2000/svg">
<g clip-path="url(#clip0_1137_2)">
<path d="M685.64 12.9453H13.5312V685.054H685.64V12.9453Z" stroke="#FFFEFA" stroke-width="25"/>
<path d="M524.063 226.648H548.615C548.615 220.089 545.991 213.803 541.326 209.191C536.661 204.579 530.348 202.024 523.79 202.097L524.063 226.648ZM174.655 177.137V152.585C168.144 152.585 161.899 155.172 157.294 159.776C152.69 164.38 150.104 170.625 150.104 177.137H174.655ZM548.615 290.305V226.648H499.511V290.305H548.615ZM524.063 226.648C523.79 202.097 523.79 202.097 523.79 202.097C523.787 202.097 523.787 202.097 523.784 202.097C523.781 202.097 523.778 202.097 523.769 202.097C523.756 202.098 523.735 202.098 523.704 202.098C523.646 202.099 523.557 202.1 523.437 202.101C523.201 202.104 522.848 202.107 522.381 202.112C521.455 202.121 520.086 202.134 518.336 202.149C514.832 202.179 509.799 202.218 503.682 202.251C491.446 202.317 474.916 202.361 457.702 202.273C440.458 202.185 422.658 201.965 407.847 201.511C392.189 201.03 382.049 200.327 378.639 199.687L369.589 247.95C377.494 249.432 391.759 250.144 406.34 250.591C421.761 251.065 440.037 251.287 457.451 251.376C474.892 251.465 491.606 251.421 503.949 251.354C510.124 251.321 515.212 251.282 518.76 251.251C520.534 251.236 521.924 251.223 522.869 251.213C523.345 251.209 523.707 251.205 523.956 251.202C524.079 251.201 524.171 251.2 524.235 251.199C524.269 251.199 524.29 251.198 524.309 251.198C524.318 251.198 524.324 251.198 524.327 251.198C524.33 251.198 524.33 251.198 524.333 251.198C524.333 251.198 524.336 251.198 524.063 226.648ZM378.639 199.687C379.962 199.935 379.271 200.373 376.11 197.254C372.832 194.022 369.717 189.932 364.718 183.628C360.375 178.152 354.363 170.704 347.007 164.75C339.27 158.488 328.492 152.585 314.701 152.585V201.689C313.662 201.689 313.855 201.09 316.114 202.918C318.751 205.053 321.755 208.48 326.248 214.144C330.085 218.981 335.627 226.295 341.627 232.214C347.743 238.246 356.95 245.58 369.589 247.95L378.639 199.687ZM314.701 152.585H174.655V201.689H314.701V152.585ZM150.104 177.137V463.421H199.207V177.137H150.104ZM150.104 463.421C150.104 489.667 167.179 505.233 183.975 512.844C199.844 520.032 218.333 521.922 232.654 521.922V472.819C221.513 472.819 211.003 471.18 204.238 468.114C201.057 466.674 199.857 465.435 199.534 465.017C199.482 464.95 199.207 464.784 199.207 463.421H150.104Z" fill="#FFFEFA"/>
<path d="M267.17 321.962L181.728 461.684L224.449 503.029H508.337L608.938 321.962H267.17Z" fill="#FFFEFA"/>
<path d="M181.728 460.969L167.327 452.161C163.205 458.904 164.311 467.601 169.989 473.098L181.728 460.969ZM267.169 321.247V304.366C261.291 304.366 255.836 307.425 252.769 312.44L267.169 321.247ZM608.938 321.247L623.691 329.445C626.597 324.215 626.517 317.841 623.485 312.686C620.453 307.531 614.917 304.366 608.938 304.366V321.247ZM508.337 502.315V519.194C514.465 519.194 520.115 515.87 523.092 510.512L508.337 502.315ZM224.449 502.315L212.71 514.443L217.618 519.194L226.016 521.955L224.449 502.315ZM196.128 469.774L281.57 330.052L252.769 312.44L167.327 452.161L196.128 469.774ZM267.169 338.127H608.938V304.366H267.169V338.127ZM594.183 313.048L493.581 494.117L523.092 510.512L623.691 329.445L594.183 313.048ZM508.337 485.435H224.449L226.016 521.955L508.337 519.194V485.435ZM236.187 490.186L193.466 448.841L169.989 473.098L212.71 514.443L236.187 490.186Z" fill="#FFFEFA"/>
<path d="M349.586 685.054C535.184 685.054 685.64 534.598 685.64 349C685.64 163.402 535.184 12.9453 349.586 12.9453C163.988 12.9453 13.5312 163.402 13.5312 349C13.5312 534.598 163.988 685.054 349.586 685.054Z" stroke="#FFFEFA" stroke-width="25"/>
<path d="M12 686.589L349.589 349M349.589 349L687.178 11.4109M349.589 349L12 11.4109M349.589 349L687.178 686.589" stroke="#FFFEFA" stroke-width="25"/>
<path d="M791.302 54.232H889.582C905.39 54.232 918.286 56.52 928.27 61.096C938.254 65.672 945.95 71.392 951.358 78.256C956.766 85.12 960.406 92.608 962.278 100.72C964.358 108.832 965.398 116.32 965.398 123.184C965.398 130.048 964.358 137.536 962.278 145.648C960.406 153.552 956.766 160.936 951.358 167.8C945.95 174.664 938.254 180.384 928.27 184.96C918.286 189.328 905.39 191.512 889.582 191.512H830.302V277H791.302V54.232ZM830.302 159.688H887.398C891.766 159.688 896.238 159.064 900.814 157.816C905.39 156.568 909.55 154.592 913.294 151.888C917.246 148.976 920.366 145.232 922.654 140.656C925.15 135.872 926.398 129.944 926.398 122.872C926.398 115.592 925.358 109.56 923.278 104.776C921.198 99.992 918.39 96.248 914.854 93.544C911.318 90.632 907.262 88.656 902.686 87.616C898.11 86.576 893.222 86.056 888.022 86.056H830.302V159.688ZM994.411 115.696H1027.8V146.896H1028.42C1029.46 142.528 1031.44 138.264 1034.35 134.104C1037.47 129.944 1041.11 126.2 1045.27 122.872C1049.64 119.336 1054.42 116.528 1059.62 114.448C1064.82 112.368 1070.12 111.328 1075.53 111.328C1079.69 111.328 1082.5 111.432 1083.96 111.64C1085.62 111.848 1087.28 112.056 1088.95 112.264V146.584C1086.45 146.168 1083.85 145.856 1081.15 145.648C1078.65 145.232 1076.16 145.024 1073.66 145.024C1067.63 145.024 1061.91 146.272 1056.5 148.768C1051.3 151.056 1046.72 154.592 1042.77 159.376C1038.82 163.952 1035.7 169.672 1033.41 176.536C1031.12 183.4 1029.98 191.304 1029.98 200.248V277H994.411V115.696ZM1172.56 281.368C1159.66 281.368 1148.12 279.288 1137.93 275.128C1127.94 270.76 1119.41 264.832 1112.34 257.344C1105.48 249.856 1100.17 240.912 1096.43 230.512C1092.89 220.112 1091.13 208.672 1091.13 196.192C1091.13 183.92 1092.89 172.584 1096.43 162.184C1100.17 151.784 1105.48 142.84 1112.34 135.352C1119.41 127.864 1127.94 122.04 1137.93 117.88C1148.12 113.512 1159.66 111.328 1172.56 111.328C1185.45 111.328 1196.89 113.512 1206.88 117.88C1217.07 122.04 1225.6 127.864 1232.46 135.352C1239.53 142.84 1244.84 151.784 1248.37 162.184C1252.12 172.584 1253.99 183.92 1253.99 196.192C1253.99 208.672 1252.12 220.112 1248.37 230.512C1244.84 240.912 1239.53 249.856 1232.46 257.344C1225.6 264.832 1217.07 270.76 1206.88 275.128C1196.89 279.288 1185.45 281.368 1172.56 281.368ZM1172.56 253.288C1180.46 253.288 1187.33 251.624 1193.15 248.296C1198.97 244.968 1203.76 240.6 1207.5 235.192C1211.25 229.784 1213.95 223.752 1215.61 217.096C1217.49 210.232 1218.42 203.264 1218.42 196.192C1218.42 189.328 1217.49 182.464 1215.61 175.6C1213.95 168.736 1211.25 162.704 1207.5 157.504C1203.76 152.096 1198.97 147.728 1193.15 144.4C1187.33 141.072 1180.46 139.408 1172.56 139.408C1164.65 139.408 1157.79 141.072 1151.97 144.4C1146.14 147.728 1141.36 152.096 1137.61 157.504C1133.87 162.704 1131.06 168.736 1129.19 175.6C1127.53 182.464 1126.69 189.328 1126.69 196.192C1126.69 203.264 1127.53 210.232 1129.19 217.096C1131.06 223.752 1133.87 229.784 1137.61 235.192C1141.36 240.6 1146.14 244.968 1151.97 248.296C1157.79 251.624 1164.65 253.288 1172.56 253.288ZM1284.5 54.232H1320.06V87.928H1284.5V54.232ZM1284.5 115.696H1320.06V290.728C1320.06 306.744 1316.53 319.12 1309.46 327.856C1302.38 336.592 1290.53 340.96 1273.89 340.96C1270.35 340.96 1267.34 340.856 1264.84 340.648C1262.55 340.44 1260.26 340.128 1257.98 339.712V311.632C1260.26 312.048 1262.45 312.36 1264.53 312.568C1266.61 312.776 1268.48 312.88 1270.14 312.88C1276.59 312.88 1280.54 310.904 1282 306.952C1283.66 303 1284.5 297.072 1284.5 289.168V115.696ZM1469.58 182.152C1469.16 176.536 1467.91 171.128 1465.83 165.928C1463.96 160.728 1461.26 156.256 1457.72 152.512C1454.39 148.56 1450.23 145.44 1445.24 143.152C1440.46 140.656 1435.05 139.408 1429.02 139.408C1422.78 139.408 1417.06 140.552 1411.86 142.84C1406.87 144.92 1402.5 147.936 1398.75 151.888C1395.22 155.632 1392.31 160.104 1390.02 165.304C1387.94 170.504 1386.79 176.12 1386.59 182.152H1469.58ZM1386.59 205.552C1386.59 211.792 1387.42 217.824 1389.08 223.648C1390.95 229.472 1393.66 234.568 1397.19 238.936C1400.73 243.304 1405.2 246.84 1410.61 249.544C1416.02 252.04 1422.47 253.288 1429.95 253.288C1440.35 253.288 1448.67 251.104 1454.91 246.736C1461.36 242.16 1466.15 235.4 1469.27 226.456H1502.96C1501.09 235.192 1497.87 242.992 1493.29 249.856C1488.71 256.72 1483.2 262.544 1476.75 267.328C1470.31 271.904 1463.03 275.336 1454.91 277.624C1447.01 280.12 1438.69 281.368 1429.95 281.368C1417.27 281.368 1406.03 279.288 1396.26 275.128C1386.48 270.968 1378.16 265.144 1371.3 257.656C1364.64 250.168 1359.55 241.224 1356.01 230.824C1352.68 220.424 1351.02 208.984 1351.02 196.504C1351.02 185.064 1352.79 174.248 1356.32 164.056C1360.07 153.656 1365.27 144.608 1371.92 136.912C1378.79 129.008 1387 122.768 1396.57 118.192C1406.14 113.616 1416.95 111.328 1429.02 111.328C1441.71 111.328 1453.04 114.032 1463.03 119.44C1473.22 124.64 1481.64 131.608 1488.3 140.344C1494.95 149.08 1499.74 159.168 1502.65 170.608C1505.77 181.84 1506.6 193.488 1505.15 205.552H1386.59ZM1641.07 169.672C1639.62 159.688 1635.56 152.2 1628.9 147.208C1622.46 142.008 1614.24 139.408 1604.26 139.408C1599.68 139.408 1594.79 140.24 1589.59 141.904C1584.39 143.36 1579.61 146.272 1575.24 150.64C1570.87 154.8 1567.23 160.728 1564.32 168.424C1561.41 175.912 1559.95 185.792 1559.95 198.064C1559.95 204.72 1560.68 211.376 1562.14 218.032C1563.8 224.688 1566.3 230.616 1569.62 235.816C1573.16 241.016 1577.63 245.28 1583.04 248.608C1588.45 251.728 1595 253.288 1602.7 253.288C1613.1 253.288 1621.62 250.064 1628.28 243.616C1635.14 237.168 1639.41 228.12 1641.07 216.472H1676.64C1673.31 237.48 1665.3 253.6 1652.62 264.832C1640.14 275.856 1623.5 281.368 1602.7 281.368C1590.01 281.368 1578.78 279.288 1569 275.128C1559.43 270.76 1551.32 264.936 1544.66 257.656C1538.01 250.168 1532.91 241.328 1529.38 231.136C1526.05 220.944 1524.38 209.92 1524.38 198.064C1524.38 186 1526.05 174.664 1529.38 164.056C1532.7 153.448 1537.7 144.296 1544.35 136.6C1551.01 128.696 1559.22 122.56 1569 118.192C1578.98 113.616 1590.63 111.328 1603.94 111.328C1613.3 111.328 1622.14 112.576 1630.46 115.072C1638.99 117.36 1646.48 120.896 1652.93 125.68C1659.58 130.464 1664.99 136.496 1669.15 143.776C1673.31 151.056 1675.81 159.688 1676.64 169.672H1641.07ZM1689.33 115.696H1716.16V67.336H1751.73V115.696H1783.86V142.216H1751.73V228.328C1751.73 232.072 1751.83 235.296 1752.04 238C1752.46 240.704 1753.18 242.992 1754.22 244.864C1755.47 246.736 1757.24 248.192 1759.53 249.232C1761.82 250.064 1764.94 250.48 1768.89 250.48C1771.38 250.48 1773.88 250.48 1776.38 250.48C1778.87 250.272 1781.37 249.856 1783.86 249.232V276.688C1779.91 277.104 1776.06 277.52 1772.32 277.936C1768.58 278.352 1764.73 278.56 1760.78 278.56C1751.42 278.56 1743.82 277.728 1738 276.064C1732.38 274.192 1727.91 271.592 1724.58 268.264C1721.46 264.728 1719.28 260.36 1718.03 255.16C1716.99 249.96 1716.37 244.032 1716.16 237.376V142.216H1689.33V115.696ZM816.886 583.744C816.886 592.272 818.342 599.552 821.254 605.584C824.166 611.616 828.222 616.608 833.422 620.56C838.622 624.304 844.55 627.112 851.206 628.984C858.07 630.648 865.454 631.48 873.358 631.48C881.886 631.48 889.166 630.544 895.198 628.672C901.23 626.592 906.118 623.992 909.862 620.872C913.606 617.752 916.31 614.216 917.974 610.264C919.638 606.104 920.47 601.944 920.47 597.784C920.47 589.256 918.494 583.016 914.542 579.064C910.798 574.904 906.638 571.992 902.062 570.328C894.158 567.416 884.902 564.712 874.294 562.216C863.894 559.512 850.998 556.08 835.606 551.92C826.038 549.424 818.03 546.2 811.582 542.248C805.342 538.088 800.35 533.512 796.606 528.52C792.862 523.528 790.158 518.224 788.494 512.608C787.038 506.992 786.31 501.272 786.31 495.448C786.31 484.216 788.598 474.544 793.174 466.432C797.958 458.112 804.198 451.248 811.894 445.84C819.59 440.432 828.326 436.48 838.102 433.984C847.878 431.28 857.758 429.928 867.742 429.928C879.39 429.928 890.31 431.488 900.502 434.608C910.902 437.52 919.95 441.992 927.646 448.024C935.55 454.056 941.79 461.544 946.366 470.488C950.942 479.224 953.23 489.416 953.23 501.064H914.23C913.19 486.712 908.302 476.624 899.566 470.8C890.83 464.768 879.702 461.752 866.182 461.752C861.606 461.752 856.926 462.272 852.142 463.312C847.358 464.144 842.99 465.704 839.038 467.992C835.086 470.072 831.758 472.984 829.054 476.728C826.558 480.472 825.31 485.152 825.31 490.768C825.31 498.672 827.702 504.912 832.486 509.488C837.478 513.856 843.926 517.184 851.83 519.472C852.662 519.68 855.886 520.616 861.502 522.28C867.326 523.736 873.774 525.4 880.846 527.272C887.918 529.144 894.782 531.016 901.438 532.888C908.302 534.552 913.19 535.8 916.102 536.632C923.382 538.92 929.726 542.04 935.134 545.992C940.542 549.944 945.014 554.52 948.55 559.72C952.294 564.712 954.998 570.12 956.662 575.944C958.534 581.768 959.47 587.592 959.47 593.416C959.47 605.896 956.87 616.608 951.67 625.552C946.678 634.288 940.022 641.464 931.702 647.08C923.382 652.696 913.918 656.752 903.31 659.248C892.702 661.952 881.886 663.304 870.862 663.304C858.174 663.304 846.214 661.744 834.982 658.624C823.75 655.504 813.974 650.72 805.654 644.272C797.334 637.824 790.678 629.608 785.686 619.624C780.694 609.432 778.094 597.472 777.886 583.744H816.886ZM988.622 435.232H1024.19V517.912H1024.81C1029.18 510.632 1035.63 504.6 1044.16 499.816C1052.89 494.824 1062.57 492.328 1073.17 492.328C1090.85 492.328 1104.79 496.904 1114.98 506.056C1125.17 515.208 1130.27 528.936 1130.27 547.24V658H1094.7V556.6C1094.29 543.912 1091.58 534.76 1086.59 529.144C1081.6 523.32 1073.8 520.408 1063.19 520.408C1057.16 520.408 1051.75 521.552 1046.97 523.84C1042.18 525.92 1038.13 528.936 1034.8 532.888C1031.47 536.632 1028.87 541.104 1027 546.304C1025.13 551.504 1024.19 557.016 1024.19 562.84V658H988.622V435.232ZM1302.87 622.12C1302.87 626.488 1303.39 629.608 1304.43 631.48C1305.68 633.352 1307.97 634.288 1311.3 634.288C1312.34 634.288 1313.59 634.288 1315.04 634.288C1316.5 634.288 1318.16 634.08 1320.03 633.664V658.312C1318.79 658.728 1317.12 659.144 1315.04 659.56C1313.17 660.184 1311.19 660.704 1309.11 661.12C1307.03 661.536 1304.95 661.848 1302.87 662.056C1300.79 662.264 1299.03 662.368 1297.57 662.368C1290.29 662.368 1284.26 660.912 1279.47 658C1274.69 655.088 1271.57 649.992 1270.11 642.712C1263.04 649.576 1254.31 654.568 1243.91 657.688C1233.71 660.808 1223.83 662.368 1214.27 662.368C1206.99 662.368 1200.02 661.328 1193.36 659.248C1186.71 657.376 1180.78 654.568 1175.58 650.824C1170.59 646.872 1166.53 641.984 1163.41 636.16C1160.5 630.128 1159.04 623.16 1159.04 615.256C1159.04 605.272 1160.81 597.16 1164.35 590.92C1168.09 584.68 1172.87 579.792 1178.7 576.256C1184.73 572.72 1191.39 570.224 1198.67 568.768C1206.15 567.104 1213.64 565.856 1221.13 565.024C1227.58 563.776 1233.71 562.944 1239.54 562.528C1245.36 561.904 1250.46 560.968 1254.83 559.72C1259.4 558.472 1262.94 556.6 1265.43 554.104C1268.14 551.4 1269.49 547.448 1269.49 542.248C1269.49 537.672 1268.35 533.928 1266.06 531.016C1263.98 528.104 1261.27 525.92 1257.95 524.464C1254.83 522.8 1251.29 521.76 1247.34 521.344C1243.39 520.72 1239.64 520.408 1236.11 520.408C1226.12 520.408 1217.91 522.488 1211.46 526.648C1205.01 530.808 1201.37 537.256 1200.54 545.992H1164.97C1165.59 535.592 1168.09 526.96 1172.46 520.096C1176.83 513.232 1182.34 507.72 1188.99 503.56C1195.86 499.4 1203.55 496.488 1212.08 494.824C1220.61 493.16 1229.35 492.328 1238.29 492.328C1246.19 492.328 1253.99 493.16 1261.69 494.824C1269.39 496.488 1276.25 499.192 1282.28 502.936C1288.52 506.68 1293.51 511.568 1297.26 517.6C1301 523.424 1302.87 530.6 1302.87 539.128V622.12ZM1267.31 577.192C1261.9 580.728 1255.24 582.912 1247.34 583.744C1239.43 584.368 1231.53 585.408 1223.63 586.864C1219.88 587.488 1216.24 588.424 1212.71 589.672C1209.17 590.712 1206.05 592.272 1203.35 594.352C1200.64 596.224 1198.46 598.824 1196.79 602.152C1195.34 605.272 1194.61 609.12 1194.61 613.696C1194.61 617.648 1195.75 620.976 1198.04 623.68C1200.33 626.384 1203.03 628.568 1206.15 630.232C1209.48 631.688 1213.02 632.728 1216.76 633.352C1220.71 633.976 1224.25 634.288 1227.37 634.288C1231.32 634.288 1235.59 633.768 1240.16 632.728C1244.74 631.688 1249 629.92 1252.95 627.424C1257.11 624.928 1260.55 621.808 1263.25 618.064C1265.95 614.112 1267.31 609.328 1267.31 603.712V577.192ZM1341.15 496.696H1374.53V527.896H1375.15C1376.19 523.528 1378.17 519.264 1381.08 515.104C1384.2 510.944 1387.84 507.2 1392 503.872C1396.37 500.336 1401.15 497.528 1406.35 495.448C1411.55 493.368 1416.86 492.328 1422.27 492.328C1426.43 492.328 1429.23 492.432 1430.69 492.64C1432.35 492.848 1434.02 493.056 1435.68 493.264V527.584C1433.19 527.168 1430.59 526.856 1427.88 526.648C1425.39 526.232 1422.89 526.024 1420.39 526.024C1414.36 526.024 1408.64 527.272 1403.23 529.768C1398.03 532.056 1393.46 535.592 1389.51 540.376C1385.55 544.952 1382.43 550.672 1380.15 557.536C1377.86 564.4 1376.71 572.304 1376.71 581.248V658H1341.15V496.696ZM1556.11 563.152C1555.69 557.536 1554.44 552.128 1552.36 546.928C1550.49 541.728 1547.79 537.256 1544.25 533.512C1540.92 529.56 1536.76 526.44 1531.77 524.152C1526.99 521.656 1521.58 520.408 1515.55 520.408C1509.31 520.408 1503.59 521.552 1498.39 523.84C1493.4 525.92 1489.03 528.936 1485.28 532.888C1481.75 536.632 1478.84 541.104 1476.55 546.304C1474.47 551.504 1473.32 557.12 1473.12 563.152H1556.11ZM1473.12 586.552C1473.12 592.792 1473.95 598.824 1475.61 604.648C1477.48 610.472 1480.19 615.568 1483.72 619.936C1487.26 624.304 1491.73 627.84 1497.14 630.544C1502.55 633.04 1509 634.288 1516.48 634.288C1526.88 634.288 1535.2 632.104 1541.44 627.736C1547.89 623.16 1552.68 616.4 1555.8 607.456H1589.49C1587.62 616.192 1584.4 623.992 1579.82 630.856C1575.24 637.72 1569.73 643.544 1563.28 648.328C1556.84 652.904 1549.56 656.336 1541.44 658.624C1533.54 661.12 1525.22 662.368 1516.48 662.368C1503.8 662.368 1492.56 660.288 1482.79 656.128C1473.01 651.968 1464.69 646.144 1457.83 638.656C1451.17 631.168 1446.08 622.224 1442.54 611.824C1439.21 601.424 1437.55 589.984 1437.55 577.504C1437.55 566.064 1439.32 555.248 1442.85 545.056C1446.6 534.656 1451.8 525.608 1458.45 517.912C1465.32 510.008 1473.53 503.768 1483.1 499.192C1492.67 494.616 1503.48 492.328 1515.55 492.328C1528.24 492.328 1539.57 495.032 1549.56 500.44C1559.75 505.64 1568.17 512.608 1574.83 521.344C1581.48 530.08 1586.27 540.168 1589.18 551.608C1592.3 562.84 1593.13 574.488 1591.68 586.552H1473.12Z" fill="#FFFEFA"/>
</g>
<defs>
<clipPath id="clip0_1137_2">
<rect width="1862" height="699" fill="white"/>
</clipPath>
</defs>
</svg>
