<svg width="1985" height="808" viewBox="0 0 1985 808" fill="none" xmlns="http://www.w3.org/2000/svg">
<path d="M740.051 67.9453H67.9424V740.054H740.051V67.9453Z" stroke="#FFFEFA" stroke-width="25"/>
<path d="M578.474 281.648H603.026C603.026 275.089 600.402 268.803 595.737 264.191C591.073 259.579 584.76 257.024 578.201 257.097L578.474 281.648ZM229.067 232.137V207.585C222.555 207.585 216.31 210.172 211.706 214.776C207.102 219.38 204.515 225.625 204.515 232.137H229.067ZM603.026 345.305V281.648H553.922V345.305H603.026ZM578.474 281.648C578.201 257.097 578.201 257.097 578.201 257.097C578.198 257.097 578.198 257.097 578.195 257.097C578.192 257.097 578.189 257.097 578.18 257.097C578.167 257.098 578.146 257.098 578.115 257.098C578.057 257.099 577.968 257.1 577.848 257.101C577.612 257.104 577.259 257.107 576.792 257.112C575.866 257.121 574.497 257.134 572.748 257.149C569.243 257.179 564.21 257.218 558.093 257.251C545.857 257.317 529.327 257.361 512.114 257.273C494.869 257.185 477.069 256.965 462.258 256.511C446.6 256.03 436.46 255.327 433.05 254.687L424 302.95C431.905 304.432 446.17 305.144 460.751 305.591C476.173 306.065 494.448 306.287 511.862 306.376C529.303 306.465 546.017 306.421 558.36 306.354C564.535 306.321 569.623 306.282 573.171 306.251C574.945 306.236 576.335 306.223 577.281 306.213C577.756 306.209 578.118 306.205 578.367 306.202C578.49 306.201 578.582 306.2 578.646 306.199C578.68 306.199 578.701 306.198 578.72 306.198C578.729 306.198 578.735 306.198 578.738 306.198C578.741 306.198 578.741 306.198 578.744 306.198C578.744 306.198 578.747 306.198 578.474 281.648ZM433.05 254.687C434.373 254.935 433.682 255.373 430.521 252.254C427.244 249.022 424.129 244.932 419.129 238.628C414.787 233.152 408.774 225.704 401.418 219.75C393.681 213.488 382.903 207.585 369.112 207.585V256.689C368.073 256.689 368.267 256.09 370.526 257.918C373.162 260.053 376.166 263.48 380.659 269.144C384.496 273.981 390.038 281.295 396.038 287.214C402.155 293.246 411.362 300.58 424 302.95L433.05 254.687ZM369.112 207.585H229.067V256.689H369.112V207.585ZM204.515 232.137V518.421H253.619V232.137H204.515ZM204.515 518.421C204.515 544.667 221.59 560.233 238.386 567.844C254.255 575.032 272.744 576.922 287.065 576.922V527.819C275.924 527.819 265.414 526.18 258.649 523.114C255.468 521.674 254.269 520.435 253.945 520.017C253.893 519.95 253.619 519.784 253.619 518.421H204.515Z" fill="#FFFEFA"/>
<path d="M321.581 376.962L236.139 516.684L278.86 558.029H562.748L663.349 376.962H321.581Z" fill="#FFFEFA"/>
<path d="M236.139 515.969L221.738 507.161C217.616 513.904 218.722 522.601 224.4 528.098L236.139 515.969ZM321.581 376.247V359.366C315.702 359.366 310.247 362.425 307.18 367.44L321.581 376.247ZM663.349 376.247L678.102 384.445C681.008 379.215 680.928 372.841 677.896 367.686C674.864 362.531 669.328 359.366 663.349 359.366V376.247ZM562.748 557.315V574.194C568.877 574.194 574.527 570.87 577.504 565.512L562.748 557.315ZM278.86 557.315L267.121 569.443L272.029 574.194L280.427 576.955L278.86 557.315ZM250.539 524.774L335.981 385.052L307.18 367.44L221.738 507.161L250.539 524.774ZM321.581 393.127H663.349V359.366H321.581V393.127ZM648.594 368.048L547.992 549.117L577.504 565.512L678.102 384.445L648.594 368.048ZM562.748 540.435H278.86L280.427 576.955L562.748 574.194V540.435ZM290.599 545.186L247.878 503.841L224.4 528.098L267.121 569.443L290.599 545.186Z" fill="#FFFEFA"/>
<path d="M403.997 740.054C589.595 740.054 740.051 589.598 740.051 404C740.051 218.402 589.595 67.9453 403.997 67.9453C218.399 67.9453 67.9424 218.402 67.9424 404C67.9424 589.598 218.399 740.054 403.997 740.054Z" stroke="#FFFEFA" stroke-width="25"/>
<path d="M66.4111 741.589L404 404M404 404L741.589 66.4109M404 404L66.4111 66.4109M404 404L741.589 741.589" stroke="#FFFEFA" stroke-width="25"/>
<path d="M845.712 109.232H943.992C959.8 109.232 972.696 111.52 982.68 116.096C992.664 120.672 1000.36 126.392 1005.77 133.256C1011.18 140.12 1014.82 147.608 1016.69 155.72C1018.77 163.832 1019.81 171.32 1019.81 178.184C1019.81 185.048 1018.77 192.536 1016.69 200.648C1014.82 208.552 1011.18 215.936 1005.77 222.8C1000.36 229.664 992.664 235.384 982.68 239.96C972.696 244.328 959.8 246.512 943.992 246.512H884.712V332H845.712V109.232ZM884.712 214.688H941.808C946.176 214.688 950.648 214.064 955.224 212.816C959.8 211.568 963.96 209.592 967.704 206.888C971.656 203.976 974.776 200.232 977.064 195.656C979.56 190.872 980.808 184.944 980.808 177.872C980.808 170.592 979.768 164.56 977.688 159.776C975.608 154.992 972.8 151.248 969.264 148.544C965.728 145.632 961.672 143.656 957.096 142.616C952.52 141.576 947.632 141.056 942.432 141.056H884.712V214.688ZM1048.82 170.696H1082.21V201.896H1082.83C1083.87 197.528 1085.85 193.264 1088.76 189.104C1091.88 184.944 1095.52 181.2 1099.68 177.872C1104.05 174.336 1108.83 171.528 1114.03 169.448C1119.23 167.368 1124.53 166.328 1129.94 166.328C1134.1 166.328 1136.91 166.432 1138.37 166.64C1140.03 166.848 1141.69 167.056 1143.36 167.264V201.584C1140.86 201.168 1138.26 200.856 1135.56 200.648C1133.06 200.232 1130.57 200.024 1128.07 200.024C1122.04 200.024 1116.32 201.272 1110.91 203.768C1105.71 206.056 1101.13 209.592 1097.18 214.376C1093.23 218.952 1090.11 224.672 1087.82 231.536C1085.53 238.4 1084.39 246.304 1084.39 255.248V332H1048.82V170.696ZM1226.97 336.368C1214.07 336.368 1202.53 334.288 1192.34 330.128C1182.35 325.76 1173.82 319.832 1166.75 312.344C1159.89 304.856 1154.58 295.912 1150.84 285.512C1147.3 275.112 1145.54 263.672 1145.54 251.192C1145.54 238.92 1147.3 227.584 1150.84 217.184C1154.58 206.784 1159.89 197.84 1166.75 190.352C1173.82 182.864 1182.35 177.04 1192.34 172.88C1202.53 168.512 1214.07 166.328 1226.97 166.328C1239.86 166.328 1251.3 168.512 1261.29 172.88C1271.48 177.04 1280.01 182.864 1286.87 190.352C1293.94 197.84 1299.25 206.784 1302.78 217.184C1306.53 227.584 1308.4 238.92 1308.4 251.192C1308.4 263.672 1306.53 275.112 1302.78 285.512C1299.25 295.912 1293.94 304.856 1286.87 312.344C1280.01 319.832 1271.48 325.76 1261.29 330.128C1251.3 334.288 1239.86 336.368 1226.97 336.368ZM1226.97 308.288C1234.87 308.288 1241.74 306.624 1247.56 303.296C1253.38 299.968 1258.17 295.6 1261.91 290.192C1265.66 284.784 1268.36 278.752 1270.02 272.096C1271.9 265.232 1272.83 258.264 1272.83 251.192C1272.83 244.328 1271.9 237.464 1270.02 230.6C1268.36 223.736 1265.66 217.704 1261.91 212.504C1258.17 207.096 1253.38 202.728 1247.56 199.4C1241.74 196.072 1234.87 194.408 1226.97 194.408C1219.06 194.408 1212.2 196.072 1206.38 199.4C1200.55 202.728 1195.77 207.096 1192.02 212.504C1188.28 217.704 1185.47 223.736 1183.6 230.6C1181.94 237.464 1181.1 244.328 1181.1 251.192C1181.1 258.264 1181.94 265.232 1183.6 272.096C1185.47 278.752 1188.28 284.784 1192.02 290.192C1195.77 295.6 1200.55 299.968 1206.38 303.296C1212.2 306.624 1219.06 308.288 1226.97 308.288ZM1338.91 109.232H1374.47V142.928H1338.91V109.232ZM1338.91 170.696H1374.47V345.728C1374.47 361.744 1370.94 374.12 1363.87 382.856C1356.79 391.592 1344.94 395.96 1328.3 395.96C1324.76 395.96 1321.75 395.856 1319.25 395.648C1316.96 395.44 1314.67 395.128 1312.39 394.712V366.632C1314.67 367.048 1316.86 367.36 1318.94 367.568C1321.02 367.776 1322.89 367.88 1324.55 367.88C1331 367.88 1334.95 365.904 1336.41 361.952C1338.07 358 1338.91 352.072 1338.91 344.168V170.696ZM1523.99 237.152C1523.57 231.536 1522.32 226.128 1520.24 220.928C1518.37 215.728 1515.67 211.256 1512.13 207.512C1508.8 203.56 1504.64 200.44 1499.65 198.152C1494.87 195.656 1489.46 194.408 1483.43 194.408C1477.19 194.408 1471.47 195.552 1466.27 197.84C1461.28 199.92 1456.91 202.936 1453.16 206.888C1449.63 210.632 1446.72 215.104 1444.43 220.304C1442.35 225.504 1441.2 231.12 1441 237.152H1523.99ZM1441 260.552C1441 266.792 1441.83 272.824 1443.49 278.648C1445.36 284.472 1448.07 289.568 1451.6 293.936C1455.14 298.304 1459.61 301.84 1465.02 304.544C1470.43 307.04 1476.88 308.288 1484.36 308.288C1494.76 308.288 1503.08 306.104 1509.32 301.736C1515.77 297.16 1520.56 290.4 1523.68 281.456H1557.37C1555.5 290.192 1552.28 297.992 1547.7 304.856C1543.12 311.72 1537.61 317.544 1531.16 322.328C1524.72 326.904 1517.44 330.336 1509.32 332.624C1501.42 335.12 1493.1 336.368 1484.36 336.368C1471.68 336.368 1460.44 334.288 1450.67 330.128C1440.89 325.968 1432.57 320.144 1425.71 312.656C1419.05 305.168 1413.96 296.224 1410.42 285.824C1407.09 275.424 1405.43 263.984 1405.43 251.504C1405.43 240.064 1407.2 229.248 1410.73 219.056C1414.48 208.656 1419.68 199.608 1426.33 191.912C1433.2 184.008 1441.41 177.768 1450.98 173.192C1460.55 168.616 1471.36 166.328 1483.43 166.328C1496.12 166.328 1507.45 169.032 1517.44 174.44C1527.63 179.64 1536.05 186.608 1542.71 195.344C1549.36 204.08 1554.15 214.168 1557.06 225.608C1560.18 236.84 1561.01 248.488 1559.56 260.552H1441ZM1695.48 224.672C1694.03 214.688 1689.97 207.2 1683.32 202.208C1676.87 197.008 1668.65 194.408 1658.67 194.408C1654.09 194.408 1649.2 195.24 1644 196.904C1638.8 198.36 1634.02 201.272 1629.65 205.64C1625.28 209.8 1621.64 215.728 1618.73 223.424C1615.82 230.912 1614.36 240.792 1614.36 253.064C1614.36 259.72 1615.09 266.376 1616.55 273.032C1618.21 279.688 1620.71 285.616 1624.04 290.816C1627.57 296.016 1632.04 300.28 1637.45 303.608C1642.86 306.728 1649.41 308.288 1657.11 308.288C1667.51 308.288 1676.04 305.064 1682.69 298.616C1689.56 292.168 1693.82 283.12 1695.48 271.472H1731.05C1727.72 292.48 1719.72 308.6 1707.03 319.832C1694.55 330.856 1677.91 336.368 1657.11 336.368C1644.42 336.368 1633.19 334.288 1623.41 330.128C1613.84 325.76 1605.73 319.936 1599.08 312.656C1592.42 305.168 1587.32 296.328 1583.79 286.136C1580.46 275.944 1578.8 264.92 1578.8 253.064C1578.8 241 1580.46 229.664 1583.79 219.056C1587.12 208.448 1592.11 199.296 1598.76 191.6C1605.42 183.696 1613.64 177.56 1623.41 173.192C1633.4 168.616 1645.04 166.328 1658.36 166.328C1667.72 166.328 1676.56 167.576 1684.88 170.072C1693.4 172.36 1700.89 175.896 1707.34 180.68C1714 185.464 1719.4 191.496 1723.56 198.776C1727.72 206.056 1730.22 214.688 1731.05 224.672H1695.48ZM1743.74 170.696H1770.57V122.336H1806.14V170.696H1838.27V197.216H1806.14V283.328C1806.14 287.072 1806.24 290.296 1806.45 293C1806.87 295.704 1807.59 297.992 1808.63 299.864C1809.88 301.736 1811.65 303.192 1813.94 304.232C1816.23 305.064 1819.35 305.48 1823.3 305.48C1825.79 305.48 1828.29 305.48 1830.79 305.48C1833.28 305.272 1835.78 304.856 1838.27 304.232V331.688C1834.32 332.104 1830.47 332.52 1826.73 332.936C1822.99 333.352 1819.14 333.56 1815.19 333.56C1805.83 333.56 1798.23 332.728 1792.41 331.064C1786.79 329.192 1782.32 326.592 1778.99 323.264C1775.87 319.728 1773.69 315.36 1772.44 310.16C1771.4 304.96 1770.78 299.032 1770.57 292.376V197.216H1743.74V170.696ZM871.296 638.744C871.296 647.272 872.752 654.552 875.664 660.584C878.576 666.616 882.632 671.608 887.832 675.56C893.032 679.304 898.96 682.112 905.616 683.984C912.48 685.648 919.864 686.48 927.768 686.48C936.296 686.48 943.576 685.544 949.608 683.672C955.64 681.592 960.528 678.992 964.272 675.872C968.016 672.752 970.72 669.216 972.384 665.264C974.048 661.104 974.88 656.944 974.88 652.784C974.88 644.256 972.904 638.016 968.952 634.064C965.208 629.904 961.048 626.992 956.472 625.328C948.568 622.416 939.312 619.712 928.704 617.216C918.304 614.512 905.408 611.08 890.016 606.92C880.448 604.424 872.44 601.2 865.992 597.248C859.752 593.088 854.76 588.512 851.016 583.52C847.272 578.528 844.568 573.224 842.904 567.608C841.448 561.992 840.72 556.272 840.72 550.448C840.72 539.216 843.008 529.544 847.584 521.432C852.368 513.112 858.608 506.248 866.304 500.84C874 495.432 882.736 491.48 892.512 488.984C902.288 486.28 912.168 484.928 922.152 484.928C933.8 484.928 944.72 486.488 954.912 489.608C965.312 492.52 974.36 496.992 982.056 503.024C989.96 509.056 996.2 516.544 1000.78 525.488C1005.35 534.224 1007.64 544.416 1007.64 556.064H968.64C967.6 541.712 962.712 531.624 953.976 525.8C945.24 519.768 934.112 516.752 920.592 516.752C916.016 516.752 911.336 517.272 906.552 518.312C901.768 519.144 897.4 520.704 893.448 522.992C889.496 525.072 886.168 527.984 883.464 531.728C880.968 535.472 879.72 540.152 879.72 545.768C879.72 553.672 882.112 559.912 886.896 564.488C891.888 568.856 898.336 572.184 906.24 574.472C907.072 574.68 910.296 575.616 915.912 577.28C921.736 578.736 928.184 580.4 935.256 582.272C942.328 584.144 949.192 586.016 955.848 587.888C962.712 589.552 967.6 590.8 970.512 591.632C977.792 593.92 984.136 597.04 989.544 600.992C994.952 604.944 999.424 609.52 1002.96 614.72C1006.7 619.712 1009.41 625.12 1011.07 630.944C1012.94 636.768 1013.88 642.592 1013.88 648.416C1013.88 660.896 1011.28 671.608 1006.08 680.552C1001.09 689.288 994.432 696.464 986.112 702.08C977.792 707.696 968.328 711.752 957.72 714.248C947.112 716.952 936.296 718.304 925.272 718.304C912.584 718.304 900.624 716.744 889.392 713.624C878.16 710.504 868.384 705.72 860.064 699.272C851.744 692.824 845.088 684.608 840.096 674.624C835.104 664.432 832.504 652.472 832.296 638.744H871.296ZM1043.03 490.232H1078.6V572.912H1079.22C1083.59 565.632 1090.04 559.6 1098.57 554.816C1107.3 549.824 1116.98 547.328 1127.58 547.328C1145.26 547.328 1159.2 551.904 1169.39 561.056C1179.58 570.208 1184.68 583.936 1184.68 602.24V713H1149.11V611.6C1148.7 598.912 1145.99 589.76 1141 584.144C1136.01 578.32 1128.21 575.408 1117.6 575.408C1111.57 575.408 1106.16 576.552 1101.38 578.84C1096.59 580.92 1092.54 583.936 1089.21 587.888C1085.88 591.632 1083.28 596.104 1081.41 601.304C1079.54 606.504 1078.6 612.016 1078.6 617.84V713H1043.03V490.232ZM1357.28 677.12C1357.28 681.488 1357.8 684.608 1358.84 686.48C1360.09 688.352 1362.38 689.288 1365.71 689.288C1366.75 689.288 1368 689.288 1369.45 689.288C1370.91 689.288 1372.57 689.08 1374.44 688.664V713.312C1373.2 713.728 1371.53 714.144 1369.45 714.56C1367.58 715.184 1365.6 715.704 1363.52 716.12C1361.44 716.536 1359.36 716.848 1357.28 717.056C1355.2 717.264 1353.44 717.368 1351.98 717.368C1344.7 717.368 1338.67 715.912 1333.88 713C1329.1 710.088 1325.98 704.992 1324.52 697.712C1317.45 704.576 1308.72 709.568 1298.32 712.688C1288.12 715.808 1278.24 717.368 1268.68 717.368C1261.4 717.368 1254.43 716.328 1247.77 714.248C1241.12 712.376 1235.19 709.568 1229.99 705.824C1225 701.872 1220.94 696.984 1217.82 691.16C1214.91 685.128 1213.45 678.16 1213.45 670.256C1213.45 660.272 1215.22 652.16 1218.76 645.92C1222.5 639.68 1227.28 634.792 1233.11 631.256C1239.14 627.72 1245.8 625.224 1253.08 623.768C1260.56 622.104 1268.05 620.856 1275.54 620.024C1281.99 618.776 1288.12 617.944 1293.95 617.528C1299.77 616.904 1304.87 615.968 1309.24 614.72C1313.81 613.472 1317.35 611.6 1319.84 609.104C1322.55 606.4 1323.9 602.448 1323.9 597.248C1323.9 592.672 1322.76 588.928 1320.47 586.016C1318.39 583.104 1315.68 580.92 1312.36 579.464C1309.24 577.8 1305.7 576.76 1301.75 576.344C1297.8 575.72 1294.05 575.408 1290.52 575.408C1280.53 575.408 1272.32 577.488 1265.87 581.648C1259.42 585.808 1255.78 592.256 1254.95 600.992H1219.38C1220 590.592 1222.5 581.96 1226.87 575.096C1231.24 568.232 1236.75 562.72 1243.4 558.56C1250.27 554.4 1257.96 551.488 1266.49 549.824C1275.02 548.16 1283.76 547.328 1292.7 547.328C1300.6 547.328 1308.4 548.16 1316.1 549.824C1323.8 551.488 1330.66 554.192 1336.69 557.936C1342.93 561.68 1347.92 566.568 1351.67 572.6C1355.41 578.424 1357.28 585.6 1357.28 594.128V677.12ZM1321.72 632.192C1316.31 635.728 1309.65 637.912 1301.75 638.744C1293.84 639.368 1285.94 640.408 1278.04 641.864C1274.29 642.488 1270.65 643.424 1267.12 644.672C1263.58 645.712 1260.46 647.272 1257.76 649.352C1255.05 651.224 1252.87 653.824 1251.2 657.152C1249.75 660.272 1249.02 664.12 1249.02 668.696C1249.02 672.648 1250.16 675.976 1252.45 678.68C1254.74 681.384 1257.44 683.568 1260.56 685.232C1263.89 686.688 1267.43 687.728 1271.17 688.352C1275.12 688.976 1278.66 689.288 1281.78 689.288C1285.73 689.288 1290 688.768 1294.57 687.728C1299.15 686.688 1303.41 684.92 1307.36 682.424C1311.52 679.928 1314.96 676.808 1317.66 673.064C1320.36 669.112 1321.72 664.328 1321.72 658.712V632.192ZM1395.56 551.696H1428.94V582.896H1429.56C1430.6 578.528 1432.58 574.264 1435.49 570.104C1438.61 565.944 1442.25 562.2 1446.41 558.872C1450.78 555.336 1455.56 552.528 1460.76 550.448C1465.96 548.368 1471.27 547.328 1476.68 547.328C1480.84 547.328 1483.64 547.432 1485.1 547.64C1486.76 547.848 1488.43 548.056 1490.09 548.264V582.584C1487.6 582.168 1485 581.856 1482.29 581.648C1479.8 581.232 1477.3 581.024 1474.8 581.024C1468.77 581.024 1463.05 582.272 1457.64 584.768C1452.44 587.056 1447.87 590.592 1443.92 595.376C1439.96 599.952 1436.84 605.672 1434.56 612.536C1432.27 619.4 1431.12 627.304 1431.12 636.248V713H1395.56V551.696ZM1610.52 618.152C1610.1 612.536 1608.86 607.128 1606.78 601.928C1604.9 596.728 1602.2 592.256 1598.66 588.512C1595.34 584.56 1591.18 581.44 1586.18 579.152C1581.4 576.656 1575.99 575.408 1569.96 575.408C1563.72 575.408 1558 576.552 1552.8 578.84C1547.81 580.92 1543.44 583.936 1539.7 587.888C1536.16 591.632 1533.25 596.104 1530.96 601.304C1528.88 606.504 1527.74 612.12 1527.53 618.152H1610.52ZM1527.53 641.552C1527.53 647.792 1528.36 653.824 1530.02 659.648C1531.9 665.472 1534.6 670.568 1538.14 674.936C1541.67 679.304 1546.14 682.84 1551.55 685.544C1556.96 688.04 1563.41 689.288 1570.9 689.288C1581.3 689.288 1589.62 687.104 1595.86 682.736C1602.3 678.16 1607.09 671.4 1610.21 662.456H1643.9C1642.03 671.192 1638.81 678.992 1634.23 685.856C1629.66 692.72 1624.14 698.544 1617.7 703.328C1611.25 707.904 1603.97 711.336 1595.86 713.624C1587.95 716.12 1579.63 717.368 1570.9 717.368C1558.21 717.368 1546.98 715.288 1537.2 711.128C1527.42 706.968 1519.1 701.144 1512.24 693.656C1505.58 686.168 1500.49 677.224 1496.95 666.824C1493.62 656.424 1491.96 644.984 1491.96 632.504C1491.96 621.064 1493.73 610.248 1497.26 600.056C1501.01 589.656 1506.21 580.608 1512.86 572.912C1519.73 565.008 1527.94 558.768 1537.51 554.192C1547.08 549.616 1557.9 547.328 1569.96 547.328C1582.65 547.328 1593.98 550.032 1603.97 555.44C1614.16 560.64 1622.58 567.608 1629.24 576.344C1635.9 585.08 1640.68 595.168 1643.59 606.608C1646.71 617.84 1647.54 629.488 1646.09 641.552H1527.53Z" fill="#FFFEFA"/>
</svg>
