<?xml version="1.0" standalone="no"?>
<!DOCTYPE svg PUBLIC "-//W3C//DTD SVG 20010904//EN"
 "http://www.w3.org/TR/2001/REC-SVG-20010904/DTD/svg10.dtd">
<svg version="1.0" xmlns="http://www.w3.org/2000/svg"
 width="185.000000pt" height="185.000000pt" viewBox="0 0 185.000000 185.000000"
 preserveAspectRatio="xMidYMid meet">
<metadata>
Created by potrace 1.14, written by Peter Selinger 2001-2017
</metadata>
<g transform="translate(0.000000,185.000000) scale(0.100000,-0.100000)"
fill="#000000" stroke="none">
<path d="M379 1533 c0 -10 0 -56 0 -102 2 -73 5 -87 22 -99 11 -8 75 -57 142
-110 67 -53 124 -97 125 -98 2 -1 5 -154 6 -340 l2 -337 151 -101 151 -101 91
1 c50 1 94 4 97 7 4 3 6 195 5 427 l-2 420 138 0 138 0 -2 87 c-1 49 -2 91 -2
95 -1 7 -90 95 -237 236 l-34 32 -395 0 c-369 0 -395 -1 -396 -17z"/>
</g>
</svg>
