<svg width="740" height="168" viewBox="0 0 740 168" fill="none" xmlns="http://www.w3.org/2000/svg">
<mask id="path-1-outside-1_485_3" maskUnits="userSpaceOnUse" x="-1" y="37" width="281" height="94" fill="black">
<rect fill="white" x="-1" y="37" width="281" height="94"/>
<path d="M48.128 128L79.744 64.896H59.136L40.576 107.264L22.144 64.896H1.152L33.024 128H48.128ZM108.264 55.296V38.784H85.736V55.296H108.264ZM106.088 128V64.896H87.912V128H106.088ZM161.637 63.744C151.013 63.744 142.309 67.584 137.957 73.472V38.784H120.037V128H137.957V119.808C143.589 125.824 151.781 129.152 160.869 129.152C182.885 129.152 197.733 116.352 197.733 96.128C197.733 76.544 182.885 63.744 161.637 63.744ZM158.949 115.456C146.661 115.456 137.957 107.904 137.957 96.256C137.957 84.736 146.661 77.184 158.949 77.184C171.109 77.184 179.813 84.864 179.813 96.256C179.813 107.648 171.109 115.456 158.949 115.456ZM278.288 95.872C278.288 77.184 265.616 63.744 242.576 63.744C221.072 63.744 205.84 77.312 205.84 96.768C205.84 116.352 221.328 129.152 245.136 129.152C255.888 129.152 265.104 127.104 275.088 122.496L268.432 109.44C261.904 112.64 253.072 114.304 245.136 114.304C233.104 114.304 226.064 109.568 224.912 101.888H277.904C278.16 99.456 278.288 97.408 278.288 95.872ZM224.784 89.984C226.064 82.688 233.616 78.08 243.088 78.08C253.968 78.08 259.856 83.456 259.856 89.856V89.984H224.784Z"/>
</mask>
<path d="M48.128 128L79.744 64.896H59.136L40.576 107.264L22.144 64.896H1.152L33.024 128H48.128ZM108.264 55.296V38.784H85.736V55.296H108.264ZM106.088 128V64.896H87.912V128H106.088ZM161.637 63.744C151.013 63.744 142.309 67.584 137.957 73.472V38.784H120.037V128H137.957V119.808C143.589 125.824 151.781 129.152 160.869 129.152C182.885 129.152 197.733 116.352 197.733 96.128C197.733 76.544 182.885 63.744 161.637 63.744ZM158.949 115.456C146.661 115.456 137.957 107.904 137.957 96.256C137.957 84.736 146.661 77.184 158.949 77.184C171.109 77.184 179.813 84.864 179.813 96.256C179.813 107.648 171.109 115.456 158.949 115.456ZM278.288 95.872C278.288 77.184 265.616 63.744 242.576 63.744C221.072 63.744 205.84 77.312 205.84 96.768C205.84 116.352 221.328 129.152 245.136 129.152C255.888 129.152 265.104 127.104 275.088 122.496L268.432 109.44C261.904 112.64 253.072 114.304 245.136 114.304C233.104 114.304 226.064 109.568 224.912 101.888H277.904C278.16 99.456 278.288 97.408 278.288 95.872ZM224.784 89.984C226.064 82.688 233.616 78.08 243.088 78.08C253.968 78.08 259.856 83.456 259.856 89.856V89.984H224.784Z" fill="url(#paint0_linear_485_3)"/>
<path d="M48.128 128V129H48.7455L49.0221 128.448L48.128 128ZM79.744 64.896L80.6381 65.3439L81.3635 63.896H79.744V64.896ZM59.136 64.896V63.896H58.4823L58.22 64.4947L59.136 64.896ZM40.576 107.264L39.659 107.663L40.5728 109.763L41.492 107.665L40.576 107.264ZM22.144 64.896L23.061 64.4971L22.7995 63.896H22.144V64.896ZM1.152 64.896V63.896H-0.473382L0.259391 65.3468L1.152 64.896ZM33.024 128L32.1314 128.451L32.4088 129H33.024V128ZM49.0221 128.448L80.6381 65.3439L78.8499 64.4481L47.2339 127.552L49.0221 128.448ZM79.744 63.896H59.136V65.896H79.744V63.896ZM58.22 64.4947L39.66 106.863L41.492 107.665L60.052 65.2972L58.22 64.4947ZM41.493 106.865L23.061 64.4971L21.227 65.2949L39.659 107.663L41.493 106.865ZM22.144 63.896H1.152V65.896H22.144V63.896ZM0.259391 65.3468L32.1314 128.451L33.9166 127.549L2.04461 64.4452L0.259391 65.3468ZM33.024 129H48.128V127H33.024V129ZM108.264 55.296V56.296H109.264V55.296H108.264ZM108.264 38.784H109.264V37.784H108.264V38.784ZM85.736 38.784V37.784H84.736V38.784H85.736ZM85.736 55.296H84.736V56.296H85.736V55.296ZM106.088 128V129H107.088V128H106.088ZM106.088 64.896H107.088V63.896H106.088V64.896ZM87.912 64.896V63.896H86.912V64.896H87.912ZM87.912 128H86.912V129H87.912V128ZM109.264 55.296V38.784H107.264V55.296H109.264ZM108.264 37.784H85.736V39.784H108.264V37.784ZM84.736 38.784V55.296H86.736V38.784H84.736ZM85.736 56.296H108.264V54.296H85.736V56.296ZM107.088 128V64.896H105.088V128H107.088ZM106.088 63.896H87.912V65.896H106.088V63.896ZM86.912 64.896V128H88.912V64.896H86.912ZM87.912 129H106.088V127H87.912V129ZM137.957 73.472H136.957V76.5073L138.761 74.0664L137.957 73.472ZM137.957 38.784H138.957V37.784H137.957V38.784ZM120.037 38.784V37.784H119.037V38.784H120.037ZM120.037 128H119.037V129H120.037V128ZM137.957 128V129H138.957V128H137.957ZM137.957 119.808L138.687 119.125L136.957 117.277V119.808H137.957ZM161.637 62.744C150.808 62.744 141.751 66.6559 137.153 72.8776L138.761 74.0664C142.867 68.5121 151.218 64.744 161.637 64.744V62.744ZM138.957 73.472V38.784H136.957V73.472H138.957ZM137.957 37.784H120.037V39.784H137.957V37.784ZM119.037 38.784V128H121.037V38.784H119.037ZM120.037 129H137.957V127H120.037V129ZM138.957 128V119.808H136.957V128H138.957ZM137.227 120.491C143.07 126.732 151.538 130.152 160.869 130.152V128.152C152.024 128.152 144.108 124.916 138.687 119.125L137.227 120.491ZM160.869 130.152C172.066 130.152 181.536 126.896 188.22 120.972C194.917 115.038 198.733 106.5 198.733 96.128H196.733C196.733 105.98 193.125 113.954 186.894 119.476C180.65 125.008 171.688 128.152 160.869 128.152V130.152ZM198.733 96.128C198.733 86.0669 194.911 77.6926 188.317 71.8439C181.733 66.0049 172.459 62.744 161.637 62.744V64.744C172.063 64.744 180.837 67.883 186.989 73.3401C193.131 78.7874 196.733 86.605 196.733 96.128H198.733ZM158.949 114.456C153.008 114.456 148.012 112.632 144.514 109.481C141.027 106.339 138.957 101.816 138.957 96.256H136.957C136.957 102.344 139.239 107.421 143.176 110.967C147.102 114.504 152.602 116.456 158.949 116.456V114.456ZM138.957 96.256C138.957 90.7634 141.024 86.272 144.513 83.1446C148.011 80.0082 153.007 78.184 158.949 78.184V76.184C152.603 76.184 147.103 78.1358 143.177 81.6554C139.242 85.184 136.957 90.2286 136.957 96.256H138.957ZM158.949 78.184C164.82 78.184 169.785 80.0361 173.27 83.1895C176.747 86.3354 178.813 90.8295 178.813 96.256H180.813C180.813 90.2905 178.527 85.2486 174.612 81.7065C170.705 78.1719 165.238 76.184 158.949 76.184V78.184ZM178.813 96.256C178.813 101.683 176.746 106.211 173.267 109.39C169.78 112.575 164.815 114.456 158.949 114.456V116.456C165.243 116.456 170.71 114.433 174.615 110.866C178.528 107.293 180.813 102.221 180.813 96.256H178.813ZM275.088 122.496L275.507 123.404L276.451 122.968L275.979 122.042L275.088 122.496ZM268.432 109.44L269.323 108.986L268.876 108.109L267.992 108.542L268.432 109.44ZM224.912 101.888V100.888H223.751L223.923 102.036L224.912 101.888ZM277.904 101.888V102.888H278.804L278.898 101.993L277.904 101.888ZM224.784 89.984L223.799 89.8112L223.593 90.984H224.784V89.984ZM259.856 89.984V90.984H260.856V89.984H259.856ZM279.288 95.872C279.288 86.2956 276.036 77.9847 269.758 72.072C263.484 66.1634 254.29 62.744 242.576 62.744V64.744C253.902 64.744 262.564 68.0446 268.386 73.528C274.204 79.0073 277.288 86.7604 277.288 95.872H279.288ZM242.576 62.744C231.615 62.744 222.182 66.2037 215.476 72.2154C208.763 78.2343 204.84 86.7637 204.84 96.768H206.84C206.84 87.3163 210.533 79.3337 216.812 73.7046C223.098 68.0683 232.033 64.744 242.576 64.744V62.744ZM204.84 96.768C204.84 106.846 208.836 115.23 215.924 121.075C222.993 126.906 233.061 130.152 245.136 130.152V128.152C233.403 128.152 223.823 124.998 217.196 119.533C210.588 114.082 206.84 106.274 206.84 96.768H204.84ZM245.136 130.152C256.036 130.152 265.395 128.071 275.507 123.404L274.669 121.588C264.813 126.137 255.74 128.152 245.136 128.152V130.152ZM275.979 122.042L269.323 108.986L267.541 109.894L274.197 122.95L275.979 122.042ZM267.992 108.542C261.633 111.659 252.959 113.304 245.136 113.304V115.304C253.185 115.304 262.175 113.621 268.872 110.338L267.992 108.542ZM245.136 113.304C239.238 113.304 234.674 112.141 231.477 110.13C228.307 108.136 226.432 105.283 225.901 101.74L223.923 102.036C224.544 106.173 226.765 109.528 230.411 111.822C234.03 114.099 239.002 115.304 245.136 115.304V113.304ZM224.912 102.888H277.904V100.888H224.912V102.888ZM278.898 101.993C279.156 99.542 279.288 97.4561 279.288 95.872H277.288C277.288 97.3599 277.164 99.37 276.91 101.783L278.898 101.993ZM225.769 90.1568C226.929 83.5445 233.858 79.08 243.088 79.08V77.08C233.374 77.08 225.199 81.8315 223.799 89.8112L225.769 90.1568ZM243.088 79.08C248.372 79.08 252.334 80.386 254.948 82.3653C257.547 84.3326 258.856 86.9891 258.856 89.856H260.856C260.856 86.3229 259.221 83.0914 256.156 80.7707C253.106 78.462 248.684 77.08 243.088 77.08V79.08ZM258.856 89.856V89.984H260.856V89.856H258.856ZM259.856 88.984H224.784V90.984H259.856V88.984Z" fill="black" mask="url(#path-1-outside-1_485_3)"/>
<mask id="path-3-outside-2_485_3" maskUnits="userSpaceOnUse" x="283.759" y="37" width="455" height="94" fill="black">
<rect fill="white" x="283.759" y="37" width="455" height="94"/>
<path d="M322.615 96.256V84.224H285.367V96.256H322.615ZM370.139 129.152C387.291 129.152 399.835 122.496 405.211 110.592L388.955 104.32C386.523 110.72 379.483 114.304 370.011 114.304C356.699 114.304 349.019 106.752 349.019 96.64C349.019 86.528 356.443 78.592 370.011 78.592C379.611 78.592 386.139 82.688 389.339 88.448L405.979 82.176C399.067 70.144 388.059 63.744 370.011 63.744C345.307 63.744 331.099 77.952 331.099 96.64C331.099 115.712 346.075 129.152 370.139 129.152ZM457.262 63.744C446.638 63.744 438.83 67.456 434.094 74.24V38.784H416.046V128H434.094V97.792C434.094 84.352 440.622 77.44 452.014 77.44C461.998 77.44 467.118 82.816 467.118 93.824V128H485.166V86.784C485.166 72.064 474.158 63.744 457.262 63.744ZM567.672 95.872C567.672 77.184 555 63.744 531.96 63.744C510.456 63.744 495.224 77.312 495.224 96.768C495.224 116.352 510.712 129.152 534.52 129.152C545.272 129.152 554.488 127.104 564.472 122.496L557.816 109.44C551.288 112.64 542.456 114.304 534.52 114.304C522.488 114.304 515.448 109.568 514.296 101.888H567.288C567.544 99.456 567.672 97.408 567.672 95.872ZM514.168 89.984C515.448 82.688 523 78.08 532.472 78.08C543.352 78.08 549.24 83.456 549.24 89.856V89.984H514.168ZM614.764 129.152C631.916 129.152 644.46 122.496 649.836 110.592L633.58 104.32C631.148 110.72 624.108 114.304 614.636 114.304C601.324 114.304 593.644 106.752 593.644 96.64C593.644 86.528 601.068 78.592 614.636 78.592C624.236 78.592 630.764 82.688 633.964 88.448L650.604 82.176C643.692 70.144 632.684 63.744 614.636 63.744C589.932 63.744 575.724 77.952 575.724 96.64C575.724 115.712 590.7 129.152 614.764 129.152ZM678.719 128V109.44L691.007 98.56L713.919 128H736.063L703.935 88.704L732.735 64.896H707.519L678.719 91.648V38.784H660.671V128H678.719Z"/>
</mask>
<path d="M322.615 96.256V84.224H285.367V96.256H322.615ZM370.139 129.152C387.291 129.152 399.835 122.496 405.211 110.592L388.955 104.32C386.523 110.72 379.483 114.304 370.011 114.304C356.699 114.304 349.019 106.752 349.019 96.64C349.019 86.528 356.443 78.592 370.011 78.592C379.611 78.592 386.139 82.688 389.339 88.448L405.979 82.176C399.067 70.144 388.059 63.744 370.011 63.744C345.307 63.744 331.099 77.952 331.099 96.64C331.099 115.712 346.075 129.152 370.139 129.152ZM457.262 63.744C446.638 63.744 438.83 67.456 434.094 74.24V38.784H416.046V128H434.094V97.792C434.094 84.352 440.622 77.44 452.014 77.44C461.998 77.44 467.118 82.816 467.118 93.824V128H485.166V86.784C485.166 72.064 474.158 63.744 457.262 63.744ZM567.672 95.872C567.672 77.184 555 63.744 531.96 63.744C510.456 63.744 495.224 77.312 495.224 96.768C495.224 116.352 510.712 129.152 534.52 129.152C545.272 129.152 554.488 127.104 564.472 122.496L557.816 109.44C551.288 112.64 542.456 114.304 534.52 114.304C522.488 114.304 515.448 109.568 514.296 101.888H567.288C567.544 99.456 567.672 97.408 567.672 95.872ZM514.168 89.984C515.448 82.688 523 78.08 532.472 78.08C543.352 78.08 549.24 83.456 549.24 89.856V89.984H514.168ZM614.764 129.152C631.916 129.152 644.46 122.496 649.836 110.592L633.58 104.32C631.148 110.72 624.108 114.304 614.636 114.304C601.324 114.304 593.644 106.752 593.644 96.64C593.644 86.528 601.068 78.592 614.636 78.592C624.236 78.592 630.764 82.688 633.964 88.448L650.604 82.176C643.692 70.144 632.684 63.744 614.636 63.744C589.932 63.744 575.724 77.952 575.724 96.64C575.724 115.712 590.7 129.152 614.764 129.152ZM678.719 128V109.44L691.007 98.56L713.919 128H736.063L703.935 88.704L732.735 64.896H707.519L678.719 91.648V38.784H660.671V128H678.719Z" fill="#181818"/>
<path d="M322.615 96.256V97.256H323.615V96.256H322.615ZM322.615 84.224H323.615V83.224H322.615V84.224ZM285.367 84.224V83.224H284.367V84.224H285.367ZM285.367 96.256H284.367V97.256H285.367V96.256ZM323.615 96.256V84.224H321.615V96.256H323.615ZM322.615 83.224H285.367V85.224H322.615V83.224ZM284.367 84.224V96.256H286.367V84.224H284.367ZM285.367 97.256H322.615V95.256H285.367V97.256ZM405.211 110.592L406.122 111.004L406.557 110.04L405.571 109.659L405.211 110.592ZM388.955 104.32L389.315 103.387L388.377 103.025L388.02 103.965L388.955 104.32ZM389.339 88.448L388.465 88.9336L388.884 89.6882L389.691 89.3837L389.339 88.448ZM405.979 82.176L406.331 83.1117L407.431 82.6971L406.846 81.6779L405.979 82.176ZM370.139 130.152C387.538 130.152 400.532 123.382 406.122 111.004L404.299 110.18C399.138 121.61 387.044 128.152 370.139 128.152V130.152ZM405.571 109.659L389.315 103.387L388.595 105.253L404.851 111.525L405.571 109.659ZM388.02 103.965C385.8 109.808 379.283 113.304 370.011 113.304V115.304C379.682 115.304 387.246 111.632 389.89 104.675L388.02 103.965ZM370.011 113.304C363.541 113.304 358.546 111.47 355.183 108.513C351.83 105.564 350.019 101.429 350.019 96.64H348.019C348.019 101.963 350.048 106.66 353.862 110.015C357.668 113.362 363.169 115.304 370.011 115.304V113.304ZM350.019 96.64C350.019 91.8378 351.776 87.6031 355.102 84.562C358.432 81.5164 363.421 79.592 370.011 79.592V77.592C363.032 77.592 357.525 79.6356 353.752 83.086C349.974 86.5409 348.019 91.3302 348.019 96.64H350.019ZM370.011 79.592C379.307 79.592 385.468 83.5396 388.465 88.9336L390.213 87.9624C386.81 81.8364 379.915 77.592 370.011 77.592V79.592ZM389.691 89.3837L406.331 83.1117L405.626 81.2403L388.986 87.5123L389.691 89.3837ZM406.846 81.6779C403.309 75.5215 398.7 70.7681 392.638 67.5639C386.586 64.3645 379.151 62.744 370.011 62.744V64.744C378.919 64.744 386.012 66.3235 391.703 69.3321C397.386 72.3359 401.736 76.7985 405.112 82.6741L406.846 81.6779ZM370.011 62.744C357.469 62.744 347.488 66.3524 340.627 72.4358C333.759 78.5263 330.099 87.0297 330.099 96.64H332.099C332.099 87.5623 335.543 79.6177 341.954 73.9322C348.374 68.2396 357.848 64.744 370.011 64.744V62.744ZM330.099 96.64C330.099 106.456 333.962 114.867 340.947 120.81C347.919 126.741 357.926 130.152 370.139 130.152V128.152C358.288 128.152 348.775 124.843 342.243 119.286C335.724 113.741 332.099 105.896 332.099 96.64H330.099ZM434.094 74.24H433.094V77.4194L434.914 74.8124L434.094 74.24ZM434.094 38.784H435.094V37.784H434.094V38.784ZM416.046 38.784V37.784H415.046V38.784H416.046ZM416.046 128H415.046V129H416.046V128ZM434.094 128V129H435.094V128H434.094ZM467.118 128H466.118V129H467.118V128ZM485.166 128V129H486.166V128H485.166ZM457.262 62.744C446.391 62.744 438.238 66.5563 433.274 73.6676L434.914 74.8124C439.421 68.3557 446.885 64.744 457.262 64.744V62.744ZM435.094 74.24V38.784H433.094V74.24H435.094ZM434.094 37.784H416.046V39.784H434.094V37.784ZM415.046 38.784V128H417.046V38.784H415.046ZM416.046 129H434.094V127H416.046V129ZM435.094 128V97.792H433.094V128H435.094ZM435.094 97.792C435.094 91.2199 436.69 86.4061 439.526 83.2436C442.346 80.0986 446.525 78.44 452.014 78.44V76.44C446.111 76.44 441.329 78.2374 438.037 81.9084C434.761 85.5619 433.094 90.9241 433.094 97.792H435.094ZM452.014 78.44C456.832 78.44 460.299 79.7337 462.577 82.1848C464.868 84.6496 466.118 88.4569 466.118 93.824H468.118C468.118 88.1831 466.807 83.7984 464.042 80.8232C461.264 77.8343 457.18 76.44 452.014 76.44V78.44ZM466.118 93.824V128H468.118V93.824H466.118ZM467.118 129H485.166V127H467.118V129ZM486.166 128V86.784H484.166V128H486.166ZM486.166 86.784C486.166 79.1508 483.299 73.0929 478.177 68.9654C473.083 64.8601 465.861 62.744 457.262 62.744V64.744C465.559 64.744 472.288 66.7879 476.922 70.5226C481.529 74.2351 484.166 79.6972 484.166 86.784H486.166ZM564.472 122.496L564.891 123.404L565.835 122.968L565.363 122.042L564.472 122.496ZM557.816 109.44L558.707 108.986L558.26 108.109L557.376 108.542L557.816 109.44ZM514.296 101.888V100.888H513.135L513.307 102.036L514.296 101.888ZM567.288 101.888V102.888H568.188L568.282 101.993L567.288 101.888ZM514.168 89.984L513.183 89.8112L512.977 90.984H514.168V89.984ZM549.24 89.984V90.984H550.24V89.984H549.24ZM568.672 95.872C568.672 86.2956 565.419 77.9847 559.141 72.072C552.868 66.1634 543.673 62.744 531.96 62.744V64.744C543.286 64.744 551.948 68.0446 557.77 73.528C563.588 79.0073 566.672 86.7604 566.672 95.872H568.672ZM531.96 62.744C520.999 62.744 511.566 66.2037 504.86 72.2154C498.147 78.2343 494.224 86.7637 494.224 96.768H496.224C496.224 87.3163 499.917 79.3337 506.195 73.7046C512.482 68.0683 521.417 64.744 531.96 64.744V62.744ZM494.224 96.768C494.224 106.846 498.22 115.23 505.308 121.075C512.377 126.906 522.445 130.152 534.52 130.152V128.152C522.787 128.152 513.207 124.998 506.58 119.533C499.972 114.082 496.224 106.274 496.224 96.768H494.224ZM534.52 130.152C545.42 130.152 554.779 128.071 564.891 123.404L564.053 121.588C554.197 126.137 545.124 128.152 534.52 128.152V130.152ZM565.363 122.042L558.707 108.986L556.925 109.894L563.581 122.95L565.363 122.042ZM557.376 108.542C551.016 111.659 542.343 113.304 534.52 113.304V115.304C542.569 115.304 551.559 113.621 558.256 110.338L557.376 108.542ZM534.52 113.304C528.621 113.304 524.058 112.141 520.86 110.13C517.691 108.136 515.816 105.283 515.285 101.74L513.307 102.036C513.927 106.173 516.148 109.528 519.795 111.822C523.414 114.099 528.386 115.304 534.52 115.304V113.304ZM514.296 102.888H567.288V100.888H514.296V102.888ZM568.282 101.993C568.54 99.542 568.672 97.4561 568.672 95.872H566.672C566.672 97.3599 566.547 99.37 566.293 101.783L568.282 101.993ZM515.153 90.1568C516.313 83.5445 523.242 79.08 532.472 79.08V77.08C522.758 77.08 514.583 81.8315 513.183 89.8112L515.153 90.1568ZM532.472 79.08C537.756 79.08 541.718 80.386 544.332 82.3653C546.931 84.3326 548.24 86.9891 548.24 89.856H550.24C550.24 86.3229 548.605 83.0914 545.539 80.7707C542.49 78.462 538.068 77.08 532.472 77.08V79.08ZM548.24 89.856V89.984H550.24V89.856H548.24ZM549.24 88.984H514.168V90.984H549.24V88.984ZM649.836 110.592L650.747 111.004L651.182 110.04L650.196 109.659L649.836 110.592ZM633.58 104.32L633.94 103.387L633.002 103.025L632.645 103.965L633.58 104.32ZM633.964 88.448L633.09 88.9336L633.509 89.6882L634.316 89.3837L633.964 88.448ZM650.604 82.176L650.956 83.1117L652.056 82.6971L651.471 81.6779L650.604 82.176ZM614.764 130.152C632.163 130.152 645.157 123.382 650.747 111.004L648.924 110.18C643.763 121.61 631.669 128.152 614.764 128.152V130.152ZM650.196 109.659L633.94 103.387L633.22 105.253L649.476 111.525L650.196 109.659ZM632.645 103.965C630.425 109.808 623.908 113.304 614.636 113.304V115.304C624.307 115.304 631.871 111.632 634.515 104.675L632.645 103.965ZM614.636 113.304C608.166 113.304 603.171 111.47 599.808 108.513C596.455 105.564 594.644 101.429 594.644 96.64H592.644C592.644 101.963 594.673 106.66 598.487 110.015C602.293 113.362 607.794 115.304 614.636 115.304V113.304ZM594.644 96.64C594.644 91.8378 596.401 87.6031 599.727 84.562C603.057 81.5164 608.046 79.592 614.636 79.592V77.592C607.657 77.592 602.15 79.6356 598.377 83.086C594.599 86.5409 592.644 91.3302 592.644 96.64H594.644ZM614.636 79.592C623.932 79.592 630.093 83.5396 633.09 88.9336L634.838 87.9624C631.435 81.8364 624.54 77.592 614.636 77.592V79.592ZM634.316 89.3837L650.956 83.1117L650.251 81.2403L633.611 87.5123L634.316 89.3837ZM651.471 81.6779C647.934 75.5215 643.325 70.7681 637.263 67.5639C631.211 64.3645 623.776 62.744 614.636 62.744V64.744C623.544 64.744 630.637 66.3235 636.328 69.3321C642.011 72.3359 646.361 76.7985 649.737 82.6741L651.471 81.6779ZM614.636 62.744C602.094 62.744 592.113 66.3524 585.252 72.4358C578.384 78.5263 574.724 87.0297 574.724 96.64H576.724C576.724 87.5623 580.168 79.6177 586.579 73.9322C592.999 68.2396 602.473 64.744 614.636 64.744V62.744ZM574.724 96.64C574.724 106.456 578.587 114.867 585.572 120.81C592.544 126.741 602.551 130.152 614.764 130.152V128.152C602.913 128.152 593.4 124.843 586.868 119.286C580.349 113.741 576.724 105.896 576.724 96.64H574.724ZM678.719 128V129H679.719V128H678.719ZM678.719 109.44L678.056 108.691L677.719 108.99V109.44H678.719ZM691.007 98.56L691.796 97.9458L691.142 97.105L690.344 97.8113L691.007 98.56ZM713.919 128L713.13 128.614L713.43 129H713.919V128ZM736.063 128V129H738.172L736.837 127.367L736.063 128ZM703.935 88.704L703.298 87.9333L702.531 88.567L703.161 89.337L703.935 88.704ZM732.735 64.896L733.372 65.6667L735.514 63.896H732.735V64.896ZM707.519 64.896V63.896H707.126L706.838 64.1633L707.519 64.896ZM678.719 91.648H677.719V93.9417L679.399 92.3807L678.719 91.648ZM678.719 38.784H679.719V37.784H678.719V38.784ZM660.671 38.784V37.784H659.671V38.784H660.671ZM660.671 128H659.671V129H660.671V128ZM679.719 128V109.44H677.719V128H679.719ZM679.382 110.189L691.67 99.3087L690.344 97.8113L678.056 108.691L679.382 110.189ZM690.218 99.1742L713.13 128.614L714.708 127.386L691.796 97.9458L690.218 99.1742ZM713.919 129H736.063V127H713.919V129ZM736.837 127.367L704.709 88.071L703.161 89.337L735.289 128.633L736.837 127.367ZM704.572 89.4747L733.372 65.6667L732.098 64.1253L703.298 87.9333L704.572 89.4747ZM732.735 63.896H707.519V65.896H732.735V63.896ZM706.838 64.1633L678.038 90.9153L679.399 92.3807L708.199 65.6287L706.838 64.1633ZM679.719 91.648V38.784H677.719V91.648H679.719ZM678.719 37.784H660.671V39.784H678.719V37.784ZM659.671 38.784V128H661.671V38.784H659.671ZM660.671 129H678.719V127H660.671V129Z" fill="black" mask="url(#path-3-outside-2_485_3)"/>
<defs>
<linearGradient id="paint0_linear_485_3" x1="2.21038e-06" y1="7.51722" x2="180.042" y2="92.9326" gradientUnits="userSpaceOnUse">
<stop stop-color="#37D07D"/>
<stop offset="0.0001" stop-color="#BB37D0"/>
<stop offset="0.571189" stop-color="#6B4BEE" stop-opacity="0.853648"/>
<stop offset="1" stop-color="#8C4EF2" stop-opacity="0.83"/>
</linearGradient>
</defs>
</svg>
