<svg width="1101" height="486" viewBox="0 0 1101 486" fill="none" xmlns="http://www.w3.org/2000/svg">
<rect x="270.5" y="37.5" width="830" height="436" rx="24.5" stroke="#7B7B7B" stroke-opacity="0.75" stroke-dasharray="10 10"/>
<rect x="305" y="203" width="468" height="236" rx="12" fill="#73C4E1"/>
<rect x="858" y="72" width="212" height="107" rx="12" fill="#BAA9F9"/>
<rect x="305" y="68" width="212" height="107" rx="12" fill="#E9AD90"/>
<path d="M513.994 231.256C513.578 233.752 512.09 235.256 509.946 235.256C507.13 235.256 505.53 232.968 505.53 229.336C505.53 225.672 507.13 223.384 509.946 223.384C511.946 223.384 513.418 224.76 513.898 227.112L512.426 227.208C512.058 225.576 511.13 224.728 509.946 224.728C508.042 224.728 506.986 226.392 506.986 229.336C506.986 232.264 508.042 233.912 509.946 233.912C511.258 233.912 512.218 232.984 512.538 231.176L513.994 231.256ZM519.316 235.192C516.964 235.192 515.444 233.448 515.444 230.76C515.444 228.072 516.964 226.328 519.316 226.328C521.668 226.328 523.188 228.072 523.188 230.76C523.188 233.448 521.668 235.192 519.316 235.192ZM516.852 230.76C516.852 232.728 517.748 233.912 519.316 233.912C520.884 233.912 521.78 232.728 521.78 230.76C521.78 228.792 520.884 227.608 519.316 227.608C517.748 227.608 516.852 228.792 516.852 230.76ZM525.645 226.52H526.861L526.909 227.976C527.341 226.84 528.333 226.328 529.501 226.328C531.437 226.328 532.365 227.752 532.365 229.544V235H531.021V229.928C531.021 228.36 530.509 227.512 529.229 227.512C527.869 227.512 526.989 228.36 526.989 229.928V235H525.645V226.52ZM537.143 224.28H538.487V226.52H541.879V227.704H538.487V232.664C538.487 233.384 538.871 233.816 539.591 233.816H541.863V235H539.591C537.863 235 537.143 234.072 537.143 232.664V227.704H534.711V226.52H537.143V224.28ZM547.953 226.52L548.065 228.12C548.369 227.032 549.057 226.52 550.177 226.52H551.873V227.704H550.177C548.881 227.704 548.273 228.488 548.273 229.944V233.816H551.041V235H544.721V233.816H546.929V227.704H544.721V226.52H547.953ZM557.691 235.192C555.339 235.192 553.819 233.448 553.819 230.76C553.819 228.072 555.339 226.328 557.691 226.328C560.043 226.328 561.563 228.072 561.563 230.76C561.563 233.448 560.043 235.192 557.691 235.192ZM555.227 230.76C555.227 232.728 556.123 233.912 557.691 233.912C559.259 233.912 560.155 232.728 560.155 230.76C560.155 228.792 559.259 227.608 557.691 227.608C556.123 227.608 555.227 228.792 555.227 230.76ZM563.812 233.816H567.092V225.816C567.092 225.128 566.804 224.824 566.148 224.824H564.132V223.64H566.148C567.62 223.64 568.436 224.408 568.436 225.816V233.816H571.412V235H563.812V233.816Z" fill="black"/>
<path d="M476.112 243.64C478.496 243.64 479.984 244.968 479.984 247.08C479.984 248.376 479.12 249.4 478.16 249.72C479.2 249.928 479.664 250.504 479.776 251.656L480.08 255H478.688L478.4 251.8C478.304 250.76 477.632 250.424 475.968 250.424H473.904V255H472.528V243.64H476.112ZM473.904 249.08H476.112C477.664 249.08 478.544 248.36 478.544 247.048C478.544 245.736 477.664 244.984 476.112 244.984H473.904V249.08ZM482.122 249.016C482.442 247.416 483.834 246.328 485.594 246.328C487.642 246.328 489.002 247.512 489.002 249.88V253.288C489.002 253.64 489.161 253.816 489.53 253.816H489.866V255H489.45C488.426 255 487.818 254.456 487.674 253.688C487.338 254.472 486.378 255.192 485.034 255.192C483.354 255.192 481.978 254.296 481.978 252.776C481.978 251.032 483.306 250.584 485.178 250.232L487.658 249.736C487.642 248.296 486.842 247.608 485.594 247.608C484.538 247.608 483.77 248.248 483.562 249.128L482.122 249.016ZM483.386 252.776C483.386 253.448 483.962 254.008 485.21 254.008C486.602 253.992 487.69 253.032 487.69 251.352V250.936L485.69 251.288C484.426 251.512 483.386 251.592 483.386 252.776ZM497.411 249.144C497.219 248.184 496.307 247.608 495.219 247.608C494.339 247.608 493.507 248.056 493.523 248.936C493.523 249.848 494.611 250.056 495.539 250.312C497.139 250.712 498.819 251.224 498.819 252.84C498.819 254.504 497.171 255.192 495.507 255.192C493.555 255.192 491.955 254.088 491.843 252.328L493.235 252.232C493.395 253.256 494.323 253.912 495.507 253.912C496.419 253.912 497.395 253.672 497.395 252.76C497.395 251.832 496.195 251.688 495.299 251.48C493.747 251.112 492.115 250.552 492.115 249C492.099 247.288 493.635 246.328 495.363 246.328C497.123 246.328 498.483 247.4 498.755 249.048L497.411 249.144ZM501.405 257.4V246.52H502.621L502.669 247.784C503.133 246.84 504.029 246.328 505.277 246.328C507.821 246.328 508.941 248.424 508.941 250.76C508.941 253.096 507.821 255.192 505.277 255.192C504.093 255.192 503.213 254.712 502.749 253.816V257.4H501.405ZM502.605 250.76C502.605 252.344 503.325 253.912 505.053 253.912C506.797 253.912 507.501 252.376 507.501 250.76C507.501 249.144 506.797 247.608 505.053 247.608C503.325 247.608 502.605 249.176 502.605 250.76ZM511.015 243.64H512.359V247.64C512.839 246.792 513.703 246.328 514.967 246.328C517.415 246.328 518.535 248.424 518.535 250.76C518.535 253.096 517.415 255.192 514.967 255.192C513.655 255.192 512.743 254.664 512.279 253.784L512.231 255H511.015V243.64ZM512.231 250.76C512.231 252.344 512.935 253.912 514.679 253.912C516.439 253.912 517.127 252.376 517.127 250.76C517.127 249.08 516.439 247.544 514.679 247.544C512.935 247.544 512.231 249.112 512.231 250.76ZM520.368 250.76C520.368 248.072 521.905 246.328 524.257 246.328C526.129 246.328 527.793 247.56 527.937 250.568L527.953 251.176H521.809C521.921 252.904 522.801 253.912 524.257 253.912C525.169 253.912 525.985 253.384 526.369 252.488L527.809 252.6C527.312 254.2 525.889 255.192 524.257 255.192C521.905 255.192 520.368 253.448 520.368 250.76ZM521.825 249.992H526.481C526.241 248.216 525.297 247.608 524.257 247.608C522.913 247.608 522.049 248.488 521.825 249.992ZM533.562 246.52L533.674 248.12C533.978 247.032 534.666 246.52 535.786 246.52H537.482V247.704H535.786C534.49 247.704 533.882 248.488 533.882 249.944V253.816H536.65V255H530.33V253.816H532.538V247.704H530.33V246.52H533.562ZM543.156 246.52L543.268 248.12C543.572 247.032 544.26 246.52 545.38 246.52H547.076V247.704H545.38C544.084 247.704 543.476 248.488 543.476 249.944V253.816H546.244V255H539.924V253.816H542.132V247.704H539.924V246.52H543.156ZM549.006 246.52H550.446L552.99 253.56L555.454 246.52H556.878L553.454 256.072C553.134 256.984 552.526 257.4 551.566 257.4H550.542V256.216H551.422C551.838 256.216 552.094 256.04 552.254 255.624L552.558 254.84H552.094L549.006 246.52ZM572.161 243.64C574.689 243.64 576.177 244.92 576.177 247.08C576.177 249.272 574.689 250.584 572.161 250.584H570.113V255H568.721V243.64H572.161ZM570.113 249.24H572.161C573.889 249.24 574.737 248.504 574.737 247.08C574.737 245.688 573.889 244.984 572.161 244.984H570.113V249.24ZM582.907 246.52V253.816H585.803V255H578.203V253.816H581.563V247.704H578.523V246.52H582.907ZM581.387 245.256V243.64H582.907V245.256H581.387ZM603.839 243.64V251.32H605.135V252.664H603.839V255H602.463V252.664H596.59V251.32L602.367 243.64H603.839ZM598.271 251.32H602.463V245.752L598.271 251.32Z" fill="black" fill-opacity="0.5"/>
<path d="M646.442 23.384C642.41 23.384 640.154 20.192 640.154 14.504C640.154 8.768 642.41 5.576 646.442 5.576C650.474 5.576 652.73 8.768 652.73 14.504C652.73 20.192 650.474 23.384 646.442 23.384ZM642.314 14.504C642.314 18.896 643.802 21.368 646.442 21.368C649.082 21.368 650.57 18.896 650.57 14.504C650.57 10.088 649.082 7.592 646.442 7.592C643.802 7.592 642.314 10.088 642.314 14.504ZM655.937 10.28H657.761L657.833 12.464C658.481 10.76 659.969 9.992 661.721 9.992C664.625 9.992 666.017 12.128 666.017 14.816V23H664.001V15.392C664.001 13.04 663.233 11.768 661.313 11.768C659.273 11.768 657.953 13.04 657.953 15.392V23H655.937V10.28ZM671.263 14.504H679.183V16.376H671.263V14.504ZM694.87 5.96V23H693.046L692.974 21.176C692.278 22.496 690.91 23.288 688.942 23.288C685.27 23.288 683.59 20.144 683.59 16.64C683.59 13.136 685.27 9.992 688.942 9.992C690.838 9.992 692.134 10.688 692.854 11.96V5.96H694.87ZM685.702 16.64C685.702 19.064 686.734 21.368 689.374 21.368C691.99 21.368 693.046 19.016 693.046 16.64C693.046 14.168 691.99 11.816 689.374 11.816C686.734 11.816 685.702 14.12 685.702 16.64ZM698.389 16.64C698.389 12.608 700.693 9.992 704.221 9.992C707.029 9.992 709.525 11.84 709.741 16.352L709.765 17.264H700.549C700.717 19.856 702.037 21.368 704.221 21.368C705.589 21.368 706.813 20.576 707.389 19.232L709.549 19.4C708.805 21.8 706.669 23.288 704.221 23.288C700.693 23.288 698.389 20.672 698.389 16.64ZM700.573 15.488H707.557C707.197 12.824 705.781 11.912 704.221 11.912C702.205 11.912 700.909 13.232 700.573 15.488ZM724.299 10.28L719.667 23H717.123L712.491 10.28H714.651L718.395 20.888L722.139 10.28H724.299ZM734.634 10.28V21.224H738.978V23H727.578V21.224H732.618V12.056H728.058V10.28H734.634ZM732.354 8.384V5.96H734.634V8.384H732.354ZM750.681 14.552C750.393 12.896 749.025 11.912 747.489 11.912C745.137 11.912 743.793 13.688 743.793 16.64C743.793 19.592 745.137 21.368 747.489 21.368C749.097 21.368 750.465 20.312 750.777 18.488L752.913 18.632C752.481 21.512 750.177 23.288 747.489 23.288C743.961 23.288 741.681 20.672 741.681 16.64C741.681 12.608 743.961 9.992 747.489 9.992C750.081 9.992 752.433 11.672 752.793 14.408L750.681 14.552ZM755.951 16.64C755.951 12.608 758.255 9.992 761.783 9.992C764.591 9.992 767.087 11.84 767.303 16.352L767.327 17.264H758.111C758.279 19.856 759.599 21.368 761.783 21.368C763.151 21.368 764.375 20.576 764.951 19.232L767.111 19.4C766.367 21.8 764.231 23.288 761.783 23.288C758.255 23.288 755.951 20.672 755.951 16.64ZM758.135 15.488H765.119C764.759 12.824 763.343 11.912 761.783 11.912C759.767 11.912 758.471 13.232 758.135 15.488Z" fill="#616161"/>
<path d="M566 297C566 290.373 571.373 285 578 285H702.879C707.849 285 711.879 289.029 711.879 294V294C711.879 298.971 715.908 303 720.879 303H743C749.627 303 755 308.373 755 315V408C755 414.627 749.627 420 743 420H578C571.373 420 566 414.627 566 408V297Z" fill="#B5E7F9"/>
<path d="M324 297C324 290.373 329.373 285 336 285H460.879C465.849 285 469.879 289.029 469.879 294V294C469.879 298.971 473.908 303 478.879 303H501C507.627 303 513 308.373 513 315V408C513 414.627 507.627 420 501 420H336C329.373 420 324 414.627 324 408V297Z" fill="#B5E7F9"/>
<path d="M586.553 310.22H588.227L591.521 321.326L594.815 310.22H596.489L592.547 323H590.495L586.553 310.22ZM603.7 313.46V321.668H606.958V323H598.408V321.668H602.188V314.792H598.768V313.46H603.7ZM601.99 312.038V310.22H603.7V312.038H601.99ZM615.447 316.412C615.231 315.332 614.205 314.684 612.981 314.684C611.991 314.684 611.055 315.188 611.073 316.178C611.073 317.204 612.297 317.438 613.341 317.726C615.141 318.176 617.031 318.752 617.031 320.57C617.031 322.442 615.177 323.216 613.305 323.216C611.109 323.216 609.309 321.974 609.183 319.994L610.749 319.886C610.929 321.038 611.973 321.776 613.305 321.776C614.331 321.776 615.429 321.506 615.429 320.48C615.429 319.436 614.079 319.274 613.071 319.04C611.325 318.626 609.489 317.996 609.489 316.25C609.471 314.324 611.199 313.244 613.143 313.244C615.123 313.244 616.653 314.45 616.959 316.304L615.447 316.412ZM625.286 313.46V321.668H628.544V323H619.994V321.668H623.774V314.792H620.354V313.46H625.286ZM623.576 312.038V310.22H625.286V312.038H623.576ZM634.693 323.216C632.047 323.216 630.337 321.254 630.337 318.23C630.337 315.206 632.047 313.244 634.693 313.244C637.339 313.244 639.049 315.206 639.049 318.23C639.049 321.254 637.339 323.216 634.693 323.216ZM631.921 318.23C631.921 320.444 632.929 321.776 634.693 321.776C636.457 321.776 637.465 320.444 637.465 318.23C637.465 316.016 636.457 314.684 634.693 314.684C632.929 314.684 631.921 316.016 631.921 318.23ZM641.814 313.46H643.182L643.236 315.098C643.722 313.82 644.838 313.244 646.152 313.244C648.33 313.244 649.374 314.846 649.374 316.862V323H647.862V317.294C647.862 315.53 647.286 314.576 645.846 314.576C644.316 314.576 643.326 315.53 643.326 317.294V323H641.814V313.46Z" fill="black"/>
<path d="M590.88 354.64C593.408 354.64 594.896 355.92 594.896 358.08C594.896 360.272 593.408 361.584 590.88 361.584H588.832V366H587.44V354.64H590.88ZM588.832 360.24H590.88C592.608 360.24 593.456 359.504 593.456 358.08C593.456 356.688 592.608 355.984 590.88 355.984H588.832V360.24ZM596.506 357.52H597.946L600.49 364.56L602.954 357.52H604.378L600.954 367.072C600.634 367.984 600.026 368.4 599.066 368.4H598.042V367.216H598.922C599.338 367.216 599.594 367.04 599.754 366.624L600.058 365.84H599.594L596.506 357.52ZM608.628 355.28H609.972V357.52H613.364V358.704H609.972V363.664C609.972 364.384 610.356 364.816 611.076 364.816H613.348V366H611.076C609.348 366 608.628 365.072 608.628 363.664V358.704H606.196V357.52H608.628V355.28ZM616.397 354.64H617.741V358.656C618.237 357.744 619.229 357.328 620.269 357.328C622.189 357.328 623.117 358.752 623.117 360.544V366H621.773V361.024C621.773 359.456 621.261 358.608 619.981 358.608C618.621 358.608 617.741 359.456 617.741 361.024V366H616.397V354.64ZM629.175 366.192C626.823 366.192 625.303 364.448 625.303 361.76C625.303 359.072 626.823 357.328 629.175 357.328C631.527 357.328 633.047 359.072 633.047 361.76C633.047 364.448 631.527 366.192 629.175 366.192ZM626.711 361.76C626.711 363.728 627.607 364.912 629.175 364.912C630.743 364.912 631.639 363.728 631.639 361.76C631.639 359.792 630.743 358.608 629.175 358.608C627.607 358.608 626.711 359.792 626.711 361.76ZM635.505 357.52H636.721L636.769 358.976C637.201 357.84 638.193 357.328 639.361 357.328C641.297 357.328 642.225 358.752 642.225 360.544V366H640.881V360.928C640.881 359.36 640.369 358.512 639.089 358.512C637.729 358.512 636.849 359.36 636.849 360.928V366H635.505V357.52ZM590.8 386.256C588.112 386.256 586.608 384.128 586.608 380.336C586.608 376.512 588.112 374.384 590.8 374.384C593.488 374.384 594.992 376.512 594.992 380.336C594.992 384.128 593.488 386.256 590.8 386.256ZM588.048 380.336C588.048 383.264 589.04 384.912 590.8 384.912C592.56 384.912 593.552 383.264 593.552 380.336C593.552 377.392 592.56 375.728 590.8 375.728C589.04 375.728 588.048 377.392 588.048 380.336ZM596.874 388.4V377.52H598.09L598.138 378.784C598.602 377.84 599.498 377.328 600.746 377.328C603.29 377.328 604.41 379.424 604.41 381.76C604.41 384.096 603.29 386.192 600.746 386.192C599.562 386.192 598.682 385.712 598.218 384.816V388.4H596.874ZM598.074 381.76C598.074 383.344 598.794 384.912 600.522 384.912C602.266 384.912 602.97 383.376 602.97 381.76C602.97 380.144 602.266 378.608 600.522 378.608C598.794 378.608 598.074 380.176 598.074 381.76ZM606.243 381.76C606.243 379.072 607.78 377.328 610.132 377.328C612.004 377.328 613.668 378.56 613.812 381.568L613.828 382.176H607.684C607.796 383.904 608.676 384.912 610.132 384.912C611.044 384.912 611.86 384.384 612.244 383.488L613.684 383.6C613.188 385.2 611.764 386.192 610.132 386.192C607.78 386.192 606.243 384.448 606.243 381.76ZM607.7 380.992H612.356C612.116 379.216 611.172 378.608 610.132 378.608C608.788 378.608 607.924 379.488 607.7 380.992ZM616.317 377.52H617.533L617.581 378.976C618.013 377.84 619.005 377.328 620.173 377.328C622.109 377.328 623.037 378.752 623.037 380.544V386H621.693V380.928C621.693 379.36 621.181 378.512 619.901 378.512C618.541 378.512 617.661 379.36 617.661 380.928V386H616.317V377.52ZM633.447 382.256C633.031 384.752 631.543 386.256 629.399 386.256C626.583 386.256 624.983 383.968 624.983 380.336C624.983 376.672 626.583 374.384 629.399 374.384C631.399 374.384 632.871 375.76 633.351 378.112L631.879 378.208C631.511 376.576 630.583 375.728 629.399 375.728C627.495 375.728 626.439 377.392 626.439 380.336C626.439 383.264 627.495 384.912 629.399 384.912C630.711 384.912 631.671 383.984 631.991 382.176L633.447 382.256ZM634.353 374.64H635.841L638.769 384.512L641.697 374.64H643.185L639.681 386H637.857L634.353 374.64ZM594.944 394.64V395.984H591.488V406H590.112V395.984H586.656V394.64H594.944ZM596.65 401.76C596.65 399.072 598.186 397.328 600.538 397.328C602.41 397.328 604.074 398.56 604.218 401.568L604.234 402.176H598.09C598.202 403.904 599.082 404.912 600.538 404.912C601.45 404.912 602.266 404.384 602.65 403.488L604.09 403.6C603.594 405.2 602.17 406.192 600.538 406.192C598.186 406.192 596.65 404.448 596.65 401.76ZM598.106 400.992H602.762C602.522 399.216 601.578 398.608 600.538 398.608C599.194 398.608 598.33 399.488 598.106 400.992ZM612.068 400.144C611.876 399.184 610.964 398.608 609.876 398.608C608.996 398.608 608.164 399.056 608.18 399.936C608.18 400.848 609.268 401.056 610.196 401.312C611.796 401.712 613.476 402.224 613.476 403.84C613.476 405.504 611.828 406.192 610.164 406.192C608.212 406.192 606.612 405.088 606.5 403.328L607.892 403.232C608.052 404.256 608.98 404.912 610.164 404.912C611.076 404.912 612.052 404.672 612.052 403.76C612.052 402.832 610.852 402.688 609.956 402.48C608.404 402.112 606.772 401.552 606.772 400C606.756 398.288 608.292 397.328 610.02 397.328C611.78 397.328 613.14 398.4 613.411 400.048L612.068 400.144ZM619.581 406.192C617.229 406.192 615.709 404.448 615.709 401.76C615.709 399.072 617.229 397.328 619.581 397.328C621.933 397.328 623.453 399.072 623.453 401.76C623.453 404.448 621.933 406.192 619.581 406.192ZM617.117 401.76C617.117 403.728 618.013 404.912 619.581 404.912C621.149 404.912 622.045 403.728 622.045 401.76C622.045 399.792 621.149 398.608 619.581 398.608C618.013 398.608 617.117 399.792 617.117 401.76ZM629.031 397.52L629.143 399.12C629.447 398.032 630.135 397.52 631.255 397.52H632.951V398.704H631.255C629.959 398.704 629.351 399.488 629.351 400.944V404.816H632.119V406H625.799V404.816H628.007V398.704H625.799V397.52H629.031ZM637.361 396.976C637.361 395.552 638.081 394.64 639.649 394.64H642.081V395.824H639.649C639.089 395.824 638.705 396.256 638.705 396.976V398H641.969V399.184H638.705V406H637.361V399.184H635.089V398H637.361V396.976ZM644.891 404.816H648.171V396.816C648.171 396.128 647.883 395.824 647.227 395.824H645.211V394.64H647.227C648.699 394.64 649.515 395.408 649.515 396.816V404.816H652.491V406H644.891V404.816ZM657.956 406.192C655.604 406.192 654.084 404.448 654.084 401.76C654.084 399.072 655.604 397.328 657.956 397.328C660.308 397.328 661.828 399.072 661.828 401.76C661.828 404.448 660.308 406.192 657.956 406.192ZM655.492 401.76C655.492 403.728 656.388 404.912 657.956 404.912C659.524 404.912 660.42 403.728 660.42 401.76C660.42 399.792 659.524 398.608 657.956 398.608C656.388 398.608 655.492 399.792 655.492 401.76ZM668.27 398.64L669.502 404.192L670.654 397.52H672.062L670.334 406H668.702L667.55 400.816L666.398 406H664.766L663.038 397.52H664.446L665.598 404.192L666.83 398.64H668.27ZM683.378 406V394.64H684.754V404.656H690.753V406H683.378ZM697.563 397.52V404.816H700.459V406H692.859V404.816H696.219V398.704H693.179V397.52H697.563ZM696.043 396.256V394.64H697.563V396.256H696.043ZM704.565 395.28H705.909V397.52H709.301V398.704H705.909V403.664C705.909 404.384 706.293 404.816 707.013 404.816H709.285V406H707.013C705.285 406 704.565 405.072 704.565 403.664V398.704H702.133V397.52H704.565V395.28ZM711.775 401.76C711.775 399.072 713.311 397.328 715.663 397.328C717.535 397.328 719.199 398.56 719.343 401.568L719.359 402.176H713.215C713.327 403.904 714.207 404.912 715.663 404.912C716.575 404.912 717.391 404.384 717.775 403.488L719.215 403.6C718.719 405.2 717.295 406.192 715.663 406.192C713.311 406.192 711.775 404.448 711.775 401.76ZM713.231 400.992H717.887C717.647 399.216 716.703 398.608 715.663 398.608C714.319 398.608 713.455 399.488 713.231 400.992Z" fill="black" fill-opacity="0.5"/>
<path d="M344.448 318.806C344.79 320.534 345.996 321.704 347.85 321.704C349.29 321.704 350.388 321.056 350.388 319.778C350.388 318.482 349.272 317.708 346.896 317.042C344.25 316.304 343.098 315.206 343.098 313.442C343.098 311.282 344.826 309.932 347.094 309.932C349.668 309.932 351.486 311.642 351.738 314L350.118 314.108C349.902 312.506 348.66 311.444 347.076 311.444C345.798 311.444 344.718 312.218 344.718 313.442C344.718 314.99 346.41 315.422 348.012 315.872C350.154 316.52 352.008 317.672 352.008 319.616C352.008 321.992 349.848 323.216 347.724 323.216C345.096 323.216 343.044 321.506 342.828 318.914L344.448 318.806ZM353.981 318.23C353.981 315.206 355.709 313.244 358.355 313.244C360.461 313.244 362.333 314.63 362.495 318.014L362.513 318.698H355.601C355.727 320.642 356.717 321.776 358.355 321.776C359.381 321.776 360.299 321.182 360.731 320.174L362.351 320.3C361.793 322.1 360.191 323.216 358.355 323.216C355.709 323.216 353.981 321.254 353.981 318.23ZM355.619 317.366H360.857C360.587 315.368 359.525 314.684 358.355 314.684C356.843 314.684 355.871 315.674 355.619 317.366ZM368.824 313.46L368.95 315.26C369.292 314.036 370.066 313.46 371.326 313.46H373.234V314.792H371.326C369.868 314.792 369.184 315.674 369.184 317.312V321.668H372.298V323H365.188V321.668H367.672V314.792H365.188V313.46H368.824ZM384.207 313.46L380.733 323H378.825L375.351 313.46H376.971L379.779 321.416L382.587 313.46H384.207ZM386.36 318.23C386.36 315.206 388.088 313.244 390.734 313.244C392.84 313.244 394.712 314.63 394.874 318.014L394.892 318.698H387.98C388.106 320.642 389.096 321.776 390.734 321.776C391.76 321.776 392.678 321.182 393.11 320.174L394.73 320.3C394.172 322.1 392.57 323.216 390.734 323.216C388.088 323.216 386.36 321.254 386.36 318.23ZM387.998 317.366H393.236C392.966 315.368 391.904 314.684 390.734 314.684C389.222 314.684 388.25 315.674 387.998 317.366ZM401.203 313.46L401.329 315.26C401.671 314.036 402.445 313.46 403.705 313.46H405.613V314.792H403.705C402.247 314.792 401.563 315.674 401.563 317.312V321.668H404.677V323H397.567V321.668H400.051V314.792H397.567V313.46H401.203Z" fill="black"/>
<path d="M346.88 373.64C349.408 373.64 350.896 374.92 350.896 377.08C350.896 379.272 349.408 380.584 346.88 380.584H344.832V385H343.44V373.64H346.88ZM344.832 379.24H346.88C348.608 379.24 349.456 378.504 349.456 377.08C349.456 375.688 348.608 374.984 346.88 374.984H344.832V379.24ZM352.506 376.52H353.946L356.49 383.56L358.954 376.52H360.378L356.954 386.072C356.634 386.984 356.026 387.4 355.066 387.4H354.042V386.216H354.922C355.338 386.216 355.594 386.04 355.754 385.624L356.058 384.84H355.594L352.506 376.52ZM364.628 374.28H365.972V376.52H369.364V377.704H365.972V382.664C365.972 383.384 366.356 383.816 367.076 383.816H369.348V385H367.076C365.348 385 364.628 384.072 364.628 382.664V377.704H362.196V376.52H364.628V374.28ZM372.397 373.64H373.741V377.656C374.237 376.744 375.229 376.328 376.269 376.328C378.189 376.328 379.117 377.752 379.117 379.544V385H377.773V380.024C377.773 378.456 377.261 377.608 375.981 377.608C374.621 377.608 373.741 378.456 373.741 380.024V385H372.397V373.64ZM385.175 385.192C382.823 385.192 381.303 383.448 381.303 380.76C381.303 378.072 382.823 376.328 385.175 376.328C387.527 376.328 389.047 378.072 389.047 380.76C389.047 383.448 387.527 385.192 385.175 385.192ZM382.711 380.76C382.711 382.728 383.607 383.912 385.175 383.912C386.743 383.912 387.639 382.728 387.639 380.76C387.639 378.792 386.743 377.608 385.175 377.608C383.607 377.608 382.711 378.792 382.711 380.76ZM391.505 376.52H392.721L392.769 377.976C393.201 376.84 394.193 376.328 395.361 376.328C397.297 376.328 398.225 377.752 398.225 379.544V385H396.881V379.928C396.881 378.36 396.369 377.512 395.089 377.512C393.729 377.512 392.849 378.36 392.849 379.928V385H391.505V376.52ZM343.504 393.64H350.48V394.984H344.88V398.792H350.192V400.104H344.88V405H343.504V393.64ZM352.922 403.816H356.202V395.816C356.202 395.128 355.914 394.824 355.258 394.824H353.242V393.64H355.258C356.73 393.64 357.546 394.408 357.546 395.816V403.816H360.522V405H352.922V403.816ZM362.372 399.016C362.692 397.416 364.084 396.328 365.844 396.328C367.892 396.328 369.252 397.512 369.252 399.88V403.288C369.252 403.64 369.411 403.816 369.78 403.816H370.116V405H369.7C368.676 405 368.068 404.456 367.924 403.688C367.588 404.472 366.628 405.192 365.284 405.192C363.604 405.192 362.228 404.296 362.228 402.776C362.228 401.032 363.556 400.584 365.428 400.232L367.908 399.736C367.892 398.296 367.092 397.608 365.844 397.608C364.788 397.608 364.02 398.248 363.812 399.128L362.372 399.016ZM363.636 402.776C363.636 403.448 364.212 404.008 365.46 404.008C366.852 403.992 367.94 403.032 367.94 401.352V400.936L365.94 401.288C364.676 401.512 363.636 401.592 363.636 402.776ZM377.661 399.144C377.469 398.184 376.557 397.608 375.469 397.608C374.589 397.608 373.757 398.056 373.773 398.936C373.773 399.848 374.861 400.056 375.789 400.312C377.389 400.712 379.069 401.224 379.069 402.84C379.069 404.504 377.421 405.192 375.757 405.192C373.805 405.192 372.205 404.088 372.093 402.328L373.485 402.232C373.645 403.256 374.573 403.912 375.757 403.912C376.669 403.912 377.645 403.672 377.645 402.76C377.645 401.832 376.445 401.688 375.549 401.48C373.997 401.112 372.365 400.552 372.365 399C372.349 397.288 373.885 396.328 375.613 396.328C377.373 396.328 378.733 397.4 379.005 399.048L377.661 399.144ZM381.831 393.64H383.175V401.08L387.239 396.52H389.079L385.751 400.12L389.239 405H387.575L384.855 401.08L383.175 403.032V405H381.831V393.64ZM403.995 393.384C405.547 393.528 406.811 394.984 406.267 396.616C405.995 397.464 405.275 398.312 404.171 399L406.795 402.344C407.179 401.816 407.323 400.792 407.259 399.912L408.667 400.04C408.667 401.32 408.251 402.6 407.642 403.352L409.003 405H407.371L406.795 404.28C406.155 404.872 405.163 405.192 404.059 405.192C401.674 405.192 400.043 404.072 400.043 401.992C400.043 400.296 400.923 399.72 402.267 398.712C401.531 397.736 401.195 396.824 401.195 396.008C401.195 394.344 402.571 393.256 403.995 393.384ZM401.435 401.992C401.435 403.192 402.459 403.944 404.059 403.944C404.843 403.944 405.531 403.688 405.867 403.272L403.099 399.768C402.379 400.248 401.435 400.936 401.435 401.992ZM402.571 396.056C402.571 396.568 402.811 397.192 403.371 397.976C404.411 397.496 405.051 396.76 405.051 396.056C405.051 395.32 404.619 394.776 403.915 394.728C403.147 394.68 402.555 395.304 402.571 396.056ZM420.926 401.272C421.23 402.808 422.302 403.848 423.95 403.848C425.23 403.848 426.206 403.272 426.206 402.136C426.206 400.984 425.214 400.296 423.102 399.704C420.75 399.048 419.726 398.072 419.726 396.504C419.726 394.584 421.262 393.384 423.278 393.384C425.566 393.384 427.182 394.904 427.406 397L425.966 397.096C425.774 395.672 424.67 394.728 423.262 394.728C422.126 394.728 421.166 395.416 421.166 396.504C421.166 397.88 422.67 398.264 424.094 398.664C425.998 399.24 427.646 400.264 427.646 401.992C427.646 404.104 425.726 405.192 423.838 405.192C421.502 405.192 419.678 403.672 419.486 401.368L420.926 401.272ZM433.144 405.192C430.792 405.192 429.272 403.448 429.272 400.76C429.272 398.072 430.792 396.328 433.144 396.328C435.496 396.328 437.016 398.072 437.016 400.76C437.016 403.448 435.496 405.192 433.144 405.192ZM430.68 400.76C430.68 402.728 431.576 403.912 433.144 403.912C434.712 403.912 435.608 402.728 435.608 400.76C435.608 398.792 434.712 397.608 433.144 397.608C431.576 397.608 430.68 398.792 430.68 400.76ZM445.074 399.368C444.882 398.264 443.97 397.608 442.946 397.608C441.378 397.608 440.482 398.792 440.482 400.76C440.482 402.728 441.378 403.912 442.946 403.912C444.018 403.912 444.93 403.208 445.138 401.992L446.562 402.088C446.274 404.008 444.738 405.192 442.946 405.192C440.594 405.192 439.074 403.448 439.074 400.76C439.074 398.072 440.594 396.328 442.946 396.328C444.674 396.328 446.242 397.448 446.482 399.272L445.074 399.368ZM448.987 393.64H450.331V401.08L454.395 396.52H456.235L452.907 400.12L456.395 405H454.731L452.011 401.08L450.331 403.032V405H448.987V393.64ZM458.181 400.76C458.181 398.072 459.717 396.328 462.069 396.328C463.941 396.328 465.605 397.56 465.749 400.568L465.765 401.176H459.621C459.733 402.904 460.613 403.912 462.069 403.912C462.981 403.912 463.797 403.384 464.181 402.488L465.621 402.6C465.125 404.2 463.701 405.192 462.069 405.192C459.717 405.192 458.181 403.448 458.181 400.76ZM459.637 399.992H464.293C464.053 398.216 463.109 397.608 462.069 397.608C460.725 397.608 459.861 398.488 459.637 399.992ZM470.159 394.28H471.503V396.52H474.895V397.704H471.503V402.664C471.503 403.384 471.887 403.816 472.607 403.816H474.879V405H472.607C470.879 405 470.159 404.072 470.159 402.664V397.704H467.727V396.52H470.159V394.28ZM484.377 393.64V394.984H481.801V403.656H484.473V405H477.753V403.656H480.424V394.984H477.849V393.64H484.377ZM490.706 405.256C488.018 405.256 486.514 403.128 486.514 399.336C486.514 395.512 488.018 393.384 490.706 393.384C493.394 393.384 494.898 395.512 494.898 399.336C494.898 403.128 493.394 405.256 490.706 405.256ZM487.954 399.336C487.954 402.264 488.946 403.912 490.706 403.912C492.466 403.912 493.458 402.264 493.458 399.336C493.458 396.392 492.466 394.728 490.706 394.728C488.946 394.728 487.954 396.392 487.954 399.336Z" fill="black" fill-opacity="0.5"/>
<path d="M928.92 118.032C928.92 120.624 927.528 122.256 925.128 122.256C922.728 122.256 921.336 120.624 921.336 118.032V110.624H922.712V118.032C922.712 119.872 923.512 120.912 925.128 120.912C926.744 120.912 927.544 119.872 927.544 118.032V110.624H928.92V118.032ZM931.202 124.4V113.52H932.418L932.466 114.784C932.93 113.84 933.826 113.328 935.074 113.328C937.618 113.328 938.738 115.424 938.738 117.76C938.738 120.096 937.618 122.192 935.074 122.192C933.89 122.192 933.01 121.712 932.546 120.816V124.4H931.202ZM932.402 117.76C932.402 119.344 933.122 120.912 934.85 120.912C936.594 120.912 937.298 119.376 937.298 117.76C937.298 116.144 936.594 114.608 934.85 114.608C933.122 114.608 932.402 116.176 932.402 117.76ZM953.541 110.384C955.093 110.528 956.357 111.984 955.813 113.616C955.541 114.464 954.821 115.312 953.717 116L956.341 119.344C956.725 118.816 956.869 117.792 956.805 116.912L958.213 117.04C958.213 118.32 957.797 119.6 957.189 120.352L958.549 122H956.917L956.341 121.28C955.701 121.872 954.709 122.192 953.605 122.192C951.221 122.192 949.589 121.072 949.589 118.992C949.589 117.296 950.469 116.72 951.813 115.712C951.077 114.736 950.741 113.824 950.741 113.008C950.741 111.344 952.117 110.256 953.541 110.384ZM950.981 118.992C950.981 120.192 952.005 120.944 953.605 120.944C954.389 120.944 955.077 120.688 955.413 120.272L952.645 116.768C951.925 117.248 950.981 117.936 950.981 118.992ZM952.117 113.056C952.117 113.568 952.357 114.192 952.917 114.976C953.957 114.496 954.597 113.76 954.597 113.056C954.597 112.32 954.165 111.776 953.461 111.728C952.693 111.68 952.101 112.304 952.117 113.056ZM972.281 110.64C975.465 110.64 977.417 112.688 977.417 116.336C977.417 119.968 975.513 122 972.377 122H969.513V110.64H972.281ZM970.889 120.656H972.281C974.649 120.656 975.977 119.216 975.977 116.336C975.977 113.424 974.649 111.984 972.281 111.984H970.889V120.656ZM982.691 122.192C980.339 122.192 978.819 120.448 978.819 117.76C978.819 115.072 980.339 113.328 982.691 113.328C985.043 113.328 986.563 115.072 986.563 117.76C986.563 120.448 985.043 122.192 982.691 122.192ZM980.227 117.76C980.227 119.728 981.123 120.912 982.691 120.912C984.259 120.912 985.155 119.728 985.155 117.76C985.155 115.792 984.259 114.608 982.691 114.608C981.123 114.608 980.227 115.792 980.227 117.76ZM993.004 114.64L994.236 120.192L995.388 113.52H996.796L995.068 122H993.436L992.284 116.816L991.132 122H989.5L987.772 113.52H989.18L990.332 120.192L991.564 114.64H993.004ZM998.614 113.52H999.83L999.878 114.976C1000.31 113.84 1001.3 113.328 1002.47 113.328C1004.41 113.328 1005.33 114.752 1005.33 116.544V122H1003.99V116.928C1003.99 115.36 1003.48 114.512 1002.2 114.512C1000.84 114.512 999.958 115.36 999.958 116.928V122H998.614V113.52ZM940.524 130.64H942.748L944.316 138.8L945.884 130.64H948.108V142H946.732V132.048L944.924 141.2H943.708L941.9 132.048V142H940.524V130.64ZM953.909 142.192C951.557 142.192 950.037 140.448 950.037 137.76C950.037 135.072 951.557 133.328 953.909 133.328C956.261 133.328 957.781 135.072 957.781 137.76C957.781 140.448 956.261 142.192 953.909 142.192ZM951.445 137.76C951.445 139.728 952.341 140.912 953.909 140.912C955.477 140.912 956.373 139.728 956.373 137.76C956.373 135.792 955.477 134.608 953.909 134.608C952.341 134.608 951.445 135.792 951.445 137.76ZM962.143 131.28H963.487V133.52H966.879V134.704H963.487V139.664C963.487 140.384 963.871 140.816 964.591 140.816H966.863V142H964.591C962.863 142 962.143 141.072 962.143 139.664V134.704H959.711V133.52H962.143V131.28ZM973.097 142.192C970.745 142.192 969.225 140.448 969.225 137.76C969.225 135.072 970.745 133.328 973.097 133.328C975.449 133.328 976.969 135.072 976.969 137.76C976.969 140.448 975.449 142.192 973.097 142.192ZM970.633 137.76C970.633 139.728 971.529 140.912 973.097 140.912C974.665 140.912 975.561 139.728 975.561 137.76C975.561 135.792 974.665 134.608 973.097 134.608C971.529 134.608 970.633 135.792 970.633 137.76ZM982.547 133.52L982.659 135.12C982.963 134.032 983.651 133.52 984.771 133.52H986.467V134.704H984.771C983.475 134.704 982.867 135.488 982.867 136.944V140.816H985.635V142H979.315V140.816H981.523V134.704H979.315V133.52H982.547Z" fill="black"/>
<path d="M391.291 124.256C390.875 126.752 389.387 128.256 387.243 128.256C384.427 128.256 382.827 125.968 382.827 122.336C382.827 118.672 384.427 116.384 387.243 116.384C389.243 116.384 390.715 117.76 391.195 120.112L389.723 120.208C389.355 118.576 388.427 117.728 387.243 117.728C385.339 117.728 384.283 119.392 384.283 122.336C384.283 125.264 385.339 126.912 387.243 126.912C388.555 126.912 389.515 125.984 389.835 124.176L391.291 124.256ZM392.997 122.016C393.317 120.416 394.709 119.328 396.469 119.328C398.517 119.328 399.877 120.512 399.877 122.88V126.288C399.877 126.64 400.036 126.816 400.405 126.816H400.741V128H400.325C399.301 128 398.693 127.456 398.549 126.688C398.213 127.472 397.253 128.192 395.909 128.192C394.229 128.192 392.853 127.296 392.853 125.776C392.853 124.032 394.181 123.584 396.053 123.232L398.533 122.736C398.517 121.296 397.717 120.608 396.469 120.608C395.413 120.608 394.645 121.248 394.437 122.128L392.997 122.016ZM394.261 125.776C394.261 126.448 394.837 127.008 396.085 127.008C397.477 126.992 398.565 126.032 398.565 124.352V123.936L396.565 124.288C395.301 124.512 394.261 124.592 394.261 125.776ZM402.158 119.52H403.39L403.438 120.688C403.758 119.808 404.334 119.328 405.182 119.328C405.918 119.328 406.366 119.808 406.622 120.912C406.926 119.936 407.614 119.328 408.494 119.328C409.79 119.328 410.35 120.416 410.35 122.912V128H409.006V122.912C409.006 121.184 408.75 120.512 408.094 120.512C407.358 120.512 406.926 121.376 406.926 122.912V128H405.582V122.912C405.582 121.2 405.31 120.512 404.574 120.512C403.918 120.512 403.518 121.376 403.518 122.912V128H402.158V119.52ZM412.056 123.76C412.056 121.072 413.592 119.328 415.944 119.328C417.816 119.328 419.48 120.56 419.624 123.568L419.64 124.176H413.496C413.608 125.904 414.488 126.912 415.944 126.912C416.856 126.912 417.672 126.384 418.056 125.488L419.496 125.6C419 127.2 417.576 128.192 415.944 128.192C413.592 128.192 412.056 126.448 412.056 123.76ZM413.512 122.992H418.168C417.928 121.216 416.984 120.608 415.944 120.608C414.6 120.608 413.736 121.488 413.512 122.992ZM425.25 119.52L425.362 121.12C425.666 120.032 426.354 119.52 427.474 119.52H429.17V120.704H427.474C426.178 120.704 425.57 121.488 425.57 122.944V126.816H428.338V128H422.018V126.816H424.226V120.704H422.018V119.52H425.25ZM431.372 122.016C431.692 120.416 433.084 119.328 434.844 119.328C436.892 119.328 438.252 120.512 438.252 122.88V126.288C438.252 126.64 438.411 126.816 438.78 126.816H439.116V128H438.7C437.676 128 437.068 127.456 436.924 126.688C436.588 127.472 435.628 128.192 434.284 128.192C432.604 128.192 431.228 127.296 431.228 125.776C431.228 124.032 432.556 123.584 434.428 123.232L436.908 122.736C436.892 121.296 436.092 120.608 434.844 120.608C433.788 120.608 433.02 121.248 432.812 122.128L431.372 122.016ZM432.636 125.776C432.636 126.448 433.212 127.008 434.46 127.008C435.852 126.992 436.94 126.032 436.94 124.352V123.936L434.94 124.288C433.676 124.512 432.636 124.592 432.636 125.776Z" fill="black"/>
<rect x="858" y="202" width="212" height="107" rx="12" fill="#BAA9F9"/>
<path d="M902.581 252V240.64H903.957V250.656H909.957V252H902.581ZM911.79 247.76C911.79 245.072 913.326 243.328 915.678 243.328C917.55 243.328 919.214 244.56 919.358 247.568L919.374 248.176H913.23C913.342 249.904 914.222 250.912 915.678 250.912C916.59 250.912 917.406 250.384 917.79 249.488L919.23 249.6C918.734 251.2 917.31 252.192 915.678 252.192C913.326 252.192 911.79 250.448 911.79 247.76ZM913.246 246.992H917.902C917.662 245.216 916.718 244.608 915.678 244.608C914.334 244.608 913.47 245.488 913.246 246.992ZM923.72 242.976C923.72 241.552 924.44 240.64 926.008 240.64H928.44V241.824H926.008C925.448 241.824 925.064 242.256 925.064 242.976V244H928.328V245.184H925.064V252H923.72V245.184H921.448V244H923.72V242.976ZM933.362 241.28H934.706V243.52H938.098V244.704H934.706V249.664C934.706 250.384 935.09 250.816 935.81 250.816H938.082V252H935.81C934.082 252 933.362 251.072 933.362 249.664V244.704H930.93V243.52H933.362V241.28ZM952.549 241.28H953.893V243.52H957.285V244.704H953.893V249.664C953.893 250.384 954.277 250.816 954.997 250.816H957.269V252H954.997C953.269 252 952.549 251.072 952.549 249.664V244.704H950.117V243.52H952.549V241.28ZM963.503 252.192C961.151 252.192 959.631 250.448 959.631 247.76C959.631 245.072 961.151 243.328 963.503 243.328C965.855 243.328 967.375 245.072 967.375 247.76C967.375 250.448 965.855 252.192 963.503 252.192ZM961.039 247.76C961.039 249.728 961.935 250.912 963.503 250.912C965.071 250.912 965.967 249.728 965.967 247.76C965.967 245.792 965.071 244.608 963.503 244.608C961.935 244.608 961.039 245.792 961.039 247.76ZM982.659 240.64C985.043 240.64 986.531 241.968 986.531 244.08C986.531 245.376 985.667 246.4 984.707 246.72C985.747 246.928 986.211 247.504 986.323 248.656L986.627 252H985.235L984.947 248.8C984.851 247.76 984.179 247.424 982.515 247.424H980.451V252H979.075V240.64H982.659ZM980.451 246.08H982.659C984.211 246.08 985.091 245.36 985.091 244.048C985.091 242.736 984.211 241.984 982.659 241.984H980.451V246.08ZM993.516 243.52V250.816H996.412V252H988.812V250.816H992.172V244.704H989.132V243.52H993.516ZM991.996 242.256V240.64H993.516V242.256H991.996ZM1001.69 251.552C999.542 251.552 998.022 249.856 998.022 247.44C998.022 245.024 999.542 243.328 1001.69 243.328C1002.82 243.328 1003.89 243.968 1004.26 244.864V243.52H1005.54V251.168C1005.54 253.408 1004.02 254.592 1001.8 254.592C999.99 254.592 998.646 253.616 998.262 252.128L999.67 252.032C1000.01 252.832 1000.74 253.312 1001.8 253.312C1003.3 253.312 1004.2 252.672 1004.2 251.472V250.08C1003.75 250.944 1002.73 251.552 1001.69 251.552ZM999.43 247.44C999.43 249.088 1000.34 250.272 1001.85 250.272C1003.29 250.272 1004.2 249.088 1004.21 247.44C1004.25 245.792 1003.33 244.608 1001.85 244.608C1000.34 244.608 999.43 245.792 999.43 247.44ZM1008.29 240.64H1009.63V244.656C1010.13 243.744 1011.12 243.328 1012.16 243.328C1014.08 243.328 1015.01 244.752 1015.01 246.544V252H1013.66V247.024C1013.66 245.456 1013.15 244.608 1011.87 244.608C1010.51 244.608 1009.63 245.456 1009.63 247.024V252H1008.29V240.64ZM1019.71 241.28H1021.05V243.52H1024.44V244.704H1021.05V249.664C1021.05 250.384 1021.43 250.816 1022.15 250.816H1024.43V252H1022.15C1020.43 252 1019.71 251.072 1019.71 249.664V244.704H1017.27V243.52H1019.71V241.28ZM940.524 260.64H942.748L944.316 268.8L945.884 260.64H948.108V272H946.732V262.048L944.924 271.2H943.708L941.9 262.048V272H940.524V260.64ZM953.909 272.192C951.557 272.192 950.037 270.448 950.037 267.76C950.037 265.072 951.557 263.328 953.909 263.328C956.261 263.328 957.781 265.072 957.781 267.76C957.781 270.448 956.261 272.192 953.909 272.192ZM951.445 267.76C951.445 269.728 952.341 270.912 953.909 270.912C955.477 270.912 956.373 269.728 956.373 267.76C956.373 265.792 955.477 264.608 953.909 264.608C952.341 264.608 951.445 265.792 951.445 267.76ZM962.143 261.28H963.487V263.52H966.879V264.704H963.487V269.664C963.487 270.384 963.871 270.816 964.591 270.816H966.863V272H964.591C962.863 272 962.143 271.072 962.143 269.664V264.704H959.711V263.52H962.143V261.28ZM973.097 272.192C970.745 272.192 969.225 270.448 969.225 267.76C969.225 265.072 970.745 263.328 973.097 263.328C975.449 263.328 976.969 265.072 976.969 267.76C976.969 270.448 975.449 272.192 973.097 272.192ZM970.633 267.76C970.633 269.728 971.529 270.912 973.097 270.912C974.665 270.912 975.561 269.728 975.561 267.76C975.561 265.792 974.665 264.608 973.097 264.608C971.529 264.608 970.633 265.792 970.633 267.76ZM982.547 263.52L982.659 265.12C982.963 264.032 983.651 263.52 984.771 263.52H986.467V264.704H984.771C983.475 264.704 982.867 265.488 982.867 266.944V270.816H985.635V272H979.315V270.816H981.523V264.704H979.315V263.52H982.547Z" fill="black"/>
<rect x="858" y="332" width="212" height="107" rx="12" fill="#BAA9F9"/>
<path d="M911.482 382V370.64H914.634C917.21 370.64 918.65 371.776 918.65 373.792C918.65 374.992 917.85 375.888 916.634 376.128C918.186 376.32 919.13 377.312 919.13 378.784C919.13 380.752 917.658 382 915.274 382H911.482ZM912.874 380.656H915.274C916.762 380.656 917.69 379.952 917.69 378.784C917.69 377.584 916.826 376.896 915.274 376.896H912.874V380.656ZM912.874 375.552H914.634C916.298 375.552 917.21 374.928 917.21 373.792C917.21 372.64 916.298 371.984 914.634 371.984H912.874V375.552ZM921.156 380.816H924.436V372.816C924.436 372.128 924.148 371.824 923.492 371.824H921.476V370.64H923.492C924.964 370.64 925.78 371.408 925.78 372.816V380.816H928.756V382H921.156V380.816ZM930.606 376.016C930.926 374.416 932.318 373.328 934.078 373.328C936.126 373.328 937.486 374.512 937.486 376.88V380.288C937.486 380.64 937.646 380.816 938.014 380.816H938.35V382H937.934C936.91 382 936.302 381.456 936.158 380.688C935.822 381.472 934.862 382.192 933.518 382.192C931.838 382.192 930.462 381.296 930.462 379.776C930.462 378.032 931.79 377.584 933.662 377.232L936.142 376.736C936.126 375.296 935.326 374.608 934.078 374.608C933.022 374.608 932.254 375.248 932.046 376.128L930.606 376.016ZM931.87 379.776C931.87 380.448 932.446 381.008 933.694 381.008C935.086 380.992 936.174 380.032 936.174 378.352V377.936L934.174 378.288C932.91 378.512 931.87 378.592 931.87 379.776ZM947.32 370.64V382H946.104L946.056 380.784C945.592 381.664 944.68 382.192 943.368 382.192C940.92 382.192 939.8 380.096 939.8 377.76C939.8 375.424 940.92 373.328 943.368 373.328C944.632 373.328 945.496 373.792 945.976 374.64V370.64H947.32ZM941.208 377.76C941.208 379.376 941.896 380.912 943.656 380.912C945.4 380.912 946.104 379.344 946.104 377.76C946.104 376.112 945.4 374.544 943.656 374.544C941.896 374.544 941.208 376.08 941.208 377.76ZM949.665 377.76C949.665 375.072 951.201 373.328 953.553 373.328C955.425 373.328 957.089 374.56 957.233 377.568L957.249 378.176H951.105C951.217 379.904 952.097 380.912 953.553 380.912C954.465 380.912 955.281 380.384 955.665 379.488L957.105 379.6C956.609 381.2 955.185 382.192 953.553 382.192C951.201 382.192 949.665 380.448 949.665 377.76ZM951.121 376.992H955.777C955.537 375.216 954.593 374.608 953.553 374.608C952.209 374.608 951.345 375.488 951.121 376.992ZM974.677 376.144C974.485 375.184 973.573 374.608 972.485 374.608C971.605 374.608 970.773 375.056 970.789 375.936C970.789 376.848 971.877 377.056 972.805 377.312C974.405 377.712 976.085 378.224 976.085 379.84C976.085 381.504 974.437 382.192 972.773 382.192C970.821 382.192 969.221 381.088 969.109 379.328L970.501 379.232C970.661 380.256 971.589 380.912 972.773 380.912C973.685 380.912 974.661 380.672 974.661 379.76C974.661 378.832 973.461 378.688 972.565 378.48C971.013 378.112 969.381 377.552 969.381 376C969.365 374.288 970.901 373.328 972.629 373.328C974.389 373.328 975.749 374.4 976.021 376.048L974.677 376.144ZM978.671 384.4V373.52H979.887L979.935 374.784C980.399 373.84 981.295 373.328 982.543 373.328C985.087 373.328 986.207 375.424 986.207 377.76C986.207 380.096 985.087 382.192 982.543 382.192C981.359 382.192 980.479 381.712 980.015 380.816V384.4H978.671ZM979.871 377.76C979.871 379.344 980.591 380.912 982.319 380.912C984.063 380.912 984.767 379.376 984.767 377.76C984.767 376.144 984.063 374.608 982.319 374.608C980.591 374.608 979.871 376.176 979.871 377.76ZM988.04 377.76C988.04 375.072 989.576 373.328 991.928 373.328C993.8 373.328 995.464 374.56 995.608 377.568L995.624 378.176H989.48C989.592 379.904 990.472 380.912 991.928 380.912C992.84 380.912 993.656 380.384 994.04 379.488L995.48 379.6C994.984 381.2 993.56 382.192 991.928 382.192C989.576 382.192 988.04 380.448 988.04 377.76ZM989.496 376.992H994.152C993.912 375.216 992.968 374.608 991.928 374.608C990.584 374.608 989.72 375.488 989.496 376.992ZM997.634 377.76C997.634 375.072 999.17 373.328 1001.52 373.328C1003.39 373.328 1005.06 374.56 1005.2 377.568L1005.22 378.176H999.074C999.186 379.904 1000.07 380.912 1001.52 380.912C1002.43 380.912 1003.25 380.384 1003.63 379.488L1005.07 379.6C1004.58 381.2 1003.15 382.192 1001.52 382.192C999.17 382.192 997.634 380.448 997.634 377.76ZM999.09 376.992H1003.75C1003.51 375.216 1002.56 374.608 1001.52 374.608C1000.18 374.608 999.314 375.488 999.09 376.992ZM1014.48 370.64V382H1013.26L1013.21 380.784C1012.75 381.664 1011.84 382.192 1010.52 382.192C1008.08 382.192 1006.96 380.096 1006.96 377.76C1006.96 375.424 1008.08 373.328 1010.52 373.328C1011.79 373.328 1012.65 373.792 1013.13 374.64V370.64H1014.48ZM1008.36 377.76C1008.36 379.376 1009.05 380.912 1010.81 380.912C1012.56 380.912 1013.26 379.344 1013.26 377.76C1013.26 376.112 1012.56 374.544 1010.81 374.544C1009.05 374.544 1008.36 376.08 1008.36 377.76ZM940.024 390.64H942.248L943.816 398.8L945.384 390.64H947.608V402H946.232V392.048L944.424 401.2H943.208L941.4 392.048V402H940.024V390.64ZM953.409 402.192C951.057 402.192 949.537 400.448 949.537 397.76C949.537 395.072 951.057 393.328 953.409 393.328C955.761 393.328 957.281 395.072 957.281 397.76C957.281 400.448 955.761 402.192 953.409 402.192ZM950.945 397.76C950.945 399.728 951.841 400.912 953.409 400.912C954.977 400.912 955.873 399.728 955.873 397.76C955.873 395.792 954.977 394.608 953.409 394.608C951.841 394.608 950.945 395.792 950.945 397.76ZM961.643 391.28H962.987V393.52H966.379V394.704H962.987V399.664C962.987 400.384 963.371 400.816 964.091 400.816H966.363V402H964.091C962.363 402 961.643 401.072 961.643 399.664V394.704H959.211V393.52H961.643V391.28ZM972.597 402.192C970.245 402.192 968.725 400.448 968.725 397.76C968.725 395.072 970.245 393.328 972.597 393.328C974.949 393.328 976.469 395.072 976.469 397.76C976.469 400.448 974.949 402.192 972.597 402.192ZM970.133 397.76C970.133 399.728 971.029 400.912 972.597 400.912C974.165 400.912 975.061 399.728 975.061 397.76C975.061 395.792 974.165 394.608 972.597 394.608C971.029 394.608 970.133 395.792 970.133 397.76ZM982.047 393.52L982.159 395.12C982.463 394.032 983.151 393.52 984.271 393.52H985.967V394.704H984.271C982.975 394.704 982.367 395.488 982.367 396.944V400.816H985.135V402H978.815V400.816H981.023V394.704H978.815V393.52H982.047Z" fill="black"/>
<path d="M557.354 344.354C557.549 344.158 557.549 343.842 557.354 343.646L554.172 340.464C553.976 340.269 553.66 340.269 553.464 340.464C553.269 340.66 553.269 340.976 553.464 341.172L556.293 344L553.464 346.828C553.269 347.024 553.269 347.34 553.464 347.536C553.66 347.731 553.976 347.731 554.172 347.536L557.354 344.354ZM522 344.5H557V343.5H522V344.5Z" fill="black"/>
<path d="M521.646 361.146C521.451 361.342 521.451 361.658 521.646 361.854L524.828 365.036C525.024 365.231 525.34 365.231 525.536 365.036C525.731 364.84 525.731 364.524 525.536 364.328L522.707 361.5L525.536 358.672C525.731 358.476 525.731 358.16 525.536 357.964C525.34 357.769 525.024 357.769 524.828 357.964L521.646 361.146ZM522 362H557V361H522V362Z" fill="black"/>
<path d="M299.354 317.354C299.549 317.158 299.549 316.842 299.354 316.646L296.172 313.464C295.976 313.269 295.66 313.269 295.464 313.464C295.269 313.66 295.269 313.976 295.464 314.172L298.293 317L295.464 319.828C295.269 320.024 295.269 320.34 295.464 320.536C295.66 320.731 295.976 320.731 296.172 320.536L299.354 317.354ZM218 317.5H299V316.5H218V317.5Z" fill="#616161"/>
<path d="M217.646 333.646C217.451 333.842 217.451 334.158 217.646 334.354L220.828 337.536C221.024 337.731 221.34 337.731 221.536 337.536C221.731 337.34 221.731 337.024 221.536 336.828L218.707 334L221.536 331.172C221.731 330.976 221.731 330.66 221.536 330.464C221.34 330.269 221.024 330.269 220.828 330.464L217.646 333.646ZM218 334.5H299V333.5H218V334.5Z" fill="#616161"/>
<path d="M643.915 202.932C644.11 203.127 644.427 203.127 644.622 202.932L647.804 199.75C648 199.555 648 199.238 647.804 199.043C647.609 198.848 647.292 198.848 647.097 199.043L644.269 201.871L641.44 199.043C641.245 198.848 640.928 198.848 640.733 199.043C640.538 199.238 640.538 199.555 640.733 199.75L643.915 202.932ZM634.269 121.578L634.269 121.078L634.269 121.578ZM517.269 122.078L634.269 122.078L634.269 121.078L517.269 121.078L517.269 122.078ZM643.769 131.578L643.769 202.578L644.769 202.578L644.769 131.578L643.769 131.578ZM634.269 122.078C639.516 122.078 643.769 126.332 643.769 131.578L644.769 131.578C644.769 125.779 640.068 121.078 634.269 121.078L634.269 122.078Z" fill="#616161"/>
<path d="M858.657 385.956C858.853 385.761 858.853 385.445 858.657 385.249L855.475 382.067C855.28 381.872 854.963 381.872 854.768 382.067C854.573 382.263 854.573 382.579 854.768 382.774L857.597 385.603L854.768 388.431C854.573 388.627 854.573 388.943 854.768 389.138C854.963 389.334 855.28 389.334 855.475 389.138L858.657 385.956ZM828.5 385.603L828.5 385.103L828.5 385.603ZM818.5 330.603L819 330.603L818.5 330.603ZM773.304 321.103L808.5 321.103L808.5 320.103L773.304 320.103L773.304 321.103ZM818 330.603L818 375.603L819 375.603L819 330.603L818 330.603ZM828.5 386.103L858.304 386.103L858.304 385.103L828.5 385.103L828.5 386.103ZM818 375.603C818 381.402 822.701 386.103 828.5 386.103L828.5 385.103C823.253 385.103 819 380.85 819 375.603L818 375.603ZM808.5 321.103C813.747 321.103 818 325.356 818 330.603L819 330.603C819 324.804 814.299 320.103 808.5 320.103L808.5 321.103Z" fill="#616161"/>
<path d="M858.05 255.956C858.245 255.761 858.245 255.445 858.05 255.249L854.868 252.067C854.673 251.872 854.356 251.872 854.161 252.067C853.966 252.263 853.966 252.579 854.161 252.774L856.989 255.603L854.161 258.431C853.966 258.627 853.966 258.943 854.161 259.138C854.356 259.334 854.673 259.334 854.868 259.138L858.05 255.956ZM828.5 255.603L828.5 256.103L828.5 255.603ZM808.5 320.603L808.5 321.103L808.5 320.603ZM772.696 321.103L808.5 321.103L808.5 320.103L772.696 320.103L772.696 321.103ZM819 310.603L819 265.603L818 265.603L818 310.603L819 310.603ZM828.5 256.103L857.696 256.103L857.696 255.103L828.5 255.103L828.5 256.103ZM819 265.603C819 260.356 823.253 256.103 828.5 256.103L828.5 255.103C822.701 255.103 818 259.804 818 265.603L819 265.603ZM808.5 321.103C814.299 321.103 819 316.402 819 310.603L818 310.603C818 315.85 813.747 320.103 808.5 320.103L808.5 321.103Z" fill="#616161"/>
<path d="M857.895 126.154C858.091 125.958 858.091 125.642 857.895 125.447L854.713 122.265C854.518 122.069 854.202 122.069 854.006 122.265C853.811 122.46 853.811 122.776 854.006 122.972L856.835 125.8L854.006 128.629C853.811 128.824 853.811 129.14 854.006 129.336C854.202 129.531 854.518 129.531 854.713 129.336L857.895 126.154ZM818.5 135.8L818 135.8L818.5 135.8ZM808.5 320.8L808.5 321.3L808.5 320.8ZM772.542 321.3L808.5 321.3L808.5 320.3L772.542 320.3L772.542 321.3ZM819 310.8L819 135.8L818 135.8L818 310.8L819 310.8ZM828.5 126.3L857.542 126.3L857.542 125.3L828.5 125.3L828.5 126.3ZM819 135.8C819 130.553 823.253 126.3 828.5 126.3L828.5 125.3C822.701 125.3 818 130.001 818 135.8L819 135.8ZM808.5 321.3C814.299 321.3 819 316.599 819 310.8L818 310.8C818 316.047 813.747 320.3 808.5 320.3L808.5 321.3Z" fill="#616161"/>
<path d="M0 83C0 76.3726 5.37258 71 12 71H46.8093C52.9028 71 57.8426 75.9397 57.8426 82.0332V82.0332C57.8426 88.1267 62.7823 93.0664 68.8758 93.0664H97.2425H127.286C133.379 93.0664 138.319 88.1267 138.319 82.0332V82.0332C138.319 75.9397 143.259 71 149.352 71H185C191.627 71 197 76.3726 197 83V428C197 434.627 191.627 440 185 440H12C5.37258 440 0 434.627 0 428V83Z" fill="#7EE1BB"/>
<path d="M52.0393 243.64H54.2633L55.8313 251.8L57.3993 243.64H59.6233V255H58.2473V245.048L56.4393 254.2H55.2233L53.4153 245.048V255H52.0393V243.64ZM65.425 255.192C63.073 255.192 61.553 253.448 61.553 250.76C61.553 248.072 63.073 246.328 65.425 246.328C67.777 246.328 69.297 248.072 69.297 250.76C69.297 253.448 67.777 255.192 65.425 255.192ZM62.961 250.76C62.961 252.728 63.857 253.912 65.425 253.912C66.993 253.912 67.889 252.728 67.889 250.76C67.889 248.792 66.993 247.608 65.425 247.608C63.857 247.608 62.961 248.792 62.961 250.76ZM71.5148 243.64H72.8588V247.64C73.3388 246.792 74.2028 246.328 75.4668 246.328C77.9148 246.328 79.0347 248.424 79.0347 250.76C79.0347 253.096 77.9148 255.192 75.4668 255.192C74.1548 255.192 73.2428 254.664 72.7788 253.784L72.7308 255H71.5148V243.64ZM72.7308 250.76C72.7308 252.344 73.4348 253.912 75.1788 253.912C76.9388 253.912 77.6268 252.376 77.6268 250.76C77.6268 249.08 76.9388 247.544 75.1788 247.544C73.4348 247.544 72.7308 249.112 72.7308 250.76ZM85.8445 246.52V253.816H88.7405V255H81.1405V253.816H84.5005V247.704H81.4605V246.52H85.8445ZM84.3245 245.256V243.64H85.8445V245.256H84.3245ZM90.7343 253.816H94.0143V245.816C94.0143 245.128 93.7263 244.824 93.0703 244.824H91.0543V243.64H93.0703C94.5423 243.64 95.3583 244.408 95.3583 245.816V253.816H98.3343V255H90.7343V253.816ZM100.056 250.76C100.056 248.072 101.592 246.328 103.944 246.328C105.816 246.328 107.48 247.56 107.624 250.568L107.64 251.176H101.496C101.608 252.904 102.488 253.912 103.944 253.912C104.856 253.912 105.672 253.384 106.056 252.488L107.496 252.6C107 254.2 105.576 255.192 103.944 255.192C101.592 255.192 100.056 253.448 100.056 250.76ZM101.512 249.992H106.168C105.928 248.216 104.984 247.608 103.944 247.608C102.6 247.608 101.736 248.488 101.512 249.992ZM118.604 255L122.06 243.64H123.916L127.372 255H125.964L125.02 251.768H120.956L120.012 255H118.604ZM121.324 250.52H124.652L122.988 244.84L121.324 250.52ZM129.061 257.4V246.52H130.277L130.325 247.784C130.789 246.84 131.685 246.328 132.933 246.328C135.477 246.328 136.597 248.424 136.597 250.76C136.597 253.096 135.477 255.192 132.933 255.192C131.749 255.192 130.869 254.712 130.405 253.816V257.4H129.061ZM130.261 250.76C130.261 252.344 130.981 253.912 132.709 253.912C134.453 253.912 135.157 252.376 135.157 250.76C135.157 249.144 134.453 247.608 132.709 247.608C130.981 247.608 130.261 249.176 130.261 250.76ZM138.655 257.4V246.52H139.871L139.919 247.784C140.383 246.84 141.279 246.328 142.527 246.328C145.071 246.328 146.191 248.424 146.191 250.76C146.191 253.096 145.071 255.192 142.527 255.192C141.343 255.192 140.463 254.712 139.999 253.816V257.4H138.655ZM139.855 250.76C139.855 252.344 140.575 253.912 142.303 253.912C144.047 253.912 144.751 252.376 144.751 250.76C144.751 249.144 144.047 247.608 142.303 247.608C140.575 247.608 139.855 249.176 139.855 250.76Z" fill="black"/>
<path d="M46.2055 263.64C48.5895 263.64 50.0775 264.968 50.0775 267.08C50.0775 268.376 49.2135 269.4 48.2535 269.72C49.2935 269.928 49.7575 270.504 49.8695 271.656L50.1735 275H48.7815L48.4935 271.8C48.3975 270.76 47.7255 270.424 46.0615 270.424H43.9975V275H42.6215V263.64H46.2055ZM43.9975 269.08H46.2055C47.7575 269.08 48.6375 268.36 48.6375 267.048C48.6375 265.736 47.7575 264.984 46.2055 264.984H43.9975V269.08ZM52.0872 270.76C52.0872 268.072 53.6233 266.328 55.9753 266.328C57.8473 266.328 59.5113 267.56 59.6553 270.568L59.6713 271.176H53.5273C53.6393 272.904 54.5193 273.912 55.9753 273.912C56.8873 273.912 57.7033 273.384 58.0873 272.488L59.5273 272.6C59.0312 274.2 57.6073 275.192 55.9753 275.192C53.6233 275.192 52.0872 273.448 52.0872 270.76ZM53.5433 269.992H58.1993C57.9593 268.216 57.0153 267.608 55.9753 267.608C54.6313 267.608 53.7673 268.488 53.5433 269.992ZM61.809 269.016C62.129 267.416 63.521 266.328 65.281 266.328C67.329 266.328 68.689 267.512 68.689 269.88V273.288C68.689 273.64 68.849 273.816 69.217 273.816H69.553V275H69.137C68.113 275 67.505 274.456 67.361 273.688C67.025 274.472 66.065 275.192 64.721 275.192C63.041 275.192 61.665 274.296 61.665 272.776C61.665 271.032 62.993 270.584 64.865 270.232L67.345 269.736C67.329 268.296 66.529 267.608 65.281 267.608C64.225 267.608 63.457 268.248 63.249 269.128L61.809 269.016ZM63.073 272.776C63.073 273.448 63.649 274.008 64.897 274.008C66.289 273.992 67.377 273.032 67.377 271.352V270.936L65.377 271.288C64.113 271.512 63.073 271.592 63.073 272.776ZM77.3548 269.368C77.1628 268.264 76.2508 267.608 75.2268 267.608C73.6588 267.608 72.7628 268.792 72.7628 270.76C72.7628 272.728 73.6588 273.912 75.2268 273.912C76.2988 273.912 77.2108 273.208 77.4188 271.992L78.8428 272.088C78.5548 274.008 77.0188 275.192 75.2268 275.192C72.8748 275.192 71.3548 273.448 71.3548 270.76C71.3548 268.072 72.8748 266.328 75.2268 266.328C76.9548 266.328 78.5228 267.448 78.7628 269.272L77.3548 269.368ZM83.2525 264.28H84.5965V266.52H87.9885V267.704H84.5965V272.664C84.5965 273.384 84.9805 273.816 85.7005 273.816H87.9725V275H85.7005C83.9725 275 83.2525 274.072 83.2525 272.664V267.704H80.8205V266.52H83.2525V264.28ZM100.248 263.64H102.216L105.96 273.272V263.64H107.352V275H105.224L101.64 265.72V275H100.248V263.64ZM109.778 269.016C110.098 267.416 111.49 266.328 113.25 266.328C115.298 266.328 116.658 267.512 116.658 269.88V273.288C116.658 273.64 116.818 273.816 117.186 273.816H117.522V275H117.106C116.082 275 115.474 274.456 115.33 273.688C114.994 274.472 114.034 275.192 112.69 275.192C111.01 275.192 109.634 274.296 109.634 272.776C109.634 271.032 110.962 270.584 112.834 270.232L115.314 269.736C115.298 268.296 114.498 267.608 113.25 267.608C112.194 267.608 111.426 268.248 111.218 269.128L109.778 269.016ZM111.042 272.776C111.042 273.448 111.618 274.008 112.866 274.008C114.258 273.992 115.346 273.032 115.346 271.352V270.936L113.346 271.288C112.082 271.512 111.042 271.592 111.042 272.776ZM121.628 264.28H122.972V266.52H126.364V267.704H122.972V272.664C122.972 273.384 123.356 273.816 124.076 273.816H126.348V275H124.076C122.348 275 121.628 274.072 121.628 272.664V267.704H119.196V266.52H121.628V264.28ZM133.813 266.52V273.816H136.709V275H129.109V273.816H132.469V267.704H129.429V266.52H133.813ZM132.293 265.256V263.64H133.813V265.256H132.293ZM146.111 266.52L143.023 275H141.327L138.239 266.52H139.679L142.175 273.592L144.671 266.52H146.111ZM148.025 270.76C148.025 268.072 149.561 266.328 151.913 266.328C153.785 266.328 155.449 267.56 155.593 270.568L155.609 271.176H149.465C149.577 272.904 150.457 273.912 151.913 273.912C152.825 273.912 153.641 273.384 154.025 272.488L155.465 272.6C154.969 274.2 153.545 275.192 151.913 275.192C149.561 275.192 148.025 273.448 148.025 270.76ZM149.481 269.992H154.137C153.897 268.216 152.953 267.608 151.913 267.608C150.569 267.608 149.705 268.488 149.481 269.992Z" fill="black" fill-opacity="0.5"/>
<path d="M62.129 450.64H69.105V451.984H63.505V455.792H68.817V457.104H63.505V462H62.129V450.64ZM71.2747 457.76C71.2747 455.072 72.8108 453.328 75.1628 453.328C77.0348 453.328 78.6988 454.56 78.8428 457.568L78.8588 458.176H72.7148C72.8268 459.904 73.7068 460.912 75.1628 460.912C76.0748 460.912 76.8908 460.384 77.2748 459.488L78.7148 459.6C78.2188 461.2 76.7948 462.192 75.1628 462.192C72.8108 462.192 71.2747 460.448 71.2747 457.76ZM72.7308 456.992H77.3868C77.1468 455.216 76.2028 454.608 75.1628 454.608C73.8188 454.608 72.9548 455.488 72.7308 456.992ZM80.9965 456.016C81.3165 454.416 82.7085 453.328 84.4685 453.328C86.5165 453.328 87.8765 454.512 87.8765 456.88V460.288C87.8765 460.64 88.0365 460.816 88.4045 460.816H88.7405V462H88.3245C87.3005 462 86.6925 461.456 86.5485 460.688C86.2125 461.472 85.2525 462.192 83.9085 462.192C82.2285 462.192 80.8525 461.296 80.8525 459.776C80.8525 458.032 82.1805 457.584 84.0525 457.232L86.5325 456.736C86.5165 455.296 85.7165 454.608 84.4685 454.608C83.4125 454.608 82.6445 455.248 82.4365 456.128L80.9965 456.016ZM82.2605 459.776C82.2605 460.448 82.8365 461.008 84.0845 461.008C85.4765 460.992 86.5645 460.032 86.5645 458.352V457.936L84.5645 458.288C83.3005 458.512 82.2605 458.592 82.2605 459.776ZM96.2863 456.144C96.0943 455.184 95.1823 454.608 94.0943 454.608C93.2143 454.608 92.3823 455.056 92.3983 455.936C92.3983 456.848 93.4863 457.056 94.4143 457.312C96.0143 457.712 97.6943 458.224 97.6943 459.84C97.6943 461.504 96.0463 462.192 94.3823 462.192C92.4303 462.192 90.8303 461.088 90.7183 459.328L92.1103 459.232C92.2703 460.256 93.1983 460.912 94.3823 460.912C95.2943 460.912 96.2703 460.672 96.2703 459.76C96.2703 458.832 95.0703 458.688 94.1743 458.48C92.6223 458.112 90.9903 457.552 90.9903 456C90.9743 454.288 92.5103 453.328 94.2383 453.328C95.9983 453.328 97.3583 454.4 97.6302 456.048L96.2863 456.144ZM105.032 453.52V460.816H107.928V462H100.328V460.816H103.688V454.704H100.648V453.52H105.032ZM103.512 452.256V450.64H105.032V452.256H103.512ZM109.89 450.64H111.234V454.64C111.714 453.792 112.578 453.328 113.842 453.328C116.29 453.328 117.41 455.424 117.41 457.76C117.41 460.096 116.29 462.192 113.842 462.192C112.53 462.192 111.618 461.664 111.154 460.784L111.106 462H109.89V450.64ZM111.106 457.76C111.106 459.344 111.81 460.912 113.554 460.912C115.314 460.912 116.002 459.376 116.002 457.76C116.002 456.08 115.314 454.544 113.554 454.544C111.81 454.544 111.106 456.112 111.106 457.76ZM119.516 460.816H122.796V452.816C122.796 452.128 122.508 451.824 121.852 451.824H119.836V450.64H121.852C123.324 450.64 124.14 451.408 124.14 452.816V460.816H127.116V462H119.516V460.816ZM128.837 457.76C128.837 455.072 130.373 453.328 132.725 453.328C134.597 453.328 136.261 454.56 136.405 457.568L136.421 458.176H130.277C130.389 459.904 131.269 460.912 132.725 460.912C133.637 460.912 134.453 460.384 134.837 459.488L136.277 459.6C135.781 461.2 134.357 462.192 132.725 462.192C130.373 462.192 128.837 460.448 128.837 457.76ZM130.293 456.992H134.949C134.709 455.216 133.765 454.608 132.725 454.608C131.381 454.608 130.517 455.488 130.293 456.992ZM23.306 477.76C23.306 475.072 24.842 473.328 27.194 473.328C29.066 473.328 30.73 474.56 30.874 477.568L30.89 478.176H24.746C24.858 479.904 25.738 480.912 27.194 480.912C28.106 480.912 28.922 480.384 29.306 479.488L30.746 479.6C30.25 481.2 28.826 482.192 27.194 482.192C24.842 482.192 23.306 480.448 23.306 477.76ZM24.762 476.992H29.418C29.178 475.216 28.234 474.608 27.194 474.608C25.85 474.608 24.986 475.488 24.762 476.992ZM38.7558 473.52H40.4198L37.4918 477.664L40.5638 482H38.9158L36.6438 478.704L34.3558 482H32.7078L35.8118 477.648L32.8678 473.52H34.5158L36.6438 476.624L38.7558 473.52ZM42.7175 484.4V473.52H43.9335L43.9815 474.784C44.4455 473.84 45.3415 473.328 46.5895 473.328C49.1335 473.328 50.2535 475.424 50.2535 477.76C50.2535 480.096 49.1335 482.192 46.5895 482.192C45.4055 482.192 44.5255 481.712 44.0615 480.816V484.4H42.7175ZM43.9175 477.76C43.9175 479.344 44.6375 480.912 46.3655 480.912C48.1095 480.912 48.8135 479.376 48.8135 477.76C48.8135 476.144 48.1095 474.608 46.3655 474.608C44.6375 474.608 43.9175 476.176 43.9175 477.76ZM52.2153 476.016C52.5353 474.416 53.9273 473.328 55.6873 473.328C57.7353 473.328 59.0953 474.512 59.0953 476.88V480.288C59.0953 480.64 59.2552 480.816 59.6233 480.816H59.9593V482H59.5433C58.5193 482 57.9113 481.456 57.7673 480.688C57.4313 481.472 56.4713 482.192 55.1273 482.192C53.4473 482.192 52.0713 481.296 52.0713 479.776C52.0713 478.032 53.3993 477.584 55.2713 477.232L57.7513 476.736C57.7353 475.296 56.9353 474.608 55.6873 474.608C54.6313 474.608 53.8633 475.248 53.6553 476.128L52.2153 476.016ZM53.4793 479.776C53.4793 480.448 54.0553 481.008 55.3033 481.008C56.6953 480.992 57.7833 480.032 57.7833 478.352V477.936L55.7833 478.288C54.5193 478.512 53.4793 478.592 53.4793 479.776ZM62.161 473.52H63.377L63.425 474.976C63.857 473.84 64.849 473.328 66.017 473.328C67.953 473.328 68.881 474.752 68.881 476.544V482H67.537V476.928C67.537 475.36 67.025 474.512 65.745 474.512C64.385 474.512 63.505 475.36 63.505 476.928V482H62.161V473.52ZM77.0988 476.144C76.9068 475.184 75.9948 474.608 74.9068 474.608C74.0268 474.608 73.1948 475.056 73.2108 475.936C73.2108 476.848 74.2988 477.056 75.2268 477.312C76.8268 477.712 78.5068 478.224 78.5068 479.84C78.5068 481.504 76.8588 482.192 75.1948 482.192C73.2428 482.192 71.6428 481.088 71.5308 479.328L72.9228 479.232C73.0828 480.256 74.0108 480.912 75.1948 480.912C76.1068 480.912 77.0828 480.672 77.0828 479.76C77.0828 478.832 75.8828 478.688 74.9868 478.48C73.4348 478.112 71.8028 477.552 71.8028 476C71.7868 474.288 73.3228 473.328 75.0508 473.328C76.8108 473.328 78.1708 474.4 78.4427 476.048L77.0988 476.144ZM85.8445 473.52V480.816H88.7405V482H81.1405V480.816H84.5005V474.704H81.4605V473.52H85.8445ZM84.3245 472.256V470.64H85.8445V472.256H84.3245ZM94.2063 482.192C91.8543 482.192 90.3343 480.448 90.3343 477.76C90.3343 475.072 91.8543 473.328 94.2063 473.328C96.5583 473.328 98.0783 475.072 98.0783 477.76C98.0783 480.448 96.5583 482.192 94.2063 482.192ZM91.7423 477.76C91.7423 479.728 92.6383 480.912 94.2063 480.912C95.7743 480.912 96.6703 479.728 96.6703 477.76C96.6703 475.792 95.7743 474.608 94.2063 474.608C92.6383 474.608 91.7423 475.792 91.7423 477.76ZM100.536 473.52H101.752L101.8 474.976C102.232 473.84 103.224 473.328 104.392 473.328C106.328 473.328 107.256 474.752 107.256 476.544V482H105.912V476.928C105.912 475.36 105.4 474.512 104.12 474.512C102.76 474.512 101.88 475.36 101.88 476.928V482H100.536V473.52ZM121.628 471.28H122.972V473.52H126.364V474.704H122.972V479.664C122.972 480.384 123.356 480.816 124.076 480.816H126.348V482H124.076C122.348 482 121.628 481.072 121.628 479.664V474.704H119.196V473.52H121.628V471.28ZM132.581 482.192C130.229 482.192 128.709 480.448 128.709 477.76C128.709 475.072 130.229 473.328 132.581 473.328C134.933 473.328 136.453 475.072 136.453 477.76C136.453 480.448 134.933 482.192 132.581 482.192ZM130.117 477.76C130.117 479.728 131.013 480.912 132.581 480.912C134.149 480.912 135.045 479.728 135.045 477.76C135.045 475.792 134.149 474.608 132.581 474.608C131.013 474.608 130.117 475.792 130.117 477.76ZM152.489 474.64L153.721 480.192L154.873 473.52H156.281L154.553 482H152.921L151.769 476.816L150.617 482H148.985L147.257 473.52H148.665L149.817 480.192L151.049 474.64H152.489ZM157.618 477.76C157.618 475.072 159.155 473.328 161.507 473.328C163.379 473.328 165.043 474.56 165.187 477.568L165.203 478.176H159.059C159.171 479.904 160.051 480.912 161.507 480.912C162.419 480.912 163.235 480.384 163.619 479.488L165.059 479.6C164.562 481.2 163.139 482.192 161.507 482.192C159.155 482.192 157.618 480.448 157.618 477.76ZM159.075 476.992H163.731C163.491 475.216 162.547 474.608 161.507 474.608C160.163 474.608 159.299 475.488 159.075 476.992ZM167.452 470.64H168.796V474.64C169.276 473.792 170.14 473.328 171.404 473.328C173.852 473.328 174.972 475.424 174.972 477.76C174.972 480.096 173.852 482.192 171.404 482.192C170.092 482.192 169.18 481.664 168.716 480.784L168.668 482H167.452V470.64ZM168.668 477.76C168.668 479.344 169.372 480.912 171.116 480.912C172.876 480.912 173.564 479.376 173.564 477.76C173.564 476.08 172.876 474.544 171.116 474.544C169.372 474.544 168.668 476.112 168.668 477.76Z" fill="#A5A5A5"/>
</svg>
