<svg xmlns="http://www.w3.org/2000/svg" version="1.1" xmlns:xlink="http://www.w3.org/1999/xlink" xmlns:svgjs="http://svgjs.dev/svgjs" viewBox="0 0 800 800" preserveAspectRatio="xMidYMid slice"><defs><pattern id="pppixelate-pattern" width="20" height="20" patternUnits="userSpaceOnUse" patternTransform="translate(0 0) scale(40) rotate(0)" shape-rendering="crispEdges">
    <rect width="1" height="1" x="7" y="0" fill="currentColor"></rect><rect width="1" height="1" x="8" y="0" fill="currentColor"></rect><rect width="1" height="1" x="9" y="0" fill="currentColor"></rect><rect width="1" height="1" x="10" y="0" fill="currentColor"></rect><rect width="1" height="1" x="11" y="0" fill="currentColor"></rect><rect width="1" height="1" x="12" y="0" fill="currentColor"></rect><rect width="1" height="1" x="13" y="0" fill="currentColor"></rect><rect width="1" height="1" x="6" y="1" fill="currentColor"></rect><rect width="1" height="1" x="14" y="1" fill="currentColor"></rect><rect width="1" height="1" x="5" y="2" fill="currentColor"></rect><rect width="1" height="1" x="14" y="2" fill="currentColor"></rect><rect width="1" height="1" x="5" y="3" fill="currentColor"></rect><rect width="1" height="1" x="9" y="3" fill="currentColor"></rect><rect width="1" height="1" x="10" y="3" fill="currentColor"></rect><rect width="1" height="1" x="11" y="3" fill="currentColor"></rect><rect width="1" height="1" x="15" y="3" fill="currentColor"></rect><rect width="1" height="1" x="5" y="4" fill="currentColor"></rect><rect width="1" height="1" x="8" y="4" fill="currentColor"></rect><rect width="1" height="1" x="10" y="4" fill="currentColor"></rect><rect width="1" height="1" x="15" y="4" fill="currentColor"></rect><rect width="1" height="1" x="6" y="5" fill="currentColor"></rect><rect width="1" height="1" x="10" y="5" fill="currentColor"></rect><rect width="1" height="1" x="11" y="5" fill="currentColor"></rect><rect width="1" height="1" x="12" y="5" fill="currentColor"></rect><rect width="1" height="1" x="16" y="5" fill="currentColor"></rect><rect width="1" height="1" x="7" y="6" fill="currentColor"></rect><rect width="1" height="1" x="8" y="6" fill="currentColor"></rect><rect width="1" height="1" x="9" y="6" fill="currentColor"></rect><rect width="1" height="1" x="10" y="6" fill="currentColor"></rect><rect width="1" height="1" x="12" y="6" fill="currentColor"></rect><rect width="1" height="1" x="16" y="6" fill="currentColor"></rect><rect width="1" height="1" x="12" y="7" fill="currentColor"></rect><rect width="1" height="1" x="17" y="7" fill="currentColor"></rect><rect width="1" height="1" x="2" y="8" fill="currentColor"></rect><rect width="1" height="1" x="3" y="8" fill="currentColor"></rect><rect width="1" height="1" x="4" y="8" fill="currentColor"></rect><rect width="1" height="1" x="5" y="8" fill="currentColor"></rect><rect width="1" height="1" x="6" y="8" fill="currentColor"></rect><rect width="1" height="1" x="11" y="8" fill="currentColor"></rect><rect width="1" height="1" x="17" y="8" fill="currentColor"></rect><rect width="1" height="1" x="1" y="9" fill="currentColor"></rect><rect width="1" height="1" x="7" y="9" fill="currentColor"></rect><rect width="1" height="1" x="8" y="9" fill="currentColor"></rect><rect width="1" height="1" x="11" y="9" fill="currentColor"></rect><rect width="1" height="1" x="18" y="9" fill="currentColor"></rect><rect width="1" height="1" x="0" y="10" fill="currentColor"></rect><rect width="1" height="1" x="9" y="10" fill="currentColor"></rect><rect width="1" height="1" x="11" y="10" fill="currentColor"></rect><rect width="1" height="1" x="18" y="10" fill="currentColor"></rect><rect width="1" height="1" x="0" y="11" fill="currentColor"></rect><rect width="1" height="1" x="10" y="11" fill="currentColor"></rect><rect width="1" height="1" x="11" y="11" fill="currentColor"></rect><rect width="1" height="1" x="19" y="11" fill="currentColor"></rect><rect width="1" height="1" x="0" y="12" fill="currentColor"></rect><rect width="1" height="1" x="11" y="12" fill="currentColor"></rect><rect width="1" height="1" x="12" y="12" fill="currentColor"></rect><rect width="1" height="1" x="19" y="12" fill="currentColor"></rect><rect width="1" height="1" x="0" y="13" fill="currentColor"></rect><rect width="1" height="1" x="12" y="13" fill="currentColor"></rect><rect width="1" height="1" x="19" y="13" fill="currentColor"></rect><rect width="1" height="1" x="0" y="14" fill="currentColor"></rect><rect width="1" height="1" x="13" y="14" fill="currentColor"></rect><rect width="1" height="1" x="19" y="14" fill="currentColor"></rect><rect width="1" height="1" x="0" y="15" fill="currentColor"></rect><rect width="1" height="1" x="19" y="15" fill="currentColor"></rect><rect width="1" height="1" x="1" y="16" fill="currentColor"></rect><rect width="1" height="1" x="18" y="16" fill="currentColor"></rect><rect width="1" height="1" x="2" y="17" fill="currentColor"></rect><rect width="1" height="1" x="17" y="17" fill="currentColor"></rect><rect width="1" height="1" x="3" y="18" fill="currentColor"></rect><rect width="1" height="1" x="4" y="18" fill="currentColor"></rect><rect width="1" height="1" x="15" y="18" fill="currentColor"></rect><rect width="1" height="1" x="16" y="18" fill="currentColor"></rect><rect width="1" height="1" x="5" y="19" fill="currentColor"></rect><rect width="1" height="1" x="6" y="19" fill="currentColor"></rect><rect width="1" height="1" x="7" y="19" fill="currentColor"></rect><rect width="1" height="1" x="8" y="19" fill="currentColor"></rect><rect width="1" height="1" x="9" y="19" fill="currentColor"></rect><rect width="1" height="1" x="10" y="19" fill="currentColor"></rect><rect width="1" height="1" x="11" y="19" fill="currentColor"></rect><rect width="1" height="1" x="12" y="19" fill="currentColor"></rect><rect width="1" height="1" x="13" y="19" fill="currentColor"></rect><rect width="1" height="1" x="14" y="19" fill="currentColor"></rect>
  </pattern></defs><rect width="100%" height="100%" fill="url(#pppixelate-pattern)"></rect></svg>