<svg xmlns="http://www.w3.org/2000/svg" version="1.1" viewBox="0 0 800 800" preserveAspectRatio="xMidYMid slice"><defs><pattern id="pppixelate-pattern" width="20" height="20" patternUnits="userSpaceOnUse" patternTransform="translate(0 0) scale(40) rotate(0)" shape-rendering="crispEdges">
    <rect width="1" height="1" x="9" y="0" fill="hsl(0, 0%, 90%)"></rect><rect width="1" height="1" x="14" y="0" fill="hsl(0, 0%, 90%)"></rect><rect width="1" height="1" x="10" y="1" fill="hsl(0, 0%, 90%)"></rect><rect width="1" height="1" x="14" y="1" fill="hsl(0, 0%, 90%)"></rect><rect width="1" height="1" x="7" y="2" fill="hsl(0, 0%, 90%)"></rect><rect width="1" height="1" x="10" y="2" fill="hsl(0, 0%, 90%)"></rect><rect width="1" height="1" x="12" y="2" fill="hsl(0, 0%, 90%)"></rect><rect width="1" height="1" x="8" y="3" fill="hsl(0, 0%, 90%)"></rect><rect width="1" height="1" x="5" y="4" fill="currentColor">></rect><rect width="1" height="1" x="6" y="4" fill="currentColor">></rect><rect width="1" height="1" x="7" y="4" fill="currentColor">></rect><rect width="1" height="1" x="8" y="4" fill="currentColor">></rect><rect width="1" height="1" x="9" y="4" fill="currentColor">></rect><rect width="1" height="1" x="10" y="4" fill="currentColor">></rect><rect width="1" height="1" x="11" y="4" fill="currentColor">></rect><rect width="1" height="1" x="12" y="4" fill="currentColor">></rect><rect width="1" height="1" x="13" y="4" fill="currentColor">></rect><rect width="1" height="1" x="14" y="4" fill="currentColor">></rect><rect width="1" height="1" x="15" y="4" fill="currentColor">></rect><rect width="1" height="1" x="16" y="4" fill="currentColor">></rect><rect width="1" height="1" x="5" y="5" fill="currentColor">></rect><rect width="1" height="1" x="16" y="5" fill="currentColor">></rect><rect width="1" height="1" x="3" y="6" fill="currentColor">></rect><rect width="1" height="1" x="4" y="6" fill="currentColor">></rect><rect width="1" height="1" x="5" y="6" fill="currentColor">></rect><rect width="1" height="1" x="6" y="6" fill="currentColor">></rect><rect width="1" height="1" x="16" y="6" fill="currentColor">></rect><rect width="1" height="1" x="2" y="7" fill="currentColor">></rect><rect width="1" height="1" x="16" y="7" fill="currentColor">></rect><rect width="1" height="1" x="1" y="8" fill="currentColor">></rect><rect width="1" height="1" x="4" y="8" fill="currentColor">></rect><rect width="1" height="1" x="5" y="8" fill="currentColor">></rect><rect width="1" height="1" x="6" y="8" fill="currentColor">></rect><rect width="1" height="1" x="16" y="8" fill="currentColor">></rect><rect width="1" height="1" x="1" y="9" fill="currentColor">></rect><rect width="1" height="1" x="3" y="9" fill="currentColor">></rect><rect width="1" height="1" x="5" y="9" fill="currentColor">></rect><rect width="1" height="1" x="16" y="9" fill="currentColor">></rect><rect width="1" height="1" x="1" y="10" fill="currentColor">></rect><rect width="1" height="1" x="3" y="10" fill="currentColor">></rect><rect width="1" height="1" x="5" y="10" fill="currentColor">></rect><rect width="1" height="1" x="16" y="10" fill="currentColor">></rect><rect width="1" height="1" x="1" y="11" fill="currentColor">></rect><rect width="1" height="1" x="3" y="11" fill="currentColor">></rect><rect width="1" height="1" x="5" y="11" fill="currentColor">></rect><rect width="1" height="1" x="16" y="11" fill="currentColor">></rect><rect width="1" height="1" x="1" y="12" fill="currentColor">></rect><rect width="1" height="1" x="3" y="12" fill="currentColor">></rect><rect width="1" height="1" x="5" y="12" fill="currentColor">></rect><rect width="1" height="1" x="16" y="12" fill="currentColor">></rect><rect width="1" height="1" x="1" y="13" fill="currentColor">></rect><rect width="1" height="1" x="4" y="13" fill="currentColor">></rect><rect width="1" height="1" x="5" y="13" fill="currentColor">></rect><rect width="1" height="1" x="6" y="13" fill="currentColor">></rect><rect width="1" height="1" x="16" y="13" fill="currentColor">></rect><rect width="1" height="1" x="2" y="14" fill="currentColor">></rect><rect width="1" height="1" x="16" y="14" fill="currentColor">></rect><rect width="1" height="1" x="3" y="15" fill="currentColor">></rect><rect width="1" height="1" x="4" y="15" fill="currentColor">></rect><rect width="1" height="1" x="5" y="15" fill="currentColor">></rect><rect width="1" height="1" x="6" y="15" fill="currentColor">></rect><rect width="1" height="1" x="16" y="15" fill="currentColor">></rect><rect width="1" height="1" x="5" y="16" fill="currentColor">></rect><rect width="1" height="1" x="16" y="16" fill="currentColor">></rect><rect width="1" height="1" x="6" y="17" fill="currentColor">></rect><rect width="1" height="1" x="7" y="17" fill="currentColor">></rect><rect width="1" height="1" x="14" y="17" fill="currentColor">></rect><rect width="1" height="1" x="15" y="17" fill="currentColor">></rect><rect width="1" height="1" x="8" y="18" fill="currentColor">></rect><rect width="1" height="1" x="9" y="18" fill="currentColor">></rect><rect width="1" height="1" x="10" y="18" fill="currentColor">></rect><rect width="1" height="1" x="11" y="18" fill="currentColor">></rect><rect width="1" height="1" x="12" y="18" fill="currentColor">></rect><rect width="1" height="1" x="13" y="18" fill="currentColor">></rect>
  </pattern></defs><rect width="100%" height="100%" fill="url(#pppixelate-pattern)"></rect></svg>