<svg width="627" height="627" viewBox="0 0 627 627" fill="none" xmlns="http://www.w3.org/2000/svg">
<path d="M0 0H627V627H0V0Z" fill="white"/>
<path d="M52.2773 176.135L137.645 176.129L170.521 176.136C188.555 176.146 202.194 175.847 220.396 180.213C262.377 190.281 283.904 226.495 271.951 268.13C267.107 285.006 254.526 296.175 239.223 304.455C242.72 306.354 246.346 307.633 250.1 309.849C265.246 318.791 275.12 329.749 281.761 346.127C287.92 361.315 287.204 378.855 283.669 394.671C282.879 398.202 279.912 404.853 278.45 408.34C275.674 414.459 270.508 421.071 265.765 425.764C236.006 455.216 188.606 450.995 150.725 450.989L52.2661 451.063C51.9277 439.143 52.2114 425.739 52.2102 413.67L52.2052 342.463C52.2029 287.281 51.7 231.257 52.2773 176.135Z" fill="#201F1F"/>
<path d="M117.755 336.36L117.938 336.356C132.916 336.16 148.154 336.416 163.175 336.329C171.932 336.278 183.627 335.904 191.997 337.009C198.028 337.805 206.289 341.077 210.684 345.457C216.647 351.4 218.791 358.314 218.806 366.608C218.825 376.643 217.185 382.692 210.158 389.893C197.181 400.875 180.154 398.493 164.108 398.483L117.776 398.486C117.55 377.907 117.748 356.959 117.755 336.36Z" fill="white"/>
<path d="M117.845 228.566C132.057 228.711 146.269 228.751 160.481 228.685C169.473 228.653 178.942 228.108 187.81 229.521C211.637 233.317 216.738 262.616 201.684 278.809C189.297 289.782 173.915 286.309 158.692 286.821C145.219 287.273 131.29 286.185 117.833 287.078C117.439 269.537 117.392 246.037 117.845 228.566Z" fill="white"/>
<path d="M431.971 170.151C496.698 167.503 558.292 199.552 568.193 268.554C546.523 269.004 523.775 268.586 501.974 268.656C498.957 261.789 496.86 256.199 492.344 250.15C481.977 236.43 466.99 229.551 450.384 227.063C406.244 220.449 373.36 247.745 367.502 291.235C363.683 319.543 365.502 350.519 383.071 374.336C415.207 417.906 498.61 406.812 505.862 348.506C485.696 348.74 465.464 348.545 445.293 348.595C445.421 331.961 444.854 314.036 445.451 297.546C459.213 298.126 476.2 297.648 490.205 297.641L571.784 297.596C572.066 303.156 571.827 310.393 571.815 316.077L571.796 349.543L571.761 450.877C556.647 450.679 541.232 450.837 526.094 450.844C524.272 441.653 522.607 432.484 520.364 423.38C519.944 421.677 519.439 417.671 518.969 416.499L518.391 416.352C516.083 418.208 511.184 424.744 508.552 427.498C490.436 446.201 464.381 455.47 438.885 456.761C402.875 458.584 367.128 450.173 340.299 424.755C309.769 395.829 299.574 359.644 297.918 318.886C294.915 244.926 334.618 182.057 411.049 171.564C418.044 170.589 424.846 170.369 431.971 170.151Z" fill="#201F1F"/>
<path d="M580.66 177.123L581.308 177.309C583.682 180.383 584.769 187.441 585.397 191.179C588.252 186.186 588.41 182.219 591 177.249L599.544 177.338C599.532 185.733 599.436 194.232 599.814 202.612C597.305 202.704 595.736 202.646 593.243 202.479C593.389 200.211 594.056 191.279 593.578 189.554L593.227 189.636C591.405 193.208 589.713 201.096 588.784 202.241C582.522 204.961 580.456 193.784 578.275 189.057C578.136 192.897 578.572 198.359 578.799 202.337C576.394 202.703 574.714 202.7 572.302 202.736C571.878 196.215 572.282 183.977 572.417 177.396C575.169 177.358 577.917 177.267 580.66 177.123Z" fill="#201F1F"/>
<path d="M548.039 177.345L569.415 177.352L569.327 183.837L562.012 183.743L562.039 196.67L562.101 202.506C560.024 202.702 557.488 202.731 555.372 202.81C555.141 196.649 555.307 189.802 555.149 183.461L547.958 183.639C547.888 181.584 547.985 179.409 548.039 177.345Z" fill="#201F1F"/>
</svg>
