<?xml version="1.0" encoding="UTF-8"?>
<svg xmlns="http://www.w3.org/2000/svg" width="300.0" height="300.0" viewBox="0 0 300.0 300.0" preserveAspectRatio="xMidYMid meet">
  <g transform="translate(1.040850000000006 0.0)">
    <ns0:defs xmlns:ns0="http://www.w3.org/2000/svg" id="defs4">
    <ns0:clipPath id="clipPath5807">
      <ns0:path d="m 163.469,312.592 155.37,0 0,48.506 -155.37,0 0,-48.506 z" id="path5809" />
    </ns0:clipPath>
    <ns0:clipPath id="clipPath5511">
      <ns0:path d="m 163.469,312.592 155.37,0 0,111.187 -155.37,0 0,-111.187 z" id="path5513" />
    </ns0:clipPath>
    <ns0:clipPath id="clipPath5503">
      <ns0:path d="m 166.397,427.17 154.943,0 0,-110.674 -154.943,0 0,110.674 z" id="path5505" />
    </ns0:clipPath>
    <ns0:clipPath id="clipPath5495">
      <ns0:path d="m 178.11,423.779 140.728,0 0,-107.283 -140.728,0 0,107.283 z" id="path5497" />
    </ns0:clipPath>
    <ns0:clipPath id="clipPath5487">
      <ns0:path d="m 178.11,423.779 140.728,0 0,-107.283 -140.728,0 0,107.283 z" id="path5489" />
    </ns0:clipPath>
    <ns0:clipPath id="clipPath5479">
      <ns0:path d="m 178.11,315.993 131.433,0 0,109.912 -131.433,0 0,-109.912 z" id="path5481" />
    </ns0:clipPath>
    <ns0:clipPath id="clipPath5155">
      <ns0:path d="m 535.9,212.355 82.904,0 0,82.904 -82.904,0 0,-82.904 z" id="path5157" />
    </ns0:clipPath>
    <ns0:clipPath id="clipPath5051">
      <ns0:path d="m 507.862,285.896 134.532,0 0,-107.625 -134.532,0 0,107.625 z" id="path5053" />
    </ns0:clipPath>
    <ns0:clipPath id="clipPath5043">
      <ns0:path d="m 514.772,281.678 121.184,0 0,-99.127 -121.184,0 0,99.127 z" id="path5045" />
    </ns0:clipPath>
    <ns0:clipPath id="clipPath5035">
      <ns0:path d="m 514.772,281.678 121.184,0 0,-99.127 -121.184,0 0,99.127 z" id="path5037" />
    </ns0:clipPath>
    <ns0:clipPath id="clipPath5027">
      <ns0:path d="m 508.819,170.094 138.722,0 0,119.04 -138.722,0 0,-119.04 z" id="path5029" />
    </ns0:clipPath>
    <ns0:clipPath id="clipPath4743">
      <ns0:path d="m 550.877,366.519 53.918,0 0,54.295 -53.918,0 0,-54.295 z" id="path4745" />
    </ns0:clipPath>
    <ns0:clipPath id="clipPath4637">
      <ns0:path d="m 508.819,425.197 133.701,0 0,-106.96 -133.701,0 0,106.96 z" id="path4639" />
    </ns0:clipPath>
    <ns0:clipPath id="clipPath4629">
      <ns0:path d="m 508.819,425.197 133.701,0 0,-106.96 -133.701,0 0,106.96 z" id="path4631" />
    </ns0:clipPath>
    <ns0:clipPath id="clipPath4621">
      <ns0:path d="m 508.819,425.197 133.701,0 0,-106.96 -133.701,0 0,106.96 z" id="path4623" />
    </ns0:clipPath>
    <ns0:clipPath id="clipPath4613">
      <ns0:path d="m 508.819,306.157 138.722,0 0,119.04 -138.722,0 0,-119.04 z" id="path4615" />
    </ns0:clipPath>
    <ns0:clipPath id="clipPath4333">
      <ns0:path d="m 218.43,82.792 54.778,0 0,55.16 -54.778,0 0,-55.16 z" id="path4335" />
    </ns0:clipPath>
    <ns0:clipPath id="clipPath4225">
      <ns0:path d="m 175.609,142.468 136.107,0 0,-108.886 -136.107,0 0,108.886 z" id="path4227" />
    </ns0:clipPath>
    <ns0:clipPath id="clipPath4217">
      <ns0:path d="m 182.6,137.953 122.603,0 0,-100.04 -122.603,0 0,100.04 z" id="path4219" />
    </ns0:clipPath>
    <ns0:clipPath id="clipPath4209">
      <ns0:path d="m 182.6,137.953 122.603,0 0,-100.04 -122.603,0 0,100.04 z" id="path4211" />
    </ns0:clipPath>
    <ns0:clipPath id="clipPath4201">
      <ns0:path d="m 177.058,24.818 138.722,0 0,119.04 -138.722,0 0,-119.04 z" id="path4203" />
    </ns0:clipPath>
    <ns0:clipPath id="clipPath3985">
      <ns0:path d="m 177.058,163.716 138.722,0 0,119.04 -138.722,0 0,-119.04 z" id="path3987" />
    </ns0:clipPath>
    <ns0:clipPath id="clipPath3027">
      <ns0:path d="m 7.211,464.173 131.687,0 0,113.552 -131.687,0 0,-113.552 z" id="path3029" />
    </ns0:clipPath>
    <ns0:clipPath id="clipPath3013">
      <ns0:path d="m -9.50394,604.779 151.98594,0 0,-614.28303 -151.98594,0 0,614.28303 z" id="path3015" />
    </ns0:clipPath>
    <ns0:clipPath id="clipPath2999">
      <ns0:path d="m 0,0 841.89,0 0,595.276 L 0,595.276 0,0 z" id="path3001" />
    </ns0:clipPath>
    <ns0:clipPath id="clipPath5027-9">
      <ns0:path d="m 508.819,170.094 138.722,0 0,119.04 -138.722,0 0,-119.04 z" id="path5029-4" />
    </ns0:clipPath>
    <ns0:clipPath id="clipPath5035-8">
      <ns0:path d="m 514.772,281.678 121.184,0 0,-99.127 -121.184,0 0,99.127 z" id="path5037-8" />
    </ns0:clipPath>
    <ns0:clipPath id="clipPath5043-2">
      <ns0:path d="m 514.772,281.678 121.184,0 0,-99.127 -121.184,0 0,99.127 z" id="path5045-4" />
    </ns0:clipPath>
    <ns0:clipPath id="clipPath5051-5">
      <ns0:path d="m 507.862,285.896 134.532,0 0,-107.625 -134.532,0 0,107.625 z" id="path5053-5" />
    </ns0:clipPath>
    <ns0:clipPath id="clipPath5155-1">
      <ns0:path d="m 535.9,212.355 82.904,0 0,82.904 -82.904,0 0,-82.904 z" id="path5157-7" />
    </ns0:clipPath>
  </ns0:defs>
  <ns0:metadata xmlns:dc="http://purl.org/dc/elements/1.1/" xmlns:ns0="http://www.w3.org/2000/svg" xmlns:ns2="http://creativecommons.org/ns#" xmlns:rdf="http://www.w3.org/1999/02/22-rdf-syntax-ns#" id="metadata7">
    <rdf:RDF>
      <ns2:Work rdf:about="">
        <dc:format>image/svg+xml</dc:format>
        <dc:type rdf:resource="http://purl.org/dc/dcmitype/StillImage" />
        <dc:title />
      </ns2:Work>
    </rdf:RDF>
  </ns0:metadata>
  <ns0:g xmlns:ns0="http://www.w3.org/2000/svg" transform="translate(-339.91671,-441.36686)" id="layer1">
    <ns0:g transform="matrix(5.4492933,0,0,-5.4492933,-2658.0338,1976.3129)" id="g5151">
      <ns0:g clip-path="url(#clipPath5155-1)" id="g5153">
        <ns0:g transform="translate(554.022,259.707)" id="g5159">
          <ns0:path d="M 0,0 C 0.482,-0.107 0.634,-0.046 0.712,0.295 L 0.83,0.269 0.513,-1.147 0.394,-1.121 c 0.065,0.286 0.019,0.473 -0.533,0.595 l -3.049,0.683 -0.129,-0.58 c -0.12,-0.536 -0.021,-0.815 0.388,-0.944 l -0.025,-0.118 -0.914,0.204 0.026,0.119 c 0.062,0.045 0.111,0.1 0.16,0.191 0.042,0.086 0.083,0.209 0.121,0.376 l 0.468,2.093 c 0.078,0.348 0.073,0.518 -0.004,0.668 L -3.069,2.292 -2.156,2.087 -2.173,2.01 C -2.524,2.008 -2.791,1.929 -2.933,1.294 L -3.069,0.687" id="path5161" style="fill:#231f20;fill-opacity:1;fill-rule:nonzero;stroke:none" />
        </ns0:g>
        <ns0:g transform="translate(554.23801,264.254)" id="g5163">
          <ns0:path d="m 0,0 1.067,-0.521 c 0.443,-0.216 0.638,-0.176 0.791,0.14 l 0.11,-0.054 -0.65,-1.33 -0.109,0.053 c 0.139,0.283 0.108,0.464 -0.38,0.703 l -2.294,1.12 c -0.437,0.212 -0.629,0.195 -0.789,-0.133 l -0.108,0.054 0.648,1.329 0.109,-0.054 C -1.746,1.019 -1.696,0.828 -1.227,0.598 L -0.18,0.088 0.798,2.092 -0.25,2.603 c -0.448,0.22 -0.631,0.189 -0.784,-0.126 l -0.109,0.054 0.642,1.317 0.109,-0.054 C -0.546,3.48 -0.448,3.305 -0.011,3.092 L 2.283,1.973 C 2.72,1.76 2.918,1.79 3.071,2.105 L 3.18,2.052 2.538,0.735 2.429,0.788 C 2.57,1.076 2.533,1.246 2.044,1.485 l -1.066,0.52" id="path5165" style="fill:#231f20;fill-opacity:1;fill-rule:nonzero;stroke:none" />
        </ns0:g>
        <ns0:g transform="translate(559.08099,270.989)" id="g5167">
          <ns0:path d="m 0,0 -0.078,-0.093 c -0.323,0.158 -0.398,0.136 -0.667,-0.188 l -0.65,-0.78 1.125,-0.938 c 0.154,-0.129 0.26,-0.124 0.407,0.052 l 0.458,0.55 c 0.383,0.461 0.458,0.594 0.201,1.124 l 0.078,0.094 0.469,-0.632 -1.889,-2.269 -0.094,0.077 c 0.206,0.247 0.22,0.421 -0.197,0.769 l -1.967,1.639 c -0.389,0.324 -0.573,0.328 -0.797,0.06 L -3.695,-0.459 -1.804,1.81 -1.277,1.371 -1.328,1.31 C -1.732,1.527 -1.852,1.441 -2.141,1.094 l -0.754,-0.906 1.345,-1.121 0.733,0.879 c 0.178,0.214 0.209,0.329 -0.025,0.597 l 0.079,0.093" id="path5169" style="fill:#231f20;fill-opacity:1;fill-rule:nonzero;stroke:none" />
        </ns0:g>
        <ns0:g transform="translate(566.755,275.605)" id="g5171">
          <ns0:path d="m 0,0 c -0.118,-0.592 -0.387,-0.989 -0.86,-1.256 -0.865,-0.488 -1.559,-0.074 -1.905,0.542 l -0.99,1.758 c -0.267,0.473 -0.444,0.497 -0.724,0.338 l -0.06,0.106 1.29,0.726 0.059,-0.106 C -3.483,1.943 -3.541,1.771 -3.285,1.317 l 1.017,-1.807 c 0.31,-0.549 0.836,-0.769 1.439,-0.429 0.412,0.232 0.657,0.641 0.688,1.168 l -1.21,2.149 C -1.582,2.809 -1.757,2.899 -2.05,2.75 l -0.059,0.107 1.257,0.708 0.06,-0.106 C -1.091,3.29 -1.12,3.094 -0.877,2.665 L 0.376,0.44 C 0.638,-0.026 0.825,-0.053 1.099,0.102 L 1.158,-0.004 0.281,-0.499" id="path5173" style="fill:#231f20;fill-opacity:1;fill-rule:nonzero;stroke:none" />
        </ns0:g>
        <ns0:g transform="translate(573.25101,277.22501)" id="g5175">
          <ns0:path d="m 0,0 -0.118,-0.03 -3.681,2.732 -0.014,-0.003 0.714,-2.785 c 0.102,-0.402 0.298,-0.507 0.659,-0.414 l 0.03,-0.118 -1.205,-0.309 -0.03,0.118 c 0.331,0.086 0.465,0.23 0.317,0.805 l -0.594,2.32 c -0.113,0.443 -0.295,0.663 -0.776,0.583 l -0.032,0.118 1.02,0.261 3.27,-2.454 0.013,0.004 -0.594,2.32 c -0.132,0.519 -0.304,0.614 -0.651,0.527 l -0.03,0.117 1.199,0.307 0.029,-0.117 C -0.862,3.882 -0.945,3.691 -0.827,3.227" id="path5177" style="fill:#231f20;fill-opacity:1;fill-rule:nonzero;stroke:none" />
        </ns0:g>
        <ns0:g transform="translate(576.591,278.31599)" id="g5179">
          <ns0:path d="m 0,0 c 0.025,-0.499 0.154,-0.643 0.496,-0.626 l 0.005,-0.121 -1.471,-0.074 -0.005,0.122 c 0.335,0.017 0.458,0.152 0.432,0.672 l -0.128,2.55 C -0.695,3.037 -0.816,3.167 -1.166,3.149 L -1.172,3.271 0.298,3.345 0.304,3.223 C -0.039,3.206 -0.152,3.043 -0.127,2.55" id="path5181" style="fill:#231f20;fill-opacity:1;fill-rule:nonzero;stroke:none" />
        </ns0:g>
        <ns0:g transform="translate(580.73,277.289)" id="g5183">
          <ns0:path d="M 0,0 -0.113,0.016 -0.931,3.478 C -1.056,3.999 -1.131,4.204 -1.51,4.27 L -1.495,4.389 -0.02,4.194 -0.037,4.073 C -0.326,4.112 -0.489,3.974 -0.41,3.639 L 0.233,0.886 1.511,3.289 C 1.684,3.62 1.65,3.849 1.282,3.898 L 1.299,4.018 2.482,3.861 2.464,3.733 C 2.16,3.774 1.902,3.569 1.623,3.044" id="path5185" style="fill:#231f20;fill-opacity:1;fill-rule:nonzero;stroke:none" />
        </ns0:g>
        <ns0:g transform="translate(587.19099,277.21001)" id="g5187">
          <ns0:path d="m 0,0 -0.114,0.042 c 0.039,0.359 -0.007,0.421 -0.402,0.566 L -1.47,0.957 -1.973,-0.42 c -0.07,-0.188 -0.03,-0.286 0.185,-0.365 l 0.672,-0.245 c 0.564,-0.207 0.715,-0.231 1.128,0.189 l 0.113,-0.042 -0.437,-0.654 -2.773,1.014 0.042,0.114 c 0.302,-0.11 0.47,-0.066 0.657,0.444 l 0.879,2.404 C -1.332,2.916 -1.39,3.089 -1.72,3.21 L -1.678,3.324 1.096,2.31 0.86,1.665 0.786,1.692 C 0.853,2.147 0.731,2.229 0.308,2.384 L -0.8,2.79 -1.401,1.144 -0.327,0.752 C -0.065,0.656 0.052,0.666 0.226,0.975 L 0.341,0.934" id="path5189" style="fill:#231f20;fill-opacity:1;fill-rule:nonzero;stroke:none" />
        </ns0:g>
        <ns0:g transform="translate(591.84399,277.48599)" id="g5191">
          <ns0:path d="M 0,0 0.357,-0.235 C 0.883,-0.582 1.009,-1.128 0.711,-1.582 0.453,-1.975 -0.033,-2.221 -0.613,-1.839 L -1.031,-1.564 0,0 z m -1.125,-1.707 0.275,-0.181 c 0.627,-0.413 0.274,-1.337 0.401,-2.534 l 0.7,-0.46 0.066,0.102 c -0.539,0.415 -0.012,1.685 -0.378,2.517 0.6,-0.181 1.01,0.002 1.258,0.378 0.298,0.455 0.22,1.14 -0.55,1.647 L -0.755,0.686 -0.822,0.584 c 0.275,-0.18 0.333,-0.338 0.037,-0.786 l -1.412,-2.144 c -0.302,-0.459 -0.482,-0.46 -0.745,-0.287 l -0.067,-0.101 1.23,-0.811 0.067,0.101 c -0.281,0.186 -0.306,0.382 -0.03,0.799" id="path5193" style="fill:#231f20;fill-opacity:1;fill-rule:nonzero;stroke:none" />
        </ns0:g>
        <ns0:g transform="translate(597.244,272.067)" id="g5195">
          <ns0:path d="m 0,0 -0.085,0.086 c 0.386,0.471 0.254,0.943 -0.036,1.238 -0.301,0.306 -0.686,0.36 -0.955,0.094 -0.54,-0.532 0.049,-1.416 0.042,-2.245 -0.003,-0.405 -0.136,-0.636 -0.33,-0.827 -0.458,-0.451 -1.196,-0.445 -1.647,0.013 -0.306,0.311 -0.409,0.721 -0.505,0.818 -0.049,0.051 -0.122,0.051 -0.223,0.001 l -0.085,0.088 0.791,0.777 0.083,-0.087 c -0.533,-0.536 -0.275,-1.156 -0.025,-1.41 0.347,-0.352 0.782,-0.385 1.097,-0.075 0.504,0.497 -0.034,1.513 -0.028,2.16 0.002,0.353 0.135,0.625 0.365,0.852 0.449,0.441 1.069,0.42 1.536,-0.053 C 0.301,1.119 0.335,0.861 0.445,0.749 0.49,0.704 0.511,0.703 0.602,0.753 L 0.681,0.671" id="path5197" style="fill:#231f20;fill-opacity:1;fill-rule:nonzero;stroke:none" />
        </ns0:g>
        <ns0:g transform="translate(597.591,267.68401)" id="g5199">
          <ns0:path d="m 0,0 c -0.412,-0.285 -0.465,-0.47 -0.27,-0.753 l -0.1,-0.068 -0.839,1.21 0.1,0.069 C -0.918,0.182 -0.739,0.149 -0.31,0.447 L 1.788,1.9 c 0.422,0.293 0.47,0.465 0.27,0.753 L 2.158,2.721 2.997,1.511 2.898,1.442 C 2.702,1.724 2.503,1.734 2.097,1.453" id="path5201" style="fill:#231f20;fill-opacity:1;fill-rule:nonzero;stroke:none" />
        </ns0:g>
        <ns0:g transform="translate(599.631,263.968)" id="g5203">
          <ns0:path d="m 0,0 c -0.449,-0.206 -0.534,-0.348 -0.389,-0.666 l -0.11,-0.051 -0.603,1.319 0.11,0.052 c 0.121,-0.267 0.27,-0.388 0.785,-0.152 L 2.633,1.803 2.386,2.342 C 2.157,2.843 1.909,3.005 1.504,2.859 L 1.453,2.969 2.305,3.36 2.355,3.249 C 2.334,3.176 2.327,3.103 2.343,3 2.363,2.906 2.403,2.783 2.475,2.627 L 3.368,0.677 C 3.518,0.353 3.625,0.222 3.776,0.149 L 3.83,0.032 2.978,-0.358 2.945,-0.286 c 0.28,0.214 0.444,0.439 0.173,1.031 L 2.859,1.309" id="path5205" style="fill:#231f20;fill-opacity:1;fill-rule:nonzero;stroke:none" />
        </ns0:g>
        <ns0:g transform="translate(601.246,258.987)" id="g5207">
          <ns0:path d="m 0,0 c -0.483,-0.104 -0.616,-0.234 -0.543,-0.576 l -0.118,-0.026 -0.313,1.461 0.119,0.026 C -0.79,0.576 -0.688,0.409 -0.114,0.531 L 1.144,0.8 2.289,1.938 C 2.671,2.312 2.736,2.451 2.682,2.767 L 2.801,2.793 3.136,1.227 3.017,1.202 C 2.923,1.643 2.759,1.658 2.548,1.446 L 1.501,0.394 2.643,-0.026 c 0.358,-0.129 0.654,-0.08 0.582,0.257 L 3.344,0.255 3.579,-0.842 3.46,-0.868 C 3.373,-0.564 3.267,-0.477 2.869,-0.329 L 1.257,0.269" id="path5209" style="fill:#231f20;fill-opacity:1;fill-rule:nonzero;stroke:none" />
        </ns0:g>
        <ns0:g transform="translate(552.65601,248.59599)" id="g5211">
          <ns0:path d="M 0,0 C 1.141,0.328 2.074,-0.043 2.341,-0.97 2.574,-1.78 2.07,-2.64 0.833,-2.997 -0.121,-3.271 -1.211,-3.027 -1.496,-2.037 -1.751,-1.151 -1.147,-0.33 0,0 m -0.166,0.607 c -1.169,-0.336 -1.817,-1.52 -1.48,-2.694 0.339,-1.175 1.519,-1.84 2.687,-1.504 1.147,0.331 1.782,1.509 1.446,2.677 -0.346,1.202 -1.485,1.858 -2.653,1.521" id="path5213" style="fill:#231f20;fill-opacity:1;fill-rule:nonzero;stroke:none" />
        </ns0:g>
        <ns0:g transform="translate(554.121,241.25101)" id="g5215">
          <ns0:path d="m 0,0 c -0.435,-0.248 -0.504,-0.428 -0.333,-0.727 l -0.106,-0.061 -0.731,1.28 0.106,0.061 C -0.893,0.255 -0.71,0.22 -0.269,0.471 L 1.948,1.736 C 2.395,1.992 2.453,2.163 2.283,2.462 L 2.388,2.523 3.78,0.081 3.147,-0.279 3.102,-0.199 C 3.486,0.137 3.451,0.255 3.231,0.642 L 2.714,1.548 1.223,0.698 1.752,-0.228 c 0.152,-0.266 0.345,-0.288 0.649,-0.157 l 0.056,-0.098 -1,-0.571 -0.056,0.099 c 0.248,0.158 0.325,0.366 0.184,0.616 L 1.05,0.599" id="path5217" style="fill:#231f20;fill-opacity:1;fill-rule:nonzero;stroke:none" />
        </ns0:g>
        <ns0:g transform="translate(561.978,233.353)" id="g5219">
          <ns0:path d="m 0,0 -0.095,0.076 c 0.156,0.326 0.133,0.399 -0.193,0.666 l -0.784,0.644 -0.93,-1.133 c -0.127,-0.155 -0.122,-0.261 0.056,-0.406 l 0.552,-0.453 c 0.464,-0.381 0.599,-0.454 1.127,-0.193 l 0.094,-0.078 -0.629,-0.473 -2.283,1.873 0.077,0.093 c 0.249,-0.204 0.423,-0.217 0.767,0.203 l 1.623,1.979 c 0.322,0.393 0.324,0.575 0.054,0.798 L -0.488,3.689 1.796,1.818 1.361,1.287 1.3,1.337 C 1.514,1.743 1.425,1.862 1.077,2.147 L 0.166,2.896 -0.946,1.541 -0.061,0.815 C 0.155,0.639 0.268,0.61 0.535,0.845 L 0.629,0.767" id="path5221" style="fill:#231f20;fill-opacity:1;fill-rule:nonzero;stroke:none" />
        </ns0:g>
        <ns0:g transform="translate(566.644,233.21899)" id="g5223">
          <ns0:path d="M 0,0 0.708,-0.327 C 1.885,-0.867 1.919,-1.97 1.509,-2.86 1.042,-3.873 0.197,-4.253 -0.725,-3.83 l -0.382,0.177 c -0.345,0.159 -0.423,0.329 -0.157,0.907 L 0,0 z M -1.819,-2.648 C -2.03,-3.11 -2.214,-3.183 -2.513,-3.045 l -0.05,-0.11 1.766,-0.815 c 1.46,-0.671 2.45,-0.081 2.88,0.854 0.447,0.968 0.211,2.233 -1.21,2.889 L -0.848,0.565 -0.9,0.455 c 0.312,-0.144 0.356,-0.339 0.15,-0.785" id="path5225" style="fill:#231f20;fill-opacity:1;fill-rule:nonzero;stroke:none" />
        </ns0:g>
        <ns0:g transform="translate(572.034,227.987)" id="g5227">
          <ns0:path d="m 0,0 c -0.108,-0.489 -0.022,-0.663 0.313,-0.737 l -0.026,-0.118 -1.438,0.316 0.026,0.119 c 0.329,-0.072 0.481,0.027 0.594,0.537 l 0.549,2.491 c 0.11,0.503 0.028,0.66 -0.314,0.734 L -0.27,3.463 1.168,3.145 1.142,3.028 C 0.807,3.1 0.654,2.974 0.548,2.491" id="path5229" style="fill:#231f20;fill-opacity:1;fill-rule:nonzero;stroke:none" />
        </ns0:g>
        <ns0:g transform="translate(579.442,226.66499)" id="g5231">
          <ns0:path d="M 0,0 -0.121,-0.001 -3.048,3.528 -3.064,3.527 -3.031,0.653 c 0.004,-0.414 0.17,-0.562 0.542,-0.558 l 0.002,-0.123 -1.245,-0.012 -0.002,0.121 c 0.344,0.003 0.508,0.113 0.5,0.706 l -0.025,2.394 c -0.006,0.459 -0.13,0.713 -0.617,0.751 l -0.002,0.123 1.053,0.011 2.593,-3.161 0.015,0.001 -0.027,2.395 c -0.005,0.537 -0.151,0.67 -0.508,0.666 l 0,0.122 1.235,0.013 0.002,-0.121 C 0.085,3.976 -0.043,3.81 -0.037,3.333" id="path5233" style="fill:#231f20;fill-opacity:1;fill-rule:nonzero;stroke:none" />
        </ns0:g>
        <ns0:g transform="translate(583.728,229.602)" id="g5235">
          <ns0:path d="m 0,0 -0.461,1.675 0.393,0.108 C 0.573,1.959 0.973,1.692 1.11,1.194 1.246,0.699 0.985,0.27 0.406,0.112 L 0,0 z m -0.145,-1.522 c 0.133,-0.483 0.057,-0.66 -0.275,-0.751 l 0.033,-0.118 1.819,0.502 c 0.744,0.205 1.165,0.721 1.001,1.314 C 2.289,-0.044 1.75,0.297 1.109,0.254 L 1.106,0.266 C 1.6,0.596 1.771,0.947 1.653,1.382 1.514,1.885 0.966,2.231 0.015,1.968 L -1.474,1.559 -1.442,1.443 c 0.33,0.09 0.482,-0.002 0.621,-0.505 l 0.676,-2.46 z m 0.187,1.371 0.373,0.102 C 1.11,0.141 1.66,-0.13 1.82,-0.709 1.979,-1.287 1.673,-1.66 1.272,-1.77 L 0.949,-1.861 c -0.31,-0.084 -0.442,0.02 -0.588,0.551" id="path5237" style="fill:#231f20;fill-opacity:1;fill-rule:nonzero;stroke:none" />
        </ns0:g>
        <ns0:g transform="translate(592.058,231.431)" id="g5239">
          <ns0:path d="m 0,0 c -0.109,-0.592 -0.371,-0.995 -0.84,-1.267 -0.858,-0.502 -1.558,-0.099 -1.915,0.512 L -3.77,0.988 C -4.045,1.456 -4.223,1.476 -4.5,1.315 L -4.561,1.419 -3.284,2.165 -3.222,2.06 C -3.512,1.891 -3.568,1.717 -3.305,1.267 l 1.045,-1.79 c 0.318,-0.544 0.846,-0.756 1.445,-0.407 0.409,0.238 0.647,0.651 0.671,1.178 l -1.245,2.13 C -1.625,2.786 -1.802,2.873 -2.093,2.72 l -0.061,0.105 1.246,0.728 0.064,-0.105 C -1.143,3.275 -1.167,3.077 -0.92,2.652 L 0.368,0.447 C 0.638,-0.016 0.824,-0.039 1.097,0.12 L 1.158,0.016 0.289,-0.493" id="path5241" style="fill:#231f20;fill-opacity:1;fill-rule:nonzero;stroke:none" />
        </ns0:g>
        <ns0:g transform="translate(593.711,236.98399)" id="g5243">
          <ns0:path d="M 0,0 0.3,0.304 C 0.743,0.753 1.304,0.772 1.691,0.389 2.027,0.058 2.171,-0.466 1.685,-0.959 L 1.333,-1.316 0,0 z m 1.455,-1.437 0.231,0.236 c 0.528,0.534 1.365,0.008 2.565,-0.1 L 4.837,-0.706 4.75,-0.619 C 4.239,-1.069 3.096,-0.303 2.207,-0.501 2.502,0.052 2.403,0.491 2.082,0.807 1.696,1.189 1.007,1.245 0.36,0.589 l -1.181,-1.197 0.087,-0.085 c 0.231,0.234 0.398,0.261 0.78,-0.116 L 1.873,-2.611 C 2.264,-2.998 2.231,-3.175 2.01,-3.399 L 2.097,-3.484 3.13,-2.436 3.044,-2.351 C 2.809,-2.589 2.611,-2.576 2.256,-2.224" id="path5245" style="fill:#231f20;fill-opacity:1;fill-rule:nonzero;stroke:none" />
        </ns0:g>
        <ns0:g transform="translate(601.897,241.25101)" id="g5247">
          <ns0:path d="m 0,0 c -0.065,-0.229 -0.415,-0.871 -0.511,-1.03 -0.938,-1.538 -2.177,-1.487 -2.983,-0.995 -1.24,0.754 -1.363,2.119 -0.839,2.979 0.301,0.496 0.581,0.584 0.746,0.853 0.066,0.109 0.065,0.176 0.002,0.265 l 0.068,0.11 1.031,-0.627 -0.06,-0.098 C -3.267,1.77 -3.909,1.349 -4.199,0.872 c -0.438,-0.72 -0.141,-1.645 0.818,-2.229 1.025,-0.626 2.155,-0.476 2.66,0.354 0.154,0.251 0.297,0.623 -0.016,0.814 L -1.114,0.04 C -1.541,0.3 -1.754,0.297 -1.929,0.009 l -0.082,-0.134 -0.104,0.063 0.864,1.417 0.103,-0.063 C -1.356,0.948 -1.247,0.758 -0.942,0.572" id="path5249" style="fill:#231f20;fill-opacity:1;fill-rule:nonzero;stroke:none" />
        </ns0:g>
        <ns0:g transform="translate(601.78101,245.978)" id="g5251">
          <ns0:path d="m 0,0 1.14,-0.329 c 0.474,-0.137 0.659,-0.063 0.756,0.273 l 0.117,-0.033 -0.41,-1.422 -0.117,0.033 c 0.088,0.302 0.025,0.477 -0.496,0.627 l -2.452,0.708 c -0.468,0.133 -0.653,0.084 -0.755,-0.266 l -0.117,0.033 0.411,1.422 0.116,-0.034 C -1.897,0.703 -1.815,0.524 -1.313,0.379 l 1.12,-0.324 0.619,2.143 -1.119,0.324 C -1.174,2.66 -1.349,2.599 -1.446,2.263 L -1.563,2.296 -1.157,3.705 -1.04,3.67 C -1.136,3.334 -1.011,3.178 -0.543,3.044 L 1.909,2.337 C 2.376,2.202 2.565,2.265 2.664,2.601 L 2.78,2.569 2.373,1.161 2.257,1.194 c 0.089,0.31 0.024,0.47 -0.499,0.62 l -1.14,0.33" id="path5253" style="fill:#231f20;fill-opacity:1;fill-rule:nonzero;stroke:none" />
        </ns0:g>
        <ns0:g transform="translate(552.291,253.78)" id="g5255">
          <ns0:path d="m 0,0 c -0.001,-0.2 -0.164,-0.36 -0.363,-0.359 -0.199,0.001 -0.359,0.164 -0.358,0.362 0.001,0.201 0.164,0.36 0.363,0.36 C -0.16,0.361 0.001,0.199 0,0" id="path5257" style="fill:#231f20;fill-opacity:1;fill-rule:nonzero;stroke:none" />
        </ns0:g>
        <ns0:g transform="translate(603.508,253.77299)" id="g5259">
          <ns0:path d="m 0,0 c -0.002,-0.199 -0.165,-0.361 -0.364,-0.358 -0.199,0 -0.36,0.162 -0.359,0.362 0.002,0.199 0.165,0.359 0.363,0.358 C -0.161,0.361 0.001,0.199 0,0" id="path5261" style="fill:#231f20;fill-opacity:1;fill-rule:nonzero;stroke:none" />
        </ns0:g>
        <ns0:g transform="translate(588.03999,235.18401)" id="g5263">
          <ns0:path d="M 0,0 C 0.289,0.149 0.553,0.351 0.83,0.523 1.066,0.665 1.303,0.81 1.539,0.955 1.75,1.112 1.943,1.292 2.162,1.442 2.389,1.606 2.614,1.773 2.842,1.937 2.89,1.981 2.936,2.028 2.984,2.075 3.037,2.102 3.09,2.132 3.142,2.163 3.336,2.31 3.533,2.485 3.714,2.653 3.859,2.787 3.968,2.942 4.12,3.077 4.271,3.214 4.438,3.339 4.593,3.476 4.658,3.535 4.693,3.6 4.751,3.658 4.876,3.78 5.005,3.897 5.119,4.027 5.198,4.126 5.278,4.222 5.358,4.319 5.641,4.589 5.896,4.888 6.133,5.192 6.325,5.42 6.518,5.651 6.709,5.88 6.836,6.057 6.962,6.237 7.087,6.416 7.153,6.487 7.219,6.557 7.287,6.629 7.493,6.916 7.7,7.203 7.905,7.492 7.966,7.59 8.002,7.692 8.06,7.793 8.105,7.859 8.151,7.926 8.196,7.989 8.237,8.073 8.275,8.158 8.315,8.241 8.454,8.479 8.585,8.718 8.714,8.959 8.823,9.145 8.932,9.33 9.04,9.516 c 0.09,0.189 0.147,0.386 0.231,0.576 0.095,0.197 0.187,0.396 0.281,0.594 0.318,0.853 0.629,1.708 0.884,2.589 0.019,0.104 0.037,0.211 0.056,0.315 0.069,0.323 0.156,0.655 0.221,0.985 0.02,0.169 0.038,0.339 0.057,0.509 0.047,0.276 0.102,0.573 0.14,0.853 0.019,0.225 0.037,0.452 0.053,0.679 0.018,0.087 0.034,0.176 0.052,0.265 0.011,0.189 0.02,0.379 0.032,0.568 0.01,0.094 0.039,0.183 0.044,0.283 0,0.132 -0.004,0.266 -0.006,0.397 0.06,0.855 0.075,1.784 0.028,2.63 -0.026,0.443 -0.128,0.877 -0.173,1.308 -0.05,0.457 -0.085,0.908 -0.176,1.343 -0.252,1.195 -0.585,2.369 -1.006,3.485 -0.061,0.16 -0.153,0.308 -0.219,0.466 -0.137,0.332 -0.291,0.64 -0.451,0.956 -0.054,0.092 -0.105,0.181 -0.159,0.272 -0.131,0.277 -0.222,0.577 -0.367,0.846 -0.09,0.166 -0.198,0.306 -0.303,0.466 -0.08,0.173 -0.162,0.345 -0.243,0.518 -0.302,0.47 -0.616,0.931 -0.931,1.392 -0.119,0.14 -0.238,0.277 -0.357,0.415 -0.133,0.171 -0.265,0.342 -0.397,0.513 -0.126,0.128 -0.266,0.234 -0.379,0.376 -0.064,0.082 -0.102,0.169 -0.17,0.251 -0.098,0.108 -0.197,0.217 -0.297,0.324 -0.059,0.055 -0.12,0.108 -0.177,0.164 -0.152,0.171 -0.293,0.347 -0.45,0.516 -0.137,0.128 -0.272,0.257 -0.409,0.385 -0.132,0.132 -0.262,0.265 -0.394,0.398 -0.181,0.141 -0.364,0.282 -0.548,0.422 -0.186,0.165 -0.375,0.328 -0.563,0.494 -0.124,0.093 -0.259,0.159 -0.385,0.242 -0.161,0.117 -0.324,0.235 -0.485,0.352 -0.122,0.085 -0.225,0.179 -0.342,0.276 -0.088,0.052 -0.174,0.106 -0.262,0.16 -0.117,0.083 -0.234,0.166 -0.352,0.249 -0.386,0.236 -0.8,0.415 -1.201,0.623 -0.146,0.091 -0.293,0.183 -0.437,0.275 -0.254,0.128 -0.506,0.255 -0.757,0.381 -0.206,0.1 -0.42,0.171 -0.632,0.254 -0.103,0.057 -0.208,0.114 -0.31,0.172 -0.08,0.029 -0.162,0.056 -0.241,0.085 -0.127,0.056 -0.253,0.114 -0.381,0.17 -0.397,0.144 -0.813,0.247 -1.223,0.373 -0.195,0.059 -0.396,0.138 -0.591,0.195 -0.429,0.125 -0.857,0.191 -1.3,0.29 -0.284,0.066 -0.582,0.147 -0.872,0.196 -0.188,0.027 -0.377,0.051 -0.563,0.078 -0.313,0.065 -0.661,0.121 -0.989,0.16 -0.123,0.003 -0.251,0.007 -0.376,0.01 -0.087,0.012 -0.175,0.023 -0.264,0.035 -0.171,0.003 -0.341,0.006 -0.513,0.009 -0.381,0.026 -0.787,0.058 -1.191,0.06 -0.156,-0.045 -0.375,-0.018 -0.549,-0.017 -0.207,0 -0.416,0 -0.625,-0.001 -0.056,-0.01 -0.113,-0.018 -0.17,-0.027 -0.144,-0.004 -0.289,-0.008 -0.433,-0.011 -0.078,-0.018 -0.154,-0.037 -0.231,-0.055 -0.075,-0.011 -0.15,-0.019 -0.226,-0.028 -0.072,0 -0.146,0.006 -0.208,-0.018 -0.043,-0.007 -0.087,-0.013 -0.132,-0.018 -0.093,0 -0.191,0.003 -0.265,-0.036 -0.204,10e-4 -0.505,-0.025 -0.662,-0.111 -0.045,-0.005 -0.089,-0.011 -0.133,-0.018 -0.128,0.002 -0.299,-0.015 -0.398,-0.074 -0.334,0.003 -0.611,-0.139 -0.913,-0.212 -0.161,-0.037 -0.353,-0.055 -0.491,-0.139 -0.131,0.001 -0.275,-0.031 -0.378,-0.092 -0.211,10e-4 -0.394,-0.121 -0.575,-0.191 -0.106,-0.041 -0.239,-0.043 -0.334,-0.107 -0.211,0.001 -0.397,-0.121 -0.571,-0.199 -0.12,-0.051 -0.242,-0.101 -0.361,-0.152 -0.65,-0.274 -1.286,-0.584 -1.91,-0.909 -0.105,-0.069 -0.211,-0.135 -0.317,-0.202 -0.747,-0.379 -1.487,-0.795 -2.149,-1.334 -0.196,-0.14 -0.391,-0.279 -0.587,-0.419 -0.101,-0.092 -0.205,-0.184 -0.306,-0.275 -0.19,-0.14 -0.389,-0.259 -0.572,-0.415 -0.377,-0.318 -0.731,-0.675 -1.08,-1.02 -0.215,-0.194 -0.43,-0.389 -0.645,-0.583 -0.074,-0.085 -0.148,-0.169 -0.22,-0.255 -0.098,-0.091 -0.196,-0.182 -0.293,-0.272 -0.154,-0.157 -0.263,-0.346 -0.411,-0.5 -0.13,-0.131 -0.259,-0.255 -0.376,-0.4 -0.052,-0.072 -0.108,-0.146 -0.161,-0.217 -0.226,-0.255 -0.447,-0.505 -0.641,-0.779 -0.135,-0.208 -0.268,-0.416 -0.402,-0.625 -0.192,-0.248 -0.409,-0.569 -0.559,-0.84 -0.044,-0.089 -0.087,-0.178 -0.131,-0.267 -0.13,-0.215 -0.259,-0.431 -0.39,-0.646 -0.113,-0.225 -0.189,-0.466 -0.302,-0.691 -0.053,-0.089 -0.104,-0.174 -0.157,-0.262 -0.11,-0.203 -0.202,-0.407 -0.319,-0.608 -0.053,-0.131 -0.107,-0.261 -0.161,-0.393 -0.065,-0.133 -0.128,-0.268 -0.193,-0.402 -0.052,-0.155 -0.105,-0.309 -0.157,-0.464 -0.063,-0.167 -0.128,-0.332 -0.192,-0.498 -0.321,-1.037 -0.59,-2.077 -0.81,-3.175 -0.019,-0.207 -0.037,-0.414 -0.055,-0.621 -0.029,-0.24 -0.111,-0.501 -0.131,-0.738 -0.016,-0.184 -0.009,-0.395 -0.061,-0.568 -0.013,-0.145 -0.026,-0.291 -0.04,-0.434 -0.033,-0.888 -0.008,-1.733 0.014,-2.593 0.012,-0.412 0.093,-0.827 0.129,-1.232 0.01,-0.176 0.018,-0.351 0.027,-0.529 0.057,-0.553 0.15,-1.114 0.236,-1.665 0.041,-0.139 0.079,-0.279 0.118,-0.42 0.092,-0.434 0.19,-0.854 0.315,-1.271 0.037,-0.093 0.074,-0.189 0.11,-0.285 0.023,-0.099 0.048,-0.198 0.071,-0.296 0.164,-0.461 0.328,-0.921 0.491,-1.381 0.081,-0.172 0.162,-0.349 0.242,-0.52 0.047,-0.115 0.071,-0.244 0.12,-0.356 0.125,-0.294 0.307,-0.559 0.457,-0.843 0.118,-0.231 0.257,-0.452 0.374,-0.684 0.033,-0.083 0.067,-0.167 0.102,-0.25 0.04,-0.051 0.081,-0.099 0.122,-0.15 0.044,-0.096 0.088,-0.193 0.133,-0.291 0.11,-0.192 0.244,-0.379 0.383,-0.557 0.083,-0.107 0.152,-0.226 0.237,-0.333 0.114,-0.142 0.241,-0.274 0.348,-0.422 0.082,-0.121 0.164,-0.242 0.247,-0.362 0.154,-0.185 0.309,-0.37 0.466,-0.554 0.128,-0.162 0.256,-0.325 0.383,-0.487 0.161,-0.167 0.321,-0.335 0.481,-0.503 0.132,-0.152 0.245,-0.332 0.397,-0.472 0.217,-0.198 0.429,-0.4 0.629,-0.601 0.106,-0.109 0.214,-0.216 0.32,-0.323 0.174,-0.152 0.378,-0.261 0.547,-0.422 0.163,-0.157 0.326,-0.314 0.49,-0.472 0.12,-0.091 0.238,-0.183 0.356,-0.272 0.146,-0.126 0.271,-0.271 0.429,-0.382 0.19,-0.13 0.368,-0.282 0.566,-0.395 0.132,-0.076 0.273,-0.116 0.398,-0.199 0.149,-0.105 0.294,-0.209 0.443,-0.312 0.144,-0.095 0.309,-0.169 0.457,-0.26 0.559,-0.343 1.122,-0.637 1.708,-0.918 0.257,-0.124 0.502,-0.283 0.779,-0.377 0.253,-0.099 0.504,-0.197 0.757,-0.294 0.093,-0.025 0.186,-0.053 0.277,-0.078 0.249,-0.096 0.496,-0.191 0.744,-0.287 0.067,-0.02 0.133,-0.04 0.201,-0.059 0.214,-0.084 0.426,-0.183 0.65,-0.244 0.27,-0.053 0.539,-0.104 0.809,-0.158 0.402,-0.083 0.822,-0.207 1.232,-0.271 0.15,-0.014 0.299,-0.025 0.452,-0.035 0.199,-0.026 0.399,-0.073 0.606,-0.092 0.157,-0.008 0.312,-0.02 0.471,-0.03 0.102,-0.016 0.203,-0.031 0.303,-0.047 l 0.323,-0.011 c 0.246,-0.037 0.49,-0.074 0.737,-0.111 0.126,-0.007 0.252,-0.011 0.378,-0.017 0.076,0.009 0.153,0.019 0.228,0.027 0.226,-0.002 0.493,-0.027 0.718,-0.037 0.144,-0.004 0.279,0.007 0.417,0 0.283,-0.015 0.552,0.04 0.815,0.078 0.119,0.006 0.239,0.01 0.357,0.014 0.161,0.02 0.335,0.047 0.493,0.061 0.587,0.053 1.154,0.118 1.721,0.231 0.192,0.05 0.383,0.1 0.572,0.151 0.24,0.047 0.478,0.097 0.716,0.145 0.124,0.036 0.234,0.098 0.351,0.146 0.196,0.057 0.389,0.113 0.584,0.172 0.082,0.03 0.165,0.059 0.248,0.089 0.142,0.039 0.269,0.054 0.409,0.096 0.287,0.099 0.572,0.201 0.861,0.301 0.169,0.083 0.34,0.161 0.51,0.243 0.166,0.063 0.333,0.14 0.491,0.213 0.046,0.027 0.091,0.057 0.137,0.083 0.171,0.082 0.351,0.163 0.518,0.25 0.195,0.112 0.39,0.221 0.585,0.332 0.1,0.05 0.21,0.08 0.31,0.132" id="path5265" style="fill:#231f20;fill-opacity:1;fill-rule:nonzero;stroke:none" />
        </ns0:g>
        <ns0:g transform="translate(577.313,234.30299)" id="g5267">
          <ns0:path d="m 0,0 -0.02,0 0,0.02 c -0.029,0 -0.042,0.036 -0.06,0.057 -0.072,0.116 -0.146,0.233 -0.219,0.35 -0.153,0.178 -0.307,0.357 -0.46,0.538 -0.459,0.436 -0.997,0.81 -1.56,1.053 -0.117,0.042 -0.236,0.087 -0.351,0.129 -0.13,0.056 -0.248,0.13 -0.384,0.18 -0.125,0.047 -0.262,0.062 -0.395,0.086 -0.136,0.026 -0.275,0.065 -0.416,0.095 -0.289,0.059 -0.579,0.146 -0.873,0.198 -0.283,0.036 -0.565,0.07 -0.849,0.107 -0.226,0.011 -0.443,0.007 -0.661,0.028 -1.026,0.104 -2.039,0.203 -3.029,0.363 -0.338,0.056 -0.669,0.058 -0.999,0.117 -0.329,0.058 -0.658,0.154 -0.97,0.252 -0.174,0.055 -0.351,0.095 -0.518,0.159 -0.165,0.074 -0.329,0.148 -0.494,0.222 -0.114,0.052 -0.228,0.103 -0.341,0.153 -0.079,0.05 -0.159,0.102 -0.238,0.153 -0.038,0.021 -0.076,0.041 -0.114,0.062 -0.271,0.217 -0.484,0.518 -0.692,0.781 -0.16,0.204 -0.244,0.442 -0.32,0.688 -0.036,0.121 -0.074,0.243 -0.112,0.365 -0.12,0.566 -0.108,1.158 -0.114,1.777 -0.009,0.121 -0.02,0.239 -0.03,0.361 0.016,0.46 0.044,0.926 0.054,1.381 -0.004,0.101 -0.007,0.201 -0.012,0.302 0.003,0.46 0.006,0.92 0.008,1.381 0.003,0.303 0.026,0.602 0.023,0.889 -0.013,1.24 0.01,2.495 0.037,3.748 -0.01,0.176 -0.019,0.352 -0.03,0.53 -0.001,0.196 0.02,0.38 0.02,0.566 -0.003,0.088 -0.005,0.177 -0.008,0.266 0.025,0.282 0.048,0.567 0.071,0.851 0.005,0.22 -0.014,0.436 -0.014,0.642 0.002,0.156 0.025,0.312 0.018,0.474 -0.005,0.13 -0.035,0.253 -0.032,0.398 0.006,0.118 0.014,0.239 0.019,0.36 -0.003,0.24 -0.018,0.502 -0.013,0.756 0.003,0.146 0.023,0.3 0.02,0.455 -0.004,0.167 -0.037,0.334 -0.032,0.51 0.019,0.208 0.038,0.416 0.058,0.624 0.005,0.203 -0.013,0.398 -0.012,0.588 0.003,0.424 0.022,0.883 0.024,1.324 0.003,0.089 0.007,0.176 0.009,0.264 -0.007,0.19 -0.019,0.379 -0.028,0.568 0.015,0.164 0.028,0.329 0.045,0.493 0.016,0.787 0.014,1.597 0.031,2.366 10e-4,0.264 10e-4,0.528 0.002,0.793 -0.007,0.187 -0.035,0.369 -0.031,0.569 0.008,0.125 0.014,0.253 0.022,0.378 0.003,0.664 -0.012,1.329 -0.008,2.006 10e-4,0.245 0.022,0.465 0.021,0.701 -0.004,0.265 -0.014,0.552 -0.013,0.832 0.001,0.181 0.02,0.359 0.022,0.549 0.001,0.15 -0.029,0.361 0.021,0.491 10e-4,0.038 0.045,0.031 0.076,0.035 0.273,0.038 0.616,0.074 0.908,0.028 0.36,-0.055 0.722,0.003 1.099,10e-4 0.333,-0.002 0.668,-0.002 1.003,-0.003 0.202,0.011 0.402,0.021 0.605,0.032 0.377,-0.002 0.728,-0.024 1.096,-0.022 0.444,0.004 0.923,0.011 1.385,0.008 0.131,-0.006 0.262,-0.012 0.397,-0.017 0.186,0.01 0.377,0.018 0.566,0.028 0.158,-0.003 0.306,-0.036 0.473,-0.036 0.213,-0.002 0.405,0.018 0.605,0.012 0.311,-0.005 0.645,-0.007 0.966,-0.025 0.151,-0.013 0.302,-0.023 0.453,-0.035 0.446,0.005 0.908,0.023 1.345,0.028 0.297,-0.009 0.593,-0.016 0.89,-0.025 0.251,0.003 0.499,0.052 0.755,0.05 0.181,-0.001 0.379,-0.018 0.568,-0.019 0.172,0.003 0.341,0.006 0.512,0.008 0.195,-0.016 0.391,-0.03 0.586,-0.047 0.152,0.007 0.304,0.015 0.455,0.022 0.296,-0.012 0.592,-0.022 0.889,-0.033 0.139,0.011 0.278,0.021 0.417,0.033 0.807,0.02 1.568,10e-4 2.384,0.008 0.178,0.01 0.353,0.022 0.531,0.032 0.363,0.01 0.747,-0.015 1.096,0.01 0.077,0.007 0.152,0.015 0.228,0.022 0.303,-0.031 0.658,10e-4 0.984,-0.007 0.135,-10e-4 0.246,-0.034 0.377,-0.038 0.146,0.006 0.292,0.009 0.435,0.014 0.234,-0.008 0.503,-0.036 0.738,-0.034 0.164,0.001 0.322,0.033 0.494,0.028 0.12,-0.01 0.239,-0.022 0.359,-0.033 0.168,-0.002 0.357,0.021 0.53,0.007 0.119,-0.018 0.239,-0.035 0.36,-0.053 0.1,0.004 0.201,0.009 0.303,0.013 0.106,-0.006 0.212,-0.012 0.322,-0.017 0.106,0.003 0.213,0.01 0.32,0.015 0.203,0.003 0.397,-0.02 0.587,-0.008 0.308,0.024 0.611,-0.022 0.927,-0.019 0.153,0.01 0.302,0.02 0.454,0.03 0.102,-0.005 0.201,-0.01 0.303,-0.015 0.096,-10e-4 0.214,0.011 0.293,-0.021 0.007,-0.005 0.015,-0.013 0.023,-0.017 0.067,-0.1 0.043,-0.284 0.041,-0.42 -0.002,-0.431 -0.023,-0.85 -0.004,-1.266 0.01,-0.264 0.006,-0.566 0.009,-0.834 -0.005,-0.087 -0.009,-0.176 -0.014,-0.263 0.007,-0.191 0.015,-0.378 0.022,-0.567 -0.011,-0.191 -0.021,-0.38 -0.032,-0.57 0.015,-0.246 0.032,-0.492 0.046,-0.738 -0.01,-0.093 -0.021,-0.189 -0.032,-0.284 -0.006,-0.164 0.027,-0.314 0.025,-0.473 -0.009,-0.164 -0.02,-0.328 -0.03,-0.492 -0.001,-0.201 -0.005,-0.403 -0.009,-0.604 -0.009,-0.151 -0.022,-0.304 -0.032,-0.454 0.018,-0.247 0.036,-0.493 0.051,-0.738 -0.006,-0.089 -0.015,-0.178 -0.023,-0.266 -0.007,-0.204 -0.023,-0.41 -0.02,-0.606 0.004,-0.35 0.033,-0.74 0.037,-1.078 -0.009,-0.076 -0.019,-0.151 -0.025,-0.228 0.005,-0.157 0.012,-0.313 0.018,-0.471 -0.01,-0.182 -0.026,-0.388 -0.028,-0.589 0,-0.146 0.032,-0.272 0.028,-0.416 -0.01,-0.076 -0.018,-0.152 -0.03,-0.227 0.005,-0.099 0.009,-0.201 0.012,-0.301 -0.01,-0.38 -0.044,-0.747 -0.039,-1.137 0.006,-0.189 0.01,-0.378 0.019,-0.568 0.009,-0.076 0.018,-0.151 0.028,-0.227 -0.004,-0.127 -0.011,-0.251 -0.016,-0.378 0.004,-0.081 0.009,-0.164 0.012,-0.245 -0.011,-0.14 -0.022,-0.278 -0.033,-0.417 0,-0.188 0.047,-0.387 0.039,-0.587 -0.02,-0.553 -0.05,-1.075 -0.054,-1.628 -10e-4,-0.223 0.034,-0.42 0.033,-0.643 -0.012,-0.12 -0.024,-0.239 -0.036,-0.359 -0.002,-0.258 -0.005,-0.517 -0.009,-0.776 -0.012,-0.139 -0.024,-0.277 -0.037,-0.416 0.007,-0.524 0.015,-1.047 0.022,-1.57 -0.002,-0.365 -0.039,-0.751 -0.035,-1.117 0.008,-0.195 0.019,-0.391 0.027,-0.588 -0.004,-0.076 -0.009,-0.151 -0.014,-0.227 -10e-4,-0.139 -0.002,-0.276 -0.004,-0.416 -0.002,-0.338 0.015,-0.678 0.014,-1.003 C 14.094,9.711 14.098,9.287 14.089,8.873 14.083,8.759 14.079,8.647 14.075,8.533 14.082,8.463 14.092,8.395 14.101,8.325 14.089,8.084 14.076,7.845 14.066,7.606 14.061,7.403 14.09,7.19 14.076,6.982 14.053,6.855 14.029,6.728 14.008,6.601 13.99,6.464 13.973,6.326 13.955,6.189 13.908,5.953 13.736,5.616 13.612,5.415 13.503,5.243 13.323,5.148 13.185,5.01 13.101,4.929 13.007,4.875 12.921,4.802 12.759,4.664 12.598,4.518 12.415,4.421 12.298,4.377 12.182,4.334 12.065,4.291 11.829,4.194 11.593,4.088 11.351,3.996 11.128,3.913 10.893,3.85 10.671,3.767 10.619,3.747 10.56,3.726 10.504,3.708 10.382,3.71 10.219,3.654 10.125,3.596 10.019,3.597 9.908,3.585 9.822,3.542 9.662,3.543 9.547,3.496 9.416,3.447 9.375,3.435 9.334,3.423 9.292,3.412 9.227,3.412 9.153,3.404 9.102,3.375 8.975,3.377 8.683,3.318 8.591,3.264 8.478,3.264 8.344,3.285 8.25,3.247 8.185,3.247 8.11,3.24 8.06,3.21 7.958,3.212 7.838,3.223 7.756,3.176 7.708,3.169 7.655,3.162 7.605,3.156 7.525,3.156 7.44,3.153 7.379,3.12 7.308,3.12 7.226,3.112 7.17,3.083 7.038,3.085 6.841,3.105 6.734,3.046 6.683,3.042 6.633,3.036 6.582,3.03 6.455,3.031 6.295,3.078 6.185,3.013 6.109,3.013 6.02,3.024 5.957,2.996 5.919,2.988 5.882,2.983 5.845,2.978 5.723,2.978 5.569,3.001 5.466,2.961 5.415,2.954 5.365,2.948 5.314,2.942 5.276,2.937 5.239,2.93 5.201,2.925 5.162,2.917 5.124,2.911 5.088,2.906 5.031,2.9 4.973,2.895 4.917,2.887 4.838,2.889 4.752,2.885 4.689,2.851 4.638,2.847 4.589,2.839 4.538,2.833 4.453,2.833 4.356,2.836 4.292,2.797 4.21,2.797 4.125,2.796 4.065,2.76 3.999,2.76 3.924,2.752 3.875,2.724 3.815,2.724 3.751,2.715 3.704,2.686 3.667,2.681 3.629,2.674 3.591,2.667 3.494,2.669 3.365,2.639 3.288,2.594 3.225,2.594 3.164,2.585 3.116,2.556 2.918,2.558 2.747,2.468 2.579,2.403 2.45,2.355 2.32,2.308 2.189,2.26 1.935,2.261 1.666,2.026 1.479,1.871 1.315,1.737 1.104,1.67 0.943,1.519 0.494,1.102 0.223,0.542 0,0" id="path5269" style="fill:#fcd213;fill-opacity:1;fill-rule:nonzero;stroke:none" />
        </ns0:g>
        <ns0:g transform="translate(579.423,236.992)" id="g5271">
          <ns0:path d="m 0,0 c 0.116,0.048 0.233,0.097 0.35,0.147 0.23,0.069 0.472,0.112 0.715,0.165 0.454,0.098 0.894,0.217 1.349,0.312 0.112,0.008 0.225,0.015 0.335,0.023 0.178,0.032 0.349,0.076 0.534,0.093 0.239,0.009 0.48,0.016 0.719,0.024 0.288,0.022 0.582,0.083 0.872,0.103 0.26,0.02 0.519,0.029 0.773,0.062 0.23,0.036 0.457,0.073 0.685,0.111 0.075,0.005 0.151,0.012 0.224,0.018 0.353,0.057 0.693,0.14 1.03,0.219 0.114,0.027 0.224,0.04 0.334,0.073 0.324,0.095 0.639,0.221 0.953,0.322 0.265,0.086 0.521,0.166 0.768,0.279 0.216,0.098 0.396,0.236 0.596,0.362 0.358,0.224 0.748,0.463 0.971,0.84 0.098,0.168 0.189,0.416 0.22,0.615 0.007,0.093 0.014,0.188 0.02,0.284 0.068,0.408 0.059,0.856 0.054,1.283 0.008,0.152 0.012,0.303 0.02,0.455 -0.006,0.082 -0.01,0.165 -0.015,0.246 0,0.163 0,0.327 -10e-4,0.491 -0.01,0.063 -0.018,0.126 -0.027,0.19 0.007,0.056 0.013,0.113 0.02,0.17 -0.007,0.057 -0.013,0.114 -0.021,0.17 0.002,0.113 0.033,0.204 0.033,0.322 0.001,0.126 -0.032,0.219 -0.033,0.341 -10e-4,0.145 0.036,0.251 0.04,0.397 0.009,0.496 0.004,0.987 0.023,1.477 -0.004,0.12 -0.009,0.238 -0.013,0.358 0.003,0.436 0.005,0.871 0.007,1.305 0.025,1.185 0.01,2.45 0.037,3.634 -0.008,0.125 -0.013,0.252 -0.022,0.378 -0.005,0.039 -0.009,0.075 -0.015,0.113 0.006,0.093 0.026,0.201 0.022,0.303 -0.007,0.07 -0.014,0.139 -0.022,0.209 0.004,0.097 0.029,0.195 0.028,0.303 -0.003,0.219 -0.055,0.405 -0.053,0.625 0,0.149 0.022,0.279 0.033,0.416 -0.002,0.069 -0.004,0.14 -0.006,0.208 0.009,0.068 0.019,0.14 0.03,0.208 -0.01,0.082 -0.019,0.163 -0.03,0.246 0.011,0.094 0.02,0.189 0.031,0.284 -0.003,0.085 -0.029,0.155 -0.029,0.246 0.002,0.517 0.006,1.034 0.009,1.551 0,0.118 0.031,0.209 0.035,0.323 0.003,0.112 -0.032,0.196 -0.028,0.302 0.009,0.057 0.02,0.114 0.028,0.17 0.008,0.171 0.016,0.341 0.026,0.511 -0.004,0.26 -0.006,0.543 -0.017,0.814 -0.009,0.088 -0.02,0.176 -0.032,0.265 -0.001,0.213 0.037,0.401 0.034,0.606 -0.009,0.157 -0.019,0.314 -0.027,0.472 0.006,1.219 -0.041,2.389 0.005,3.598 0.003,0.66 0.007,1.323 0.011,1.985 0.012,0.359 -0.014,0.75 -0.018,1.097 -0.004,0.356 0.004,0.678 0.007,1.041 l -0.021,0 c 0,0.04 -0.177,0.016 -0.207,0.001 -0.353,0.005 -0.707,0.011 -1.058,0.015 -0.229,0.02 -0.457,0.035 -0.702,0.033 -0.068,0 -0.151,0.008 -0.208,-0.018 C 9.289,31.188 9.202,31.178 9.111,31.17 8.986,31.185 8.859,31.201 8.732,31.217 8.29,31.221 7.85,31.223 7.408,31.226 7.284,31.227 6.962,31.267 6.878,31.23 6.651,31.232 6.424,31.235 6.197,31.237 6.026,31.249 5.779,31.322 5.611,31.256 5.561,31.25 5.509,31.244 5.46,31.237 5.296,31.239 5.131,31.241 4.967,31.244 4.723,31.26 4.485,31.3 4.229,31.301 4.04,31.247 3.768,31.338 3.586,31.267 3.535,31.26 3.485,31.255 3.435,31.249 3.24,31.25 3.044,31.252 2.848,31.252 c -0.095,0 -0.225,0.018 -0.303,-0.018 -0.06,10e-4 -0.142,0.007 -0.19,-0.018 -0.162,10e-4 -0.299,0.035 -0.454,0.04 -0.389,0.001 -0.781,0.005 -1.172,0.008 -0.143,0 -0.353,0.031 -0.472,-0.017 C 0.212,31.241 0.168,31.236 0.123,31.229 0.066,31.223 0.009,31.217 -0.048,31.211 c -0.22,0.001 -0.586,0.117 -0.776,0.042 -0.037,-0.006 -0.075,-0.012 -0.113,-0.017 -0.083,0 -0.181,-0.002 -0.246,-0.037 -0.564,0.002 -1.127,0.006 -1.666,0.017 -0.143,0.005 -0.293,-0.003 -0.435,-0.002 -0.067,0 -0.167,0.027 -0.227,-0.003 -0.139,0.003 -0.276,0.004 -0.416,0.006 -0.193,0.014 -0.62,0.09 -0.795,0.02 -0.127,0.002 -0.252,0.004 -0.378,0.005 -0.083,0.007 -0.185,0.03 -0.266,-0.001 -0.112,0 -0.262,0.021 -0.359,-0.017 -0.226,0.002 -0.424,0.04 -0.662,0.042 -0.075,0 -0.164,0.008 -0.227,-0.018 -0.14,10e-4 -0.337,0.031 -0.454,-0.016 -0.215,0.001 -0.429,0.001 -0.643,0.003 -0.102,0.001 -0.24,0.02 -0.322,-0.017 -0.271,-0.002 -0.542,-0.003 -0.813,-0.004 -0.173,0.012 -0.505,0.076 -0.663,0.012 -0.17,0.001 -0.466,0.06 -0.606,0.004 -0.358,0.002 -0.688,0.023 -1.042,0.046 -0.124,0.01 -0.316,0.052 -0.436,-0.001 -0.068,0.001 -0.148,0.01 -0.208,-0.019 -0.134,0.003 -0.32,0.031 -0.433,-0.015 -0.12,0.001 -0.303,0.031 -0.399,-0.015 -0.447,0.001 -0.922,0.023 -1.399,0.026 -0.139,0 -0.336,0.031 -0.455,-0.016 -0.172,0 -0.549,0.036 -0.682,-0.015 -0.1,0 -0.275,0.028 -0.341,-0.036 -0.106,-0.1 -0.048,-0.597 -0.044,-0.758 -0.004,-0.125 -0.01,-0.252 -0.015,-0.378 0.004,-0.115 0.021,-0.235 0.008,-0.359 0,-0.177 0,-0.353 0,-0.53 -0.018,-0.483 -0.022,-0.945 -0.025,-1.439 -10e-4,-0.134 -0.033,-0.234 -0.038,-0.358 -0.005,-0.133 0.023,-0.259 0.022,-0.378 -0.016,-0.121 -0.03,-0.241 -0.045,-0.361 0.007,-0.251 0.011,-0.504 0.018,-0.755 -0.017,-0.43 -0.036,-0.891 -0.032,-1.346 0.007,-0.176 0.013,-0.352 0.019,-0.528 0.007,-0.057 0.015,-0.114 0.022,-0.171 -0.015,-0.107 -0.027,-0.215 -0.042,-0.321 0.009,-0.771 -0.012,-1.508 -0.017,-2.29 -0.002,-0.34 0.016,-0.653 0.009,-0.985 -0.012,-0.163 -0.024,-0.327 -0.035,-0.492 0.004,-0.246 0.008,-0.492 0.014,-0.738 -0.003,-0.489 -0.024,-0.996 -0.019,-1.495 0.008,-0.176 0.015,-0.352 0.023,-0.53 -0.011,-0.227 -0.023,-0.453 -0.036,-0.681 -0.005,-0.895 0.011,-1.824 0.019,-2.725 0.002,-0.224 -0.038,-0.411 -0.039,-0.643 -0.002,-0.239 -0.003,-0.479 -0.003,-0.718 0.004,-0.109 0.009,-0.216 0.014,-0.323 -0.018,-0.814 -0.045,-1.596 -0.049,-2.422 -0.003,-0.374 -0.044,-0.7 -0.045,-1.059 0,-0.158 0.001,-0.315 0.001,-0.472 0.008,-0.063 0.018,-0.126 0.026,-0.19 -0.01,-0.063 -0.02,-0.126 -0.029,-0.188 -0.009,-0.182 -0.02,-0.375 -0.021,-0.549 -0.002,-0.222 0.004,-0.468 0.012,-0.701 0.005,-0.105 0.034,-0.193 0.034,-0.304 -10e-4,-0.111 -0.034,-0.195 -0.035,-0.302 -0.002,-0.13 0.033,-0.224 0.033,-0.36 -0.006,-0.977 0.005,-1.919 0.449,-2.664 0.305,-0.508 0.867,-0.829 1.379,-1.049 0.354,-0.153 0.717,-0.328 1.103,-0.42 0.285,-0.066 0.567,-0.102 0.867,-0.153 0.226,-0.04 0.462,-0.098 0.7,-0.124 0.227,-0.018 0.454,-0.035 0.681,-0.052 0.486,-0.059 0.963,-0.145 1.458,-0.205 0.232,-0.012 0.465,-0.024 0.698,-0.034 0.101,-0.023 0.202,-0.043 0.304,-0.067 0.182,-0.004 0.366,-0.005 0.547,-0.01 0.195,-0.018 0.392,-0.035 0.587,-0.056 0.101,-0.003 0.2,-0.007 0.302,-0.011 0.089,-0.021 0.177,-0.042 0.266,-0.062 0.251,-0.039 0.485,-0.067 0.736,-0.115 0.077,-0.025 0.155,-0.05 0.231,-0.078 0.173,-0.049 0.329,-0.09 0.492,-0.155 0.238,-0.086 0.477,-0.173 0.715,-0.258 0.174,-0.088 0.345,-0.174 0.521,-0.261 0.09,-0.063 0.185,-0.124 0.276,-0.187 0.19,-0.109 0.378,-0.203 0.552,-0.345 0.213,-0.174 0.36,-0.386 0.547,-0.586 0.061,-0.069 0.094,-0.159 0.175,-0.204 0,-0.031 0.01,-0.02 0.039,-0.02 0,0.033 0.094,0.093 0.12,0.125 0.041,0.061 0.079,0.121 0.119,0.182 0.414,0.606 1.027,1.039 1.651,1.371 C -0.191,-0.069 -0.097,-0.034 0,0" id="path5273" style="fill:#231f20;fill-opacity:1;fill-rule:nonzero;stroke:none" />
        </ns0:g>
        <ns0:g transform="translate(579.532,265.817)" id="g5275">
          <ns0:path d="m 0,0 0,-0.018 -0.057,0 c 0,0.062 -0.001,0.125 -0.004,0.187 0.028,0.189 0.184,0.275 0.29,0.417 C 0.43,0.41 0.121,0.129 0,0" id="path5277" style="fill:#ed0f93;fill-opacity:1;fill-rule:nonzero;stroke:none" />
        </ns0:g>
        <ns0:g transform="translate(580.515,267.395)" id="g5279">
          <ns0:path d="M 0,0 C 0.079,0.085 0.124,0.189 0.193,0.282 0.252,0.341 0.312,0.4 0.373,0.459 0.509,0.445 0.636,0.425 0.787,0.418 l 0,-0.056 c -0.2,0.002 -0.738,-0.667 -0.863,-0.836 -0.058,-0.079 -0.128,-0.236 -0.22,-0.285 -0.055,-0.027 -0.12,-0.004 -0.165,0.024 -0.13,0.08 -0.032,0.221 0.004,0.313 0.025,0.06 0.03,0.128 0.08,0.172 0.053,0.025 0.102,0.051 0.154,0.077 C -0.148,-0.117 -0.075,-0.059 0,0" id="path5281" style="fill:#ed0f93;fill-opacity:1;fill-rule:nonzero;stroke:none" />
        </ns0:g>
        <ns0:g transform="translate(579.231,266.939)" id="g5283">
          <ns0:path d="M 0,0 C 0.031,0.096 0.03,0.203 0.078,0.291 0.137,0.408 0.285,0.437 0.373,0.519 0.454,0.594 0.47,0.696 0.535,0.777 0.602,0.864 0.693,0.879 0.786,0.92 0.86,0.92 0.936,0.919 1.013,0.919 1.013,0.825 0.889,0.729 0.844,0.653 0.78,0.55 0.719,0.442 0.655,0.342 0.583,0.243 0.508,0.143 0.434,0.043 0.383,-0.034 0.365,-0.122 0.303,-0.193 0.258,-0.228 0.212,-0.265 0.166,-0.3 0.124,-0.348 0.083,-0.393 0.041,-0.438 c -0.042,-0.039 -0.084,-0.08 -0.127,-0.119 -0.077,-0.094 -0.077,-0.231 -0.18,-0.312 -0.092,-0.07 -0.256,-0.119 -0.378,-0.077 l -0.039,0 c 0.001,0.057 0.25,0.442 0.306,0.491 0.052,0.046 0.128,0.049 0.17,0.109 0.037,0.055 0.031,0.122 0.064,0.179 C -0.104,-0.099 -0.029,-0.077 0,0" id="path5285" style="fill:#ed0f93;fill-opacity:1;fill-rule:nonzero;stroke:none" />
        </ns0:g>
        <ns0:g transform="translate(577.795,267.20599)" id="g5287">
          <ns0:path d="M 0,0 C 0.023,0.092 0.113,0.154 0.141,0.248 0.173,0.358 0.133,0.451 0.21,0.54 0.29,0.632 0.778,0.558 0.935,0.642 1.036,0.641 1.136,0.641 1.236,0.64 l 0,-0.038 C 1.207,0.602 1.207,0.586 1.195,0.567 1.047,0.359 0.971,0.118 0.868,-0.112 0.82,-0.195 0.771,-0.278 0.725,-0.362 0.687,-0.453 0.647,-0.544 0.611,-0.635 0.513,-0.818 0.267,-1.13 0.054,-1.171 l 0,0.02 c -0.033,0 -0.021,0.172 -0.026,0.206 -0.015,0.084 -0.048,0.154 -0.037,0.248 C 0,-0.594 0.054,-0.527 0.053,-0.415 0.048,-0.275 -0.033,-0.14 0,0" id="path5289" style="fill:#ed0f93;fill-opacity:1;fill-rule:nonzero;stroke:none" />
        </ns0:g>
        <ns0:g transform="translate(576.29201,267.839)" id="g5291">
          <ns0:path d="M 0,0 C 0.071,0.075 0.343,0.026 0.452,0.057 0.571,0.017 0.875,0.022 1.018,0.016 1.021,-0.068 1.025,-0.149 1.029,-0.232 1.043,-0.295 1.058,-0.357 1.071,-0.42 1.06,-0.488 1.047,-0.558 1.037,-0.627 1.029,-0.927 0.992,-1.225 0.976,-1.517 0.987,-1.699 0.997,-1.883 1.006,-2.066 l -0.017,0 0,0.019 C 0.748,-2.045 0.471,-1.309 0.374,-1.141 0.32,-1.048 0.237,-0.987 0.172,-0.898 0.037,-0.708 -0.209,-0.22 0,0" id="path5293" style="fill:#ed0f93;fill-opacity:1;fill-rule:nonzero;stroke:none" />
        </ns0:g>
        <ns0:g transform="translate(574.75999,267.69501)" id="g5295">
          <ns0:path d="M 0,0 C 0.001,0.005 0.002,0.008 0.003,0.013 0.043,0.128 0.342,0.13 0.449,0.191 0.561,0.19 0.706,0.21 0.797,0.166 1.066,0.034 1.156,-0.359 1.264,-0.606 1.334,-0.766 1.429,-0.922 1.505,-1.082 1.557,-1.167 1.605,-1.251 1.656,-1.336 1.69,-1.422 1.702,-1.514 1.705,-1.614 1.706,-1.684 1.719,-1.817 1.652,-1.852 1.599,-1.88 1.518,-1.867 1.466,-1.846 1.368,-1.809 0.007,-0.118 -0.002,-0.031 l 0,0.016 C -0.002,-0.011 0,-0.005 0,0" id="path5297" style="fill:#ed0f93;fill-opacity:1;fill-rule:nonzero;stroke:none" />
        </ns0:g>
        <ns0:g transform="translate(574.01801,267.873)" id="g5299">
          <ns0:path d="M 0,0 C 0.142,-0.022 0.226,-0.064 0.328,-0.165 0.478,-0.31 0.606,-0.483 0.726,-0.653 0.788,-0.738 0.823,-0.835 0.896,-0.92 0.99,-1.021 1.085,-1.121 1.179,-1.222 1.263,-1.328 1.347,-1.433 1.43,-1.539 1.462,-1.585 1.49,-1.63 1.522,-1.675 1.581,-1.729 1.642,-1.782 1.703,-1.834 1.83,-1.955 1.946,-2.108 2.012,-2.263 1.982,-2.262 1.983,-2.295 1.975,-2.318 1.871,-2.318 1.744,-2.281 1.671,-2.222 1.549,-2.1 1.428,-1.975 1.305,-1.85 1.227,-1.773 1.136,-1.741 1.069,-1.652 0.938,-1.478 0.841,-1.27 0.68,-1.114 c -0.091,0.09 -0.224,0.108 -0.316,0.196 -0.003,0.003 -0.006,0.006 -0.009,0.009 -0.099,0.102 -0.133,0.241 -0.217,0.352 -0.096,0.124 -0.234,0.211 -0.325,0.334 -0.004,0.009 -0.009,0.018 -0.013,0.026 -0.002,0.004 -0.002,0.009 -0.004,0.014 C -0.221,-0.075 -0.07,-0.033 0,0" id="path5301" style="fill:#ed0f93;fill-opacity:1;fill-rule:nonzero;stroke:none" />
        </ns0:g>
        <ns0:g transform="translate(578.254,263.933)" id="g5303">
          <ns0:path d="m 0,0 c 0.054,-0.007 0.108,-0.014 0.161,-0.019 0.164,-0.06 0.305,-0.3 0.245,-0.472 C 0.372,-0.584 0.268,-0.665 0.189,-0.726 0.134,-0.769 0.055,-0.833 -0.024,-0.827 c -0.11,0.011 -0.063,0.245 -0.036,0.307 0.038,0.086 0.137,0.11 0.144,0.218 C 0.092,-0.176 -0.001,-0.119 0,0" id="path5305" style="fill:#87d5b6;fill-opacity:1;fill-rule:nonzero;stroke:none" />
        </ns0:g>
        <ns0:g transform="translate(578.52,264.709)" id="g5307">
          <ns0:path d="m 0,0 c -0.064,-0.038 -0.139,-0.142 -0.223,-0.132 -0.116,0.014 -0.163,0.166 -0.239,0.236 -0.084,0.081 -0.259,0.12 -0.235,0.274 0.008,0.062 0.063,0.095 0.117,0.114 l 0,0.019 C -0.454,0.487 -0.366,0.422 -0.251,0.374 -0.121,0.32 0.013,0.289 0.149,0.237 0.178,0.227 0.189,0.193 0.181,0.163 0.152,0.082 0.065,0.042 0,0" id="path5309" style="fill:#87d5b6;fill-opacity:1;fill-rule:nonzero;stroke:none" />
        </ns0:g>
        <ns0:g transform="translate(578.273,262.367)" id="g5311">
          <ns0:path d="m 0,0 c -0.025,-0.138 -0.34,-0.196 -0.449,-0.129 -0.16,0.1 0.147,0.299 0.215,0.352 C -0.154,0.201 0.02,0.11 0,0" id="path5313" style="fill:#87d5b6;fill-opacity:1;fill-rule:nonzero;stroke:none" />
        </ns0:g>
        <ns0:g transform="translate(577.44901,262.487)" id="g5315">
          <ns0:path d="M 0,0 C -0.053,-0.01 -0.082,0.039 -0.117,0.061 -0.16,0.09 -0.212,0.097 -0.25,0.141 -0.347,0.247 -0.318,0.36 -0.324,0.506 -0.328,0.58 -0.342,0.674 -0.314,0.742 -0.29,0.803 -0.231,0.831 -0.182,0.864 -0.121,0.862 -0.071,0.858 -0.024,0.829 0.031,0.794 0.413,0.425 0.42,0.385 0.446,0.242 0.115,0.024 0,0" id="path5317" style="fill:#87d5b6;fill-opacity:1;fill-rule:nonzero;stroke:none" />
        </ns0:g>
        <ns0:g transform="translate(579.672,263.69901)" id="g5319">
          <ns0:path d="m 0,0 c 0,-0.137 -0.072,-0.286 -0.192,-0.341 -0.001,-0.028 -0.066,0.012 -0.094,0.021 0,0.137 0.178,0.237 0.269,0.32 L 0,0" id="path5321" style="fill:#87d5b6;fill-opacity:1;fill-rule:nonzero;stroke:none" />
        </ns0:g>
        <ns0:g transform="translate(579.31599,263.942)" id="g5323">
          <ns0:path d="m 0,0 c -0.047,-0.033 -0.09,-0.073 -0.154,-0.073 -0.066,0.001 -0.093,0.043 -0.114,0.098 -0.015,0.048 -0.01,0.659 0.007,0.712 0.02,0.066 0.122,0.122 0.169,0.175 C 0.05,0.868 0.042,0.782 0.091,0.653 0.181,0.416 0.245,0.181 0,0" id="path5325" style="fill:#87d5b6;fill-opacity:1;fill-rule:nonzero;stroke:none" />
        </ns0:g>
        <ns0:g transform="translate(579.08099,262.84801)" id="g5327">
          <ns0:path d="m 0,0 c 0.018,0 0.012,-0.004 -0.001,-0.017 0,-0.087 -0.245,-0.241 -0.322,-0.167 C -0.43,-0.08 -0.296,0.03 -0.228,0.097 -0.127,0.09 -0.053,0.085 0,0" id="path5329" style="fill:#87d5b6;fill-opacity:1;fill-rule:nonzero;stroke:none" />
        </ns0:g>
        <ns0:g transform="translate(577.35001,264.84599)" id="g5331">
          <ns0:path d="M 0,0 C 0.068,-0.007 0.134,-0.015 0.2,-0.022 0.318,-0.06 0.696,-0.365 0.655,-0.515 0.619,-0.647 0.493,-0.725 0.397,-0.822 0.298,-0.919 0.177,-1.033 0.034,-1.051 -0.108,-1.069 -0.31,-0.436 -0.284,-0.325 -0.271,-0.274 -0.049,-0.047 0,-0.019 L 0,0" id="path5333" style="fill:#87d5b6;fill-opacity:1;fill-rule:nonzero;stroke:none" />
        </ns0:g>
        <ns0:g transform="translate(576.91,263.312)" id="g5335">
          <ns0:path d="m 0,0 c -0.074,-0.063 -0.17,-0.174 -0.271,-0.181 -0.079,-0.006 -0.117,0.049 -0.168,0.093 -0.125,0.108 -0.214,0.331 -0.172,0.508 0.03,0.053 0.056,0.107 0.085,0.16 0.051,0.153 0.03,0.179 0.149,0.297 C -0.215,0.8 0.254,0.455 0.206,0.236 0.184,0.142 0.066,0.058 0,0" id="path5337" style="fill:#87d5b6;fill-opacity:1;fill-rule:nonzero;stroke:none" />
        </ns0:g>
        <ns0:g transform="translate(576.995,262.274)" id="g5339">
          <ns0:path d="m 0,0 -0.019,0 c 0,-0.032 -0.068,-0.013 -0.092,-0.006 -0.286,0.06 -0.595,0.133 -0.358,0.482 C -0.424,0.47 -0.385,0.468 -0.351,0.441 -0.284,0.391 -0.265,0.316 -0.216,0.255 -0.143,0.162 -0.034,0.116 0,0" id="path5341" style="fill:#87d5b6;fill-opacity:1;fill-rule:nonzero;stroke:none" />
        </ns0:g>
        <ns0:g transform="translate(575.685,264.68401)" id="g5343">
          <ns0:path d="m 0,0 c 0.001,0 0.137,0.165 0.19,0.189 l 0,0.02 C 0.427,0.053 0.621,-0.223 0.375,-0.474 0.325,-0.524 0.247,-0.591 0.18,-0.602 -0.042,-0.634 0.052,-0.363 0.049,-0.246 0.046,-0.158 0.021,-0.077 0,0" id="path5345" style="fill:#87d5b6;fill-opacity:1;fill-rule:nonzero;stroke:none" />
        </ns0:g>
        <ns0:g transform="translate(576.121,265.04201)" id="g5347">
          <ns0:path d="m 0,0 0,0.057 c 0.039,0.01 0.078,0.02 0.115,0.03 0.237,0.035 0.39,0.069 0.587,0.175 C 0.764,0.244 0.86,0.244 0.898,0.183 1.005,0.017 0.507,-0.323 0.36,-0.307 0.199,-0.289 0.113,-0.096 0,0" id="path5349" style="fill:#87d5b6;fill-opacity:1;fill-rule:nonzero;stroke:none" />
        </ns0:g>
        <ns0:g transform="translate(575.82899,263.472)" id="g5351">
          <ns0:path d="M 0,0 C 0.036,-0.01 0.071,-0.021 0.106,-0.03 0.197,-0.085 0.527,-0.4 0.536,-0.498 0.548,-0.604 0.269,-0.8 0.179,-0.819 0.104,-0.834 0.083,-0.758 0.061,-0.704 -0.026,-0.486 -0.09,-0.249 0,0" id="path5353" style="fill:#87d5b6;fill-opacity:1;fill-rule:nonzero;stroke:none" />
        </ns0:g>
        <ns0:g transform="translate(575.44299,263.672)" id="g5355">
          <ns0:path d="M 0,0 C -0.185,-0.045 -0.145,0.311 -0.14,0.428 -0.004,0.383 0.272,0.069 0,0" id="path5357" style="fill:#87d5b6;fill-opacity:1;fill-rule:nonzero;stroke:none" />
        </ns0:g>
        <ns0:g transform="translate(579.425,244.84399)" id="g5359">
          <ns0:path d="M 0,0 C 0.091,-0.127 0.632,-0.726 0.6,-0.839 0.591,-0.867 0.558,-0.87 0.533,-0.876 0.368,-0.878 0.205,-0.882 0.041,-0.882 c -0.289,0 -0.579,0.004 -0.87,0.004 0,0.008 0,0.012 0.001,0.02 l -0.019,0 c 0,0.063 0.051,0.12 0.077,0.17 0.091,0.17 0.447,0.653 0.423,0.828 C -0.354,0.198 -0.397,0.242 -0.45,0.261 -0.678,0.339 -0.952,0.272 -1.201,0.28 -1.332,0.287 -1.633,0.353 -1.749,0.3 -1.998,0.302 -2.862,0.424 -2.964,0.205 -2.99,0.153 -2.955,0.092 -2.933,0.048 c 0.102,-0.199 0.257,-0.383 0.391,-0.565 0.074,-0.111 0.146,-0.223 0.218,-0.332 0,-0.008 0,-0.013 0,-0.019 -0.019,-0.008 -0.038,-0.014 -0.056,-0.021 -0.533,0.004 -1.061,0.026 -1.59,0.028 l 0,0.038 c 0.019,0 0.774,0.914 0.859,1.019 0,0.024 -0.007,0.024 -0.02,0.038 -0.094,0.01 -0.191,0.023 -0.285,0.035 -0.157,0.007 -0.314,0.015 -0.472,0.024 -0.453,0.01 -0.93,-0.017 -1.362,0.027 0.001,0.053 0.645,0.675 0.732,0.764 0.548,0.577 1.119,1.13 1.692,1.694 0.197,0.203 0.393,0.403 0.59,0.603 0.063,0.062 0.121,0.129 0.202,0.157 0,0.011 0,0.025 10e-4,0.038 C -1.906,3.511 -1.795,3.381 -1.691,3.275 -1.519,3.1 -1.348,2.922 -1.179,2.747 -1.071,2.646 -0.962,2.547 -0.854,2.446 -0.368,1.94 0.15,1.46 0.647,0.958 0.851,0.752 1.118,0.541 1.277,0.302 1.24,0.297 1.203,0.291 1.164,0.284 1.008,0.284 0.85,0.287 0.692,0.288 0.632,0.29 0.558,0.307 0.503,0.288 0.287,0.29 0.033,0.317 -0.141,0.236 -0.143,0.153 -0.045,0.064 0,0" id="path5361" style="fill:#ffffff;fill-opacity:1;fill-rule:nonzero;stroke:none" />
        </ns0:g>
        <ns0:g transform="translate(586.967,238.584)" id="g5363">
          <ns0:path d="m 0,0 c -0.061,0 -0.14,-0.009 -0.188,-0.038 -0.095,0.001 -0.285,-0.049 -0.36,-0.092 -0.172,0 -0.32,-0.071 -0.476,-0.101 -0.107,-0.02 -0.221,-0.041 -0.32,-0.06 -0.075,-0.008 -0.162,-0.006 -0.228,-0.042 -0.043,-0.005 -0.088,-0.011 -0.131,-0.018 -0.045,-0.005 -0.089,-0.012 -0.133,-0.017 -0.114,0.001 -0.255,0.017 -0.341,-0.037 -0.044,-0.006 -0.089,-0.012 -0.134,-0.017 -0.183,0 -0.406,0.028 -0.548,-0.055 -0.068,0 -0.15,0.007 -0.209,-0.017 -0.086,0 -0.151,0.021 -0.226,0.039 0,-0.039 -0.227,-0.071 -0.265,-0.094 -0.127,0.001 -0.287,0.024 -0.397,-0.015 -0.044,-0.007 -0.089,-0.012 -0.132,-0.019 -0.127,0.001 -0.28,0.014 -0.381,-0.036 -0.084,0.002 -0.178,-0.004 -0.245,-0.037 -0.123,0 -0.437,-0.032 -0.512,0.029 -0.121,0.096 -0.053,1.299 -0.048,1.525 -0.004,0.116 -0.011,0.228 -0.015,0.343 -0.005,0.119 0.036,0.522 -0.171,0.455 -0.115,0 -0.364,0.027 -0.451,-0.017 -0.125,10e-4 -0.456,-0.025 -0.529,0.043 -0.13,0.124 -0.202,0.573 -0.269,0.753 -0.103,0.264 -0.268,0.529 -0.304,0.82 -0.004,0.03 -0.012,0.081 0.008,0.104 0.054,0.064 0.306,0.053 0.402,0.053 0.222,-0.003 1.237,-0.005 1.32,0.138 0.051,0.093 0.03,0.389 0.021,0.507 0.008,0.183 0.017,0.365 0.023,0.55 0.009,0.281 -0.055,0.61 0.03,0.87 0.645,-0.696 1.376,-1.334 2.04,-2.027 0.063,-0.078 0.123,-0.155 0.186,-0.231 0.165,-0.167 0.35,-0.316 0.522,-0.483 0.458,-0.452 0.883,-0.938 1.33,-1.391 C -0.787,1.038 -0.427,0.697 -0.083,0.35 -0.02,0.287 0.091,0.213 0.121,0.126 0.147,0.061 0.036,0.027 0,0" id="path5365" style="fill:#ffffff;fill-opacity:1;fill-rule:nonzero;stroke:none" />
        </ns0:g>
        <ns0:g transform="translate(585.718,256.556)" id="g5367">
          <ns0:path d="M 0,0 C 0.105,0.122 0.209,0.246 0.315,0.369 0.436,0.497 0.577,0.596 0.703,0.716 0.868,0.885 1.033,1.055 1.198,1.224 1.386,1.402 1.573,1.581 1.759,1.761 2.125,2.14 2.488,2.519 2.854,2.898 3.416,3.434 3.989,3.964 4.504,4.541 4.637,4.69 4.833,4.814 4.936,4.98 5.029,4.852 4.963,4.514 4.973,4.337 4.997,3.918 4.977,3.465 4.982,3.03 4.992,2.81 5.001,2.59 5.011,2.37 4.998,2.142 4.988,1.916 4.975,1.688 4.985,1.555 4.994,1.421 5.007,1.29 5.003,1.226 4.998,1.164 4.996,1.101 5.004,1.025 5.011,0.949 5.017,0.872 5.011,0.81 5.001,0.748 4.99,0.684 4.962,0.336 4.959,-0.015 4.965,-0.376 4.981,-0.559 4.997,-0.741 5.014,-0.925 5.004,-1.026 4.992,-1.126 4.979,-1.227 4.977,-1.454 4.975,-1.682 4.973,-1.909 4.968,-1.986 4.965,-2.059 4.961,-2.135 4.965,-2.281 5,-2.431 4.997,-2.57 4.992,-2.771 4.944,-2.982 4.947,-3.196 4.965,-3.454 4.981,-3.712 4.998,-3.972 4.986,-4.129 4.973,-4.286 4.962,-4.444 4.97,-4.502 4.975,-4.558 4.983,-4.616 4.986,-4.786 4.97,-4.959 4.965,-5.124 4.972,-5.245 4.982,-5.365 4.989,-5.486 4.989,-5.579 4.966,-5.665 4.959,-5.75 4.947,-5.931 4.958,-6.115 4.979,-6.281 5.013,-6.543 5.003,-6.886 4.975,-7.15 4.966,-7.213 4.957,-7.276 4.947,-7.341 4.938,-7.499 4.977,-7.64 4.975,-7.795 4.965,-7.883 4.953,-7.969 4.942,-8.059 4.946,-8.152 4.951,-8.246 4.954,-8.342 4.95,-8.469 4.942,-8.594 4.935,-8.722 4.933,-8.841 5.009,-9.521 4.895,-9.521 4.822,-9.52 4.218,-8.861 4.117,-8.76 3.363,-7.997 2.598,-7.221 1.85,-6.463 1.73,-6.342 1.628,-6.2 1.512,-6.086 1.405,-5.985 1.298,-5.88 1.191,-5.779 c -0.054,0.064 -0.11,0.13 -0.163,0.193 -0.725,0.713 -1.46,1.437 -2.187,2.148 -0.13,0.128 -1.074,1.072 -1.076,1.135 0.002,0.017 0.006,0.035 0.007,0.053 0.074,0.177 0.37,0.376 0.519,0.517 0.161,0.153 0.279,0.325 0.429,0.478 0.135,0.14 0.284,0.274 0.421,0.411 0.051,0.043 0.102,0.087 0.154,0.13 0.119,0.121 0.236,0.244 0.354,0.365 C -0.234,-0.232 -0.118,-0.117 0,0" id="path5369" style="fill:#ffffff;fill-opacity:1;fill-rule:nonzero;stroke:none" />
        </ns0:g>
        <ns0:g transform="translate(581.368,267.099)" id="g5371">
          <ns0:path d="M 0,0 C 0.061,0.044 0.128,0.059 0.183,0.12 0.221,0.177 0.259,0.235 0.297,0.293 0.399,0.441 0.505,0.566 0.629,0.698 0.673,0.737 0.718,0.778 0.763,0.819 0.846,0.863 0.988,0.842 1.091,0.841 1.307,0.84 1.52,0.85 1.714,0.87 1.811,0.881 1.898,0.875 1.98,0.911 2.125,0.909 2.269,0.906 2.413,0.903 2.578,0.884 2.751,0.845 2.926,0.845 3.079,0.843 3.211,0.901 3.362,0.896 3.412,0.886 3.463,0.88 3.513,0.872 3.695,0.85 3.923,0.85 4.081,0.899 l 0,-0.019 0.019,0 C 4.1,0.856 4.105,0.861 4.081,0.861 4.078,0.851 4.074,0.842 4.07,0.831 3.888,0.587 3.618,0.4 3.404,0.195 3,-0.202 2.596,-0.599 2.191,-0.997 2.1,-1.091 1.993,-1.163 1.904,-1.256 1.54,-1.627 1.212,-2.03 0.838,-2.386 0.703,-2.518 0.568,-2.648 0.435,-2.778 0.358,-2.841 0.285,-2.906 0.211,-2.971 0.127,-3.071 0.043,-3.169 -0.04,-3.268 -0.266,-3.506 -0.505,-3.738 -0.746,-3.963 -0.858,-4.096 -0.971,-4.229 -1.083,-4.362 -1.334,-4.604 -1.585,-4.847 -1.834,-5.089 -2.26,-5.508 -2.68,-5.938 -3.108,-6.352 -3.251,-6.485 -3.375,-6.653 -3.531,-6.759 l 0,-0.02 -0.02,0 0,0.02 -0.02,0 c 0.007,0.056 0.013,0.113 0.019,0.17 0.002,0.131 -0.023,0.263 -0.009,0.397 0.015,0.07 0.032,0.139 0.047,0.209 0.008,0.13 -0.038,0.238 0.023,0.35 0.038,0.071 0.126,0.098 0.181,0.153 0.11,0.108 0.174,0.247 0.307,0.334 0.137,0.092 0.31,0.119 0.459,0.19 0.094,0.05 0.17,0.129 0.26,0.186 0.201,0.131 0.435,0.244 0.587,0.452 0.04,0.083 0.083,0.165 0.123,0.248 0.05,0.071 0.101,0.143 0.151,0.216 0.04,0.098 0.035,0.209 0.063,0.314 0.038,0.142 0.111,0.272 0.114,0.439 -0.017,0.146 -0.035,0.29 -0.053,0.435 -0.02,0.188 -0.124,0.356 -0.236,0.497 -0.048,0.059 -0.106,0.117 -0.136,0.187 -0.036,0 0,0.05 0.011,0.07 0.031,0.043 0.061,0.086 0.091,0.127 0.129,0.196 0.263,0.407 0.457,0.551 0.099,0.073 0.112,0.177 0.188,0.268 0.09,0.105 0.222,0.16 0.315,0.27 0.048,0.064 0.096,0.129 0.145,0.191 0.039,0.073 0.057,0.149 0.117,0.212 0.061,0.064 0.129,0.094 0.194,0.148 C -0.102,-0.097 -0.051,-0.048 0,0" id="path5373" style="fill:#ffffff;fill-opacity:1;fill-rule:nonzero;stroke:none" />
        </ns0:g>
        <ns0:g transform="translate(570.403,267.931)" id="g5375">
          <ns0:path d="m 0,0 c 0.186,-0.001 0.419,-0.028 0.587,0.018 0.135,-0.028 0.288,-0.02 0.435,-0.023 0.115,-0.007 0.227,-0.015 0.342,-0.02 0.157,0 0.314,0 0.471,0.001 0.071,-0.014 0.14,-0.024 0.208,-0.038 0.144,-0.001 0.314,0.096 0.455,0.049 0.168,-0.057 0.312,-0.245 0.439,-0.375 0.205,-0.201 0.407,-0.401 0.608,-0.602 0.135,-0.145 0.261,-0.312 0.398,-0.454 0.17,-0.175 0.355,-0.3 0.526,-0.479 0.102,-0.105 0.162,-0.223 0.261,-0.326 0.056,-0.044 0.113,-0.088 0.17,-0.132 0.11,-0.091 0.21,-0.213 0.271,-0.335 -0.06,0 -0.149,-0.13 -0.19,-0.17 C 4.825,-3.051 4.702,-3.218 4.65,-3.434 4.636,-3.521 4.624,-3.608 4.611,-3.696 4.582,-3.835 4.546,-3.973 4.563,-4.13 4.587,-4.232 4.611,-4.331 4.636,-4.433 4.68,-4.537 4.723,-4.641 4.767,-4.744 4.82,-4.86 4.846,-4.981 4.923,-5.088 4.983,-5.167 5.083,-5.195 5.157,-5.251 5.231,-5.303 5.26,-5.394 5.335,-5.449 5.404,-5.484 5.475,-5.515 5.545,-5.548 5.643,-5.613 5.74,-5.678 5.836,-5.742 5.967,-5.825 6.125,-5.881 6.239,-5.989 6.313,-6.092 6.387,-6.193 6.461,-6.296 6.528,-6.379 6.638,-6.438 6.686,-6.535 6.72,-6.602 6.744,-6.695 6.749,-6.774 6.753,-6.849 6.732,-6.931 6.751,-7.002 6.789,-7.169 6.857,-7.408 6.827,-7.588 6.676,-7.586 6.358,-7.204 6.244,-7.092 6.009,-6.871 5.773,-6.653 5.54,-6.433 5.368,-6.252 5.198,-6.069 5.027,-5.887 4.689,-5.534 4.325,-5.206 3.992,-4.86 3.814,-4.674 3.631,-4.49 3.451,-4.303 3.376,-4.216 3.299,-4.127 3.224,-4.039 2.605,-3.434 1.992,-2.833 1.377,-2.231 1.214,-2.054 1.051,-1.876 0.887,-1.7 0.534,-1.343 0.207,-0.989 -0.161,-0.65 -0.344,-0.48 -0.73,-0.251 -0.794,-0.013 -0.533,-0.014 -0.267,0.002 0,0" id="path5377" style="fill:#ffffff;fill-opacity:1;fill-rule:nonzero;stroke:none" />
        </ns0:g>
        <ns0:g transform="translate(566.412,249.283)" id="g5379">
          <ns0:path d="m 0,0 c -0.277,-0.257 -0.502,-0.557 -0.772,-0.816 -0.4,-0.391 -0.798,-0.78 -1.195,-1.17 C -2.1,-2.123 -2.292,-2.263 -2.39,-2.415 l -0.02,0 c 0,-0.039 -0.043,0.068 -0.047,0.096 -0.002,0.137 -0.005,0.276 -0.006,0.416 0.008,0.416 0.016,0.832 0.026,1.247 0.002,0.346 0.007,0.675 0.003,1.002 -0.004,0.115 -0.01,0.229 -0.014,0.342 0.008,0.311 0.026,0.655 0.023,0.984 -0.004,0.139 -0.01,0.277 -0.015,0.416 0.004,0.202 0.019,0.411 0.02,0.625 -0.005,0.126 -0.009,0.251 -0.015,0.379 0.003,0.36 0.003,0.718 0.006,1.078 -0.005,0.107 -0.011,0.214 -0.016,0.321 0.013,0.133 0.025,0.267 0.036,0.398 0.011,0.299 -0.02,0.58 -0.008,0.871 0.011,0.22 0.022,0.44 0.032,0.662 -0.005,0.474 -0.027,0.944 -0.015,1.419 0.014,0.226 0.028,0.455 0.043,0.681 -0.008,0.12 -0.017,0.24 -0.027,0.36 -0.004,0.482 0.012,0.974 0.008,1.438 -0.006,0.101 -0.011,0.202 -0.015,0.303 0.007,0.119 0.015,0.239 0.023,0.358 10e-4,0.141 -0.026,0.274 -0.018,0.419 0.011,0.081 0.021,0.162 0.031,0.244 -0.003,0.225 -0.011,0.456 -0.01,0.682 0.194,-0.071 0.349,-0.284 0.497,-0.431 0.329,-0.317 0.654,-0.635 0.979,-0.953 0.114,-0.12 0.225,-0.239 0.339,-0.36 C -0.305,10.35 -0.059,10.113 0.162,9.858 0.237,9.771 0.307,9.681 0.395,9.599 0.556,9.446 0.728,9.306 0.885,9.141 0.953,9.069 0.988,8.991 1.061,8.922 1.438,8.562 1.838,8.226 2.22,7.864 2.584,7.49 2.947,7.115 3.309,6.739 3.54,6.521 4.992,5.157 4.906,4.947 4.88,4.907 4.853,4.868 4.826,4.827 4.655,4.536 4.257,4.208 3.996,3.971 3.906,3.891 3.85,3.782 3.763,3.692 3.548,3.474 3.336,3.267 3.12,3.05 2.823,2.756 2.522,2.462 2.223,2.169 2.024,1.968 1.829,1.768 1.632,1.567 1.582,1.509 1.532,1.452 1.483,1.396 0.988,0.935 0.495,0.459 0,0" id="path5381" style="fill:#ffffff;fill-opacity:1;fill-rule:nonzero;stroke:none" />
        </ns0:g>
        <ns0:g transform="translate(574.45,240.261)" id="g5383">
          <ns0:path d="m 0,0 c -0.163,0 -0.708,0.038 -0.804,-0.027 -0.038,-0.026 -0.042,-0.074 -0.045,-0.118 -0.003,-0.506 -0.007,-1.011 -0.011,-1.515 0.003,-0.218 0.028,-0.536 -0.016,-0.754 -0.013,-0.053 -0.042,-0.1 -0.084,-0.134 l 0,-0.02 c -0.156,0.002 -0.293,0.068 -0.437,0.091 -0.138,0.021 -0.282,-0.013 -0.414,-0.013 -0.101,0.016 -0.202,0.028 -0.304,0.04 -0.195,0.018 -0.391,0.037 -0.586,0.056 -0.076,0.009 -0.196,0.018 -0.265,-0.011 -0.451,0.003 -0.87,0.093 -1.305,0.134 -0.201,0.023 -0.397,0.019 -0.583,0.053 -0.159,0.027 -0.318,0.051 -0.475,0.079 -0.069,0.015 -0.139,0.031 -0.21,0.046 -0.098,0.005 -0.199,0.009 -0.3,0.015 -0.228,0.041 -0.456,0.082 -0.684,0.122 -0.174,0.025 -0.395,0.028 -0.545,0.103 l -0.021,0 0,0.038 c 0.03,0 0.014,-0.008 0.028,0.014 0.103,0.161 0.296,0.335 0.44,0.466 0.133,0.132 0.265,0.264 0.397,0.399 0.202,0.201 0.421,0.38 0.628,0.584 0.102,0.099 0.204,0.199 0.306,0.299 0.083,0.091 0.167,0.185 0.251,0.279 0.52,0.498 1.052,0.984 1.561,1.503 0.314,0.32 0.604,0.659 0.925,0.966 0.448,0.431 0.891,0.851 1.316,1.299 0.122,0.127 0.248,0.255 0.372,0.384 0.08,-0.115 0.032,-0.552 0.019,-0.701 -0.02,-0.241 -0.025,-0.483 -0.027,-0.738 0,-0.161 -0.02,-0.329 0.03,-0.468 C -0.796,2.336 -0.701,2.22 -0.619,2.1 -0.575,2.031 -0.551,1.94 -0.471,1.895 -0.355,1.832 0.01,1.816 0.161,1.822 0.429,1.833 0.706,1.851 0.995,1.85 0.993,1.666 0.876,1.439 0.815,1.278 0.701,0.99 0.586,0.704 0.479,0.413 0.438,0.305 0.401,0.159 0.323,0.069 0.266,0.008 0.187,0.049 0.115,0.019 0.075,0.012 0.038,0.008 0,0" id="path5385" style="fill:#ffffff;fill-opacity:1;fill-rule:nonzero;stroke:none" />
        </ns0:g>
        <ns0:g transform="translate(577.864,236.504)" id="g5387">
          <ns0:path d="M 0,0 C -0.064,-0.08 -0.131,-0.157 -0.198,-0.239 -0.362,-0.406 -0.532,-0.561 -0.64,-0.762 l -0.017,0 c -0.117,0.129 -0.234,0.258 -0.35,0.387 -0.114,0.102 -0.345,0.234 -0.479,0.301 l 0,0.019 -0.019,0 0,0.017 0.019,0 c 0,0.033 0.03,0.022 0.056,0.025 0.069,0.016 0.14,0.031 0.209,0.044 0.223,0.007 0.443,0.015 0.662,0.021 0.012,0.037 0.021,0.076 0.031,0.113 0.01,0.095 0.018,0.19 0.026,0.284 -0.008,0.087 -0.019,0.176 -0.029,0.265 0.006,0.088 0.01,0.176 0.013,0.265 -0.002,0.189 -0.025,0.394 -0.01,0.587 0.023,0.107 0.046,0.215 0.07,0.322 0.023,0.131 0.058,0.291 0.148,0.386 0.092,0.102 0.217,0.093 0.334,0.141 C 0.061,2.396 0.104,2.376 0.117,2.332 0.157,2.206 0.127,2.039 0.126,1.902 0.131,1.575 0.134,1.248 0.137,0.919 0.149,0.842 0.199,0.775 0.232,0.707 0.279,0.599 0.323,0.494 0.371,0.388 0.389,0.388 0.391,0.389 0.384,0.374 0.3,0.216 0.13,0.109 0,0" id="path5389" style="fill:#ffffff;fill-opacity:1;fill-rule:nonzero;stroke:none" />
        </ns0:g>
        <ns0:g transform="translate(577.782,243.991)" id="g5391">
          <ns0:path d="M 0,0 C 0,0.053 0.412,0.652 0.473,0.724 0.504,0.762 0.55,0.792 0.593,0.81 l 0,0.02 C 0.687,0.829 0.783,0.828 0.878,0.828 0.875,0.711 0.428,0.051 0.311,0.002 0.229,-0.036 0.116,-0.017 0.019,-0.02 L 0.019,0 0,0" id="path5393" style="fill:#ffffff;fill-opacity:1;fill-rule:nonzero;stroke:none" />
        </ns0:g>
        <ns0:g transform="translate(574.89799,244.047)" id="g5395">
          <ns0:path d="m 0,0 c -0.106,-0.044 -0.265,-0.017 -0.389,-0.02 0.002,0.171 0.696,0.67 0.836,0.81 l 0.286,0 C 0.731,0.65 0.136,0.058 0,0" id="path5397" style="fill:#ffffff;fill-opacity:1;fill-rule:nonzero;stroke:none" />
        </ns0:g>
        <ns0:g transform="translate(580.06,240.313)" id="g5399">
          <ns0:path d="m 0,0 c -0.121,-0.054 -0.285,0.051 -0.353,0.139 -0.073,0.1 -0.099,0.213 -0.137,0.327 -0.059,0.181 -0.119,0.368 -0.189,0.546 -0.047,0.12 -0.138,0.281 -0.12,0.422 0.011,0.088 0.094,0.124 0.156,0.169 0.054,-0.013 0.094,-0.029 0.126,-0.077 0.036,-0.057 0.049,-0.119 0.071,-0.184 0.059,-0.176 0.117,-0.347 0.168,-0.53 0.059,-0.206 0.146,-0.416 0.235,-0.61 C -0.03,0.17 0.064,0.027 0,0" id="path5401" style="fill:#ffffff;fill-opacity:1;fill-rule:nonzero;stroke:none" />
        </ns0:g>
        <ns0:g transform="translate(574.067,242.698)" id="g5403">
          <ns0:path d="M 0,0 C 0.076,0.132 1.535,0.019 1.777,0.018 2.155,0.015 2.489,0.068 2.859,0.068 3.349,0.065 3.872,0.027 4.372,0.025 4.626,0.023 4.904,0.032 5.167,0.04 5.763,0.057 6.382,0.028 6.963,0.025 6.964,0.03 6.964,0.038 6.964,0.044 6.995,0.044 6.998,0.212 6.998,0.252 7,0.631 7.008,1.026 7.01,1.424 7.011,1.698 7.003,1.976 7.05,2.22 7.359,2.057 7.322,1.669 7.333,1.329 7.337,1.118 7.351,0.874 7.344,0.648 7.333,0.526 7.321,0.407 7.31,0.288 7.299,0.108 7.352,-0.095 7.284,-0.26 l 0,-0.039 -0.019,0 c 0,0.036 -0.117,0.021 -0.151,0.021 -0.3,0.002 -0.581,-0.016 -0.89,-0.013 -0.134,0 -0.321,0.028 -0.435,-0.017 -0.114,0 -0.262,0.022 -0.36,-0.017 -0.348,0.001 -0.677,0.003 -1.021,0.026 -0.154,0.012 -0.363,0.082 -0.511,0.021 -0.254,0 -0.504,0.021 -0.757,0.013 -0.055,-0.003 -0.125,0.014 -0.171,-0.008 -0.143,0 -0.461,0.056 -0.568,0.002 -0.083,0 -0.177,0.011 -0.246,-0.018 -0.239,0.003 -0.48,0.005 -0.718,0.009 -0.144,0.007 -0.303,0.012 -0.454,0.02 -0.052,0 -0.102,-0.001 -0.154,-0.001 C 0.774,-0.268 0.718,-0.273 0.66,-0.28 0.381,-0.278 0.156,-0.345 0.02,-0.106 0.008,-0.083 -0.017,-0.03 0,0" id="path5405" style="fill:#ffffff;fill-opacity:1;fill-rule:nonzero;stroke:none" />
        </ns0:g>
        <ns0:g transform="translate(581.283,237.97099)" id="g5407">
          <ns0:path d="m 0,0 c -0.057,-0.079 -0.227,-0.099 -0.318,-0.112 0.004,0.474 -0.024,0.979 -0.005,1.461 0.005,0.137 -0.02,0.298 0.009,0.429 0.008,0.045 0.033,0.065 0.064,0.098 0.098,-0.002 0.188,0 0.265,-0.04 0.027,0 0.034,-0.202 0.027,-0.245 C 0.026,1.488 0.05,1.385 0.05,1.269 0.049,1.099 0.022,0.948 0.03,0.778 0.042,0.602 0.094,0.134 0,0" id="path5409" style="fill:#ffffff;fill-opacity:1;fill-rule:nonzero;stroke:none" />
        </ns0:g>
        <ns0:g transform="translate(575.73801,236.89301)" id="g5411">
          <ns0:path d="m 0,0 c -0.196,0.02 -0.378,0.159 -0.554,0.234 -0.14,0.057 -0.301,0.084 -0.429,0.161 l -0.019,0 0,0.02 0.019,0 c 0,0.026 -0.005,0.019 0.019,0.019 C -0.686,0.432 0.621,0.383 0.74,0.5 0.799,0.558 0.798,0.8 0.798,0.897 0.802,1.508 0.729,2.327 1.291,2.64 1.373,2.687 1.458,2.695 1.548,2.729 1.703,2.729 2.086,2.672 2.067,2.464 2.063,2.414 2.004,2.414 1.96,2.407 1.59,2.363 1.517,2.161 1.364,1.873 1.239,1.64 1.259,1.238 1.253,0.931 1.246,0.632 1.231,0.347 1.229,0.044 l -0.017,0 c 0,-0.036 -0.187,0 -0.228,-0.019 C 0.88,0.026 0.791,-0.003 0.699,-0.008 0.465,-0.005 0.231,-0.003 0,0" id="path5413" style="fill:#ffffff;fill-opacity:1;fill-rule:nonzero;stroke:none" />
        </ns0:g>
        <ns0:g transform="translate(578.608,237.019)" id="g5415">
          <ns0:path d="M 0,0 C -0.088,0.075 -0.152,0.247 -0.162,0.363 -0.068,0.362 0.04,0.354 0.123,0.38 0.341,0.379 0.557,0.365 0.765,0.358 l 0,-0.039 C 0.695,0.32 0.608,0.264 0.55,0.238 0.377,0.16 0.2,0.082 0.026,0.002 0.026,-0.021 0.016,-0.013 0,0" id="path5417" style="fill:#ffffff;fill-opacity:1;fill-rule:nonzero;stroke:none" />
        </ns0:g>
        <ns0:g transform="translate(572.061,252.55701)" id="g5419">
          <ns0:path d="M 0,0 C 0.003,0.17 0.037,0.35 0.038,0.528 0.025,0.724 0.015,0.919 0.005,1.115 0.001,1.439 0.039,1.749 0.046,2.061 0.036,2.251 0.025,2.441 0.017,2.63 0.022,2.774 0.028,2.919 0.033,3.064 0.022,3.209 0.01,3.356 0,3.501 0.002,3.736 0.07,3.942 0.075,4.181 0.067,4.313 0.056,4.447 0.044,4.58 0.05,4.655 0.053,4.73 0.059,4.806 c 0.01,0.281 0.044,0.547 0.045,0.832 0.001,0.193 -0.03,0.489 0.02,0.658 0.051,0.176 0.568,0.763 0.747,0.832 l 0,0.019 C 0.909,7.002 0.888,6.806 0.872,6.656 0.853,6.474 0.841,6.283 0.847,6.088 0.858,5.963 0.869,5.836 0.88,5.709 0.881,5.47 0.882,5.229 0.884,4.991 0.876,4.882 0.866,4.776 0.858,4.668 0.863,4.542 0.868,4.416 0.873,4.29 0.865,3.955 0.847,3.573 0.856,3.229 0.866,2.856 0.815,2.462 0.825,2.095 0.836,1.957 0.847,1.817 0.858,1.678 0.86,1.394 0.862,1.11 0.863,0.827 0.854,0.694 0.843,0.562 0.832,0.429 0.831,0.208 0.83,-0.012 0.829,-0.232 0.828,-0.499 0.864,-0.969 0.788,-1.191 0.763,-1.262 0.676,-1.308 0.636,-1.369 0.575,-1.453 0.513,-1.537 0.452,-1.623 0.391,-1.681 0.329,-1.74 0.268,-1.798 0.205,-1.917 0.142,-2.039 0.081,-2.158 l -0.018,0 0,-0.019 -0.02,0 c 0.001,0.357 -0.053,0.741 -0.057,1.098 -0.004,0.21 0.032,0.439 0.044,0.641 C 0.038,-0.281 -0.002,-0.148 0,0" id="path5421" style="fill:#fcd213;fill-opacity:1;fill-rule:nonzero;stroke:none" />
        </ns0:g>
        <ns0:g transform="translate(572.418,250.21001)" id="g5423">
          <ns0:path d="M 0,0 C 0.092,0.224 0.168,0.292 0.351,0.448 0.451,0.536 0.535,0.646 0.645,0.715 1.13,1.03 1.89,1.028 2.489,0.903 2.604,0.871 2.719,0.838 2.833,0.806 3.215,0.733 3.559,0.689 3.883,0.498 4.095,0.374 4.268,0.201 4.463,0.042 4.513,0.008 4.566,-0.024 4.616,-0.055 4.706,-0.123 4.799,-0.268 4.924,-0.265 5.101,-0.264 5.213,-0.036 5.345,0.058 5.492,0.165 5.637,0.28 5.801,0.359 6.247,0.574 6.692,0.798 7.183,0.92 7.362,0.96 7.539,1.002 7.715,1.044 7.817,1.062 7.927,1.05 8.018,1.087 8.168,1.085 8.319,1.082 8.47,1.079 8.721,1.039 8.983,0.916 9.179,0.767 9.266,0.67 9.352,0.576 9.438,0.478 9.577,0.329 9.728,0.17 9.752,-0.037 l -0.02,0 c 0,-0.036 -0.149,-0.019 -0.189,-0.019 -0.397,0.002 -0.793,0.004 -1.191,0.007 -0.146,0 -0.341,0.027 -0.454,-0.035 C 7.766,-0.083 7.582,-0.003 7.462,-0.062 7.419,-0.069 7.374,-0.075 7.33,-0.08 7.181,-0.08 6.998,-0.057 6.875,-0.116 6.811,-0.116 6.737,-0.128 6.686,-0.154 6.558,-0.153 6.289,-0.12 6.193,-0.17 6.136,-0.175 6.08,-0.181 6.023,-0.187 5.966,-0.195 5.91,-0.2 5.852,-0.205 c -0.09,0 -0.209,-0.013 -0.264,-0.074 -0.032,0 -0.007,-0.101 -0.005,-0.134 0.008,-0.335 -0.241,-0.639 -0.587,-0.637 -0.28,0.002 -0.499,0.203 -0.554,0.458 -0.016,0.088 0.006,0.211 -0.05,0.281 -0.024,0.029 -0.07,0.048 -0.111,0.039 -0.133,0.007 -0.264,0.014 -0.397,0.022 -0.03,-0.008 -0.063,-0.013 -0.094,-0.019 -0.311,0.001 -0.587,0.04 -0.909,0.042 -0.081,0.001 -0.2,0.016 -0.265,-0.017 -0.227,0.002 -0.445,0.022 -0.68,0.022 -0.112,0.001 -0.254,0.013 -0.341,-0.036 -0.333,0.002 -0.673,0.029 -1.003,0.025 -0.118,0 -0.281,0.028 -0.379,-0.017 -0.102,0.001 -0.202,0.002 -0.284,0.041 0,0.078 0.044,0.144 0.071,0.209" id="path5425" style="fill:#fcd213;fill-opacity:1;fill-rule:nonzero;stroke:none" />
        </ns0:g>
        <ns0:g transform="translate(582.72099,257.72)" id="g5427">
          <ns0:path d="m 0,0 c -0.002,0.178 -0.034,0.359 -0.048,0.53 -0.005,0.095 -0.011,0.189 -0.016,0.286 -0.004,0.036 0.011,0.206 -0.023,0.207 l 0,0.018 -0.057,0 C -0.182,0.67 -0.162,0.262 -0.17,-0.132 -0.174,-0.284 -0.242,-0.397 -0.254,-0.53 c 0.002,-0.075 0.003,-0.152 0.006,-0.227 -0.008,-0.068 -0.013,-0.138 -0.02,-0.208 -0.091,-0.012 -0.156,0.011 -0.178,0.101 -0.027,0.127 0.035,0.234 0.032,0.354 -0.01,0.082 -0.017,0.165 -0.028,0.248 -0.005,0.448 0.037,0.923 0.033,1.362 -0.009,0.076 -0.015,0.152 -0.024,0.226 -0.011,0.039 -0.021,0.076 -0.028,0.115 -0.021,0 -0.039,0 -0.061,0 l 0,-0.019 -0.018,0 C -0.551,1.101 -0.587,0.813 -0.603,0.495 -0.616,0.439 -0.627,0.382 -0.64,0.325 l -0.056,0 C -0.796,0.574 -0.765,0.902 -0.769,1.196 -0.771,1.355 -0.753,1.517 -0.802,1.65 -0.859,1.547 -0.855,1.442 -0.866,1.312 -0.878,1.16 -0.889,0.979 -0.881,0.819 -0.871,0.65 -0.84,0.463 -0.853,0.287 c -0.094,-1.084 -0.044,-2.148 -0.05,-3.254 -0.007,-0.219 -0.012,-0.44 -0.015,-0.66 -0.017,-0.189 -0.047,-0.392 -0.049,-0.589 -0.001,-0.272 0.018,-0.563 0.013,-0.851 -0.005,-0.27 -0.036,-0.572 -0.02,-0.851 0.002,-0.037 0.009,-0.134 0.054,-0.134 l 0,-0.018 0.019,0 0,0.018 0.017,0 c 0.051,0.16 0.034,0.348 0.042,0.53 0.011,0.298 0.049,0.6 0.04,0.909 -0.004,0.193 -0.046,0.435 0.021,0.62 0.011,0.03 0.035,0.041 0.07,0.03 0.074,-0.019 0.09,-0.131 0.1,-0.197 0.038,-0.231 -0.005,-0.458 -0.017,-0.7 -0.003,-0.19 -0.004,-0.379 -0.006,-0.568 -0.001,-0.208 -0.014,-0.428 0.009,-0.625 0.011,-0.109 -0.013,-0.215 0.018,-0.317 0.019,-0.059 0.032,-0.195 0.118,-0.195 0.02,0.312 0.032,0.665 0.033,0.985 -0.005,0.151 -0.014,0.302 -0.022,0.455 0.015,0.149 0.028,0.302 0.043,0.452 0.015,0.101 0.03,0.203 0.046,0.304 0.001,0.141 -0.042,0.276 -0.061,0.398 -0.027,0.204 -0.022,0.422 -0.02,0.643 0.001,0.116 0.001,0.235 0.031,0.337 0.011,0.035 0.066,0.065 0.066,0.097 l 0.017,0 c 0.068,-0.058 0.11,-0.118 0.123,-0.21 0.033,-0.231 0.017,-0.519 0.002,-0.755 -0.007,-0.083 -0.034,-0.153 -0.032,-0.246 0.002,-0.209 0.055,-0.429 0.061,-0.644 -0.006,-0.087 -0.009,-0.175 -0.014,-0.265 -0.002,-0.384 -0.004,-0.727 -0.006,-1.117 -0.001,-0.277 0.024,-0.573 0.053,-0.835 -0.006,-0.05 -0.013,-0.099 -0.021,-0.15 l 0.076,0 c 0.076,0.163 0.054,0.367 0.062,0.569 0.007,0.214 0.039,0.459 0.014,0.679 -0.02,0.146 -0.042,0.291 -0.063,0.438 0.004,0.153 0.052,0.292 0.056,0.453 0.005,0.238 -0.036,0.45 -0.035,0.682 0.016,0.245 0.03,0.491 0.043,0.737 0,0.189 0.002,0.378 0.001,0.567 -0.009,0.077 -0.02,0.152 -0.029,0.228 -0.003,0.12 0.031,0.218 0.035,0.34 -0.005,0.197 -0.01,0.391 -0.015,0.587 0,0.3 0.02,0.598 0.022,0.909 C -0.02,-0.607 0.004,-0.307 0,0 M -0.672,-2.914 C -0.68,-2.932 -0.791,-3.09 -0.79,-2.986 c -0.027,0.056 -0.02,0.143 -0.02,0.209 -0.005,0.173 -0.003,0.369 -0.007,0.549 0,0.238 -0.002,0.479 -0.003,0.717 0.001,0.195 -0.017,0.397 0.059,0.549 0.057,-0.027 0.102,-0.076 0.118,-0.136 0.056,-0.209 0.012,-0.448 0.011,-0.678 -0.002,-0.313 0.078,-0.863 -0.04,-1.138 m 0.05,2.765 c 0,-0.007 0,-0.013 -0.001,-0.018 -0.149,0.029 -0.173,0.145 -0.093,0.265 0.078,-0.038 0.166,-0.247 0.094,-0.247 m 0.288,-2.328 -0.036,0 c -0.061,0.15 -0.039,0.294 -0.039,0.473 0.003,0.225 -0.047,0.453 0.061,0.644 0.06,-0.013 0.106,-0.03 0.133,-0.087 0.056,-0.128 0.048,-1.033 -0.119,-1.03" id="path5429" style="fill:#fcd213;fill-opacity:1;fill-rule:nonzero;stroke:none" />
        </ns0:g>
        <ns0:g transform="translate(581.536,255.702)" id="g5431">
          <ns0:path d="m 0,0 c -0.011,0.113 -0.022,0.226 -0.033,0.341 -0.004,0.474 0.022,0.961 0.025,1.417 -0.005,0.146 -0.01,0.291 -0.015,0.438 -0.005,0.361 0.002,0.711 -0.017,1.059 -0.021,0.109 -0.039,0.216 -0.059,0.325 -0.02,0.124 0.005,0.265 0.013,0.394 0,0.043 0.012,0.17 -0.041,0.171 C -0.219,4.188 -0.323,4.168 -0.428,4.174 -0.552,4.181 -0.673,4.205 -0.806,4.206 -0.95,4.156 -1.125,4.171 -1.278,4.143 -1.978,4.012 -2.633,3.91 -3.239,3.588 -3.388,3.508 -3.548,3.424 -3.661,3.287 -3.748,3.184 -3.75,3.054 -3.77,2.918 -3.819,2.595 -3.818,2.25 -3.83,1.895 -3.842,1.718 -3.855,1.54 -3.868,1.364 -3.871,1.107 -3.872,0.848 -3.875,0.589 -3.886,0.488 -3.898,0.387 -3.91,0.287 c -0.022,-0.24 -0.016,-0.506 -0.025,-0.739 -0.013,-0.362 0.009,-0.731 0.016,-1.079 0.007,-0.333 -0.013,-0.692 -0.009,-1.04 0.008,-0.094 0.015,-0.188 0.023,-0.285 -0.008,-0.056 -0.014,-0.113 -0.021,-0.17 -10e-4,-0.16 0.03,-0.316 0.028,-0.492 -0.002,-0.465 -0.015,-1.064 0.172,-1.435 0.009,-0.018 0.067,-0.101 0.067,-0.061 0.209,0.081 0.396,0.243 0.592,0.351 0.173,0.095 0.362,0.152 0.537,0.245 0.212,0.112 0.322,0.191 0.597,0.188 0.078,0.051 0.312,0.094 0.418,0.094 0.045,0.005 0.088,0.011 0.131,0.017 0.039,0.006 0.076,0.011 0.113,0.019 0.201,0.099 0.67,0.008 0.873,-0.043 0.099,-0.026 0.201,-0.05 0.302,-0.077 0.048,0.292 0.001,0.624 -0.006,0.909 0.009,0.163 0.02,0.327 0.031,0.491 0.002,0.205 -0.013,0.413 -0.009,0.606 0.01,0.102 0.021,0.203 0.031,0.303 0.013,0.238 -0.001,0.467 0.012,0.7 0.007,0.136 0.028,0.279 0.031,0.416 C 0,-0.533 0.007,-0.269 0,0 m -3.512,-0.711 c 0.455,0.424 1.046,0.632 1.602,0.859 0.176,0.072 0.382,0.2 0.59,0.198 0.071,0.055 0.229,0.133 0.321,0.132 l 0,0.019 C -0.888,0.479 -0.805,0.432 -0.802,0.307 -0.798,0.199 -0.853,0.113 -0.935,0.057 -1.101,-0.053 -1.3,-0.072 -1.491,-0.137 -1.704,-0.208 -1.927,-0.289 -2.142,-0.355 -2.291,-0.4 -2.437,-0.431 -2.579,-0.488 -2.834,-0.591 -3.088,-0.723 -3.324,-0.866 -3.408,-0.916 -3.494,-0.996 -3.6,-1 c -0.027,0 -0.055,0.002 -0.073,0.02 -0.089,0.091 0.108,0.223 0.161,0.269 m 2.642,-1.543 c -0.153,-0.092 -0.358,-0.092 -0.54,-0.131 -0.164,-0.034 -0.327,-0.085 -0.493,-0.124 -0.564,-0.128 -1.031,-0.355 -1.512,-0.643 -0.06,-0.034 -0.218,-0.186 -0.278,-0.074 -0.043,0.076 0.073,0.156 0.121,0.198 0.188,0.164 0.38,0.273 0.583,0.401 0.227,0.141 0.453,0.266 0.701,0.362 0.08,0.043 0.158,0.086 0.239,0.13 0.309,0.122 0.63,0.198 0.944,0.305 0.088,0 0.182,-0.002 0.254,-0.039 0.153,-0.08 0.113,-0.307 -0.019,-0.385 m 0.031,4.628 C -0.911,2.324 -1.018,2.303 -1.102,2.278 -1.317,2.214 -1.53,2.147 -1.744,2.082 -2.037,1.991 -2.338,1.88 -2.613,1.745 -2.806,1.633 -2.998,1.521 -3.194,1.408 -3.226,1.392 -3.49,1.253 -3.49,1.325 l -0.021,0 c 0.026,0.2 0.255,0.335 0.412,0.427 0.074,0.053 0.151,0.106 0.227,0.162 0.192,0.122 0.398,0.242 0.602,0.336 0.216,0.101 0.444,0.156 0.671,0.233 0.078,0.034 0.155,0.068 0.231,0.102 0.103,0.036 0.205,0.073 0.307,0.107 0.078,-0.001 0.17,0.007 0.24,-0.017 0.148,-0.052 0.076,-0.232 -0.018,-0.301" id="path5433" style="fill:#fee884;fill-opacity:1;fill-rule:nonzero;stroke:none" />
        </ns0:g>
        <ns0:g transform="translate(577.187,258.22501)" id="g5435">
          <ns0:path d="m 0,0 c -0.027,0.279 0.009,0.574 -0.147,0.785 -0.296,0.4 -0.701,0.545 -1.134,0.708 -0.114,0.04 -0.228,0.08 -0.346,0.12 -0.129,0.025 -0.26,0.049 -0.392,0.073 -0.2,0.05 -0.432,0.093 -0.646,0.103 C -2.968,1.792 -3.269,1.795 -3.572,1.798 -3.663,1.757 -3.81,1.771 -3.869,1.682 -3.927,1.593 -3.897,1.249 -3.897,1.118 -3.9,0.606 -3.922,0.094 -3.925,-0.434 -3.927,-0.743 -3.93,-1.052 -3.933,-1.361 -3.95,-1.619 -3.968,-1.878 -3.985,-2.137 c -0.007,-0.185 0.067,-0.353 0.063,-0.549 -0.009,-0.379 -0.016,-0.796 -0.024,-1.192 -0.014,-0.164 -0.025,-0.328 -0.04,-0.491 -0.005,-0.337 0.02,-0.652 0.013,-0.985 -0.013,-0.164 -0.026,-0.328 -0.038,-0.491 -0.002,-0.159 0.047,-0.291 0.046,-0.435 -0.001,-0.171 -0.033,-0.333 -0.034,-0.511 0.069,-10e-4 0.139,-0.002 0.208,-0.002 0.053,0.025 0.125,0.038 0.189,0.038 0.053,0.025 0.126,0.035 0.19,0.035 0.045,0.008 0.089,0.013 0.132,0.018 0.18,0.08 0.67,-0.021 0.853,-0.051 0.234,-0.04 0.451,-0.031 0.678,-0.08 0.266,-0.055 0.671,-0.21 0.902,-0.346 0.083,-0.048 0.548,-0.408 0.59,-0.408 l 0,0.017 c 0.121,0.201 0.109,0.395 0.144,0.642 0.038,0.28 0.044,0.564 0.055,0.87 0.015,0.436 0.041,0.882 0.044,1.326 -0.004,0.188 -0.008,0.379 -0.013,0.567 0.02,0.545 0.016,1.074 0.028,1.609 C 0.017,-1.721 0.073,-0.832 0,0 m -0.688,-5.743 c -0.323,0.153 -0.669,0.275 -1.017,0.384 -0.121,0.038 -0.246,0.054 -0.373,0.079 -0.184,0.038 -0.377,0.092 -0.57,0.122 -0.215,0.033 -0.435,0.042 -0.641,0.087 -0.024,0.009 -0.047,0.019 -0.071,0.028 -0.17,0.094 -0.173,0.426 0.074,0.423 l 0,0.02 c 0.154,-0.001 0.267,-0.04 0.399,-0.069 0.137,-0.029 0.277,-0.042 0.411,-0.076 0.115,-0.041 0.229,-0.083 0.343,-0.124 0.337,-0.108 0.645,-0.22 0.961,-0.37 0.075,-0.028 0.15,-0.056 0.224,-0.081 0.181,-0.081 0.442,-0.272 0.572,-0.427 0.049,-0.057 0.129,-0.091 0.129,-0.175 -0.158,-0.021 -0.312,0.119 -0.441,0.179 m 0.454,2.072 c -0.015,-0.005 -0.027,-0.01 -0.041,-0.014 -0.008,-10e-4 -0.013,-0.004 -0.019,-0.004 -0.133,-0.019 -0.666,0.417 -0.828,0.493 -0.19,0.09 -0.387,0.163 -0.583,0.239 -0.263,0.101 -0.52,0.218 -0.815,0.257 -0.114,0.014 -0.226,0.03 -0.341,0.045 -0.154,0.007 -0.396,-0.027 -0.51,0.064 -0.14,0.113 -0.049,0.414 0.136,0.413 l 0,0.018 c 0.836,-0.059 1.559,-0.441 2.239,-0.822 0.182,-0.104 0.656,-0.389 0.752,-0.581 0.011,-0.021 0.046,-0.108 0.01,-0.108 m 0.072,2.364 c -0.021,-0.041 -0.09,-0.043 -0.132,-0.035 -0.111,0.024 -0.196,0.126 -0.291,0.183 -0.11,0.062 -0.22,0.123 -0.33,0.186 -0.588,0.298 -1.252,0.47 -1.893,0.648 -0.185,0.051 -0.426,0.039 -0.584,0.139 -0.131,0.082 -0.133,0.258 -0.019,0.354 0.275,0 0.497,-0.088 0.74,-0.161 0.073,-0.014 0.148,-0.029 0.218,-0.044 0.16,-0.043 0.313,-0.109 0.463,-0.17 0.135,-0.046 0.269,-0.094 0.404,-0.14 0.063,-0.036 0.13,-0.072 0.192,-0.105 0.185,-0.087 0.37,-0.174 0.553,-0.26 0.115,-0.055 0.748,-0.448 0.679,-0.595" id="path5437" style="fill:#fee884;fill-opacity:1;fill-rule:nonzero;stroke:none" />
        </ns0:g>
        <ns0:g transform="translate(565.077,267.98801)" id="g5439">
          <ns0:path d="m 0,0 c -0.244,-0.071 -0.772,0.024 -0.882,-0.087 -0.091,-0.093 -0.06,-1.994 -0.083,-2.36 -0.038,-0.604 -0.019,-1.309 0.002,-1.903 0.007,-0.258 -0.023,-0.571 0.081,-0.811 0.134,-0.305 0.931,-0.994 1.193,-1.27 1.077,-1.143 2.252,-2.237 3.364,-3.347 0.72,-0.687 1.438,-1.374 2.157,-2.06 0.046,-0.045 0.216,-0.232 0.216,-0.149 l 0.091,0 c 0.066,0.273 0.042,0.601 0.042,0.908 0,0.719 -0.046,1.396 -0.046,2.084 0.017,10e-4 0.032,10e-4 0.046,10e-4 0,0.016 0,0.03 0,0.046 0.177,0.005 0.396,-0.016 0.537,0.057 0.648,0.347 0.771,1.214 1.684,1.215 0.174,0.077 0.47,0.045 0.681,0.045 1.012,0.001 1.876,-0.177 2.644,-0.653 0.055,-0.036 0.212,-0.089 0.212,-0.161 0.06,0.102 0.032,0.207 -0.03,0.296 -0.219,0.314 -0.588,0.555 -0.865,0.806 -0.326,0.339 -0.652,0.677 -0.979,1.017 -0.172,0.16 -0.344,0.319 -0.516,0.478 -1.465,1.462 -2.932,2.984 -4.398,4.401 -0.374,0.36 -1.13,1.176 -1.569,1.362 -0.188,0.079 -0.668,0.071 -0.96,0.038 -0.437,0.016 -0.866,0 -1.304,0.017 C 0.891,0.007 0.409,-0.064 0,0" id="path5441" style="fill:#287ac8;fill-opacity:1;fill-rule:nonzero;stroke:none" />
        </ns0:g>
        <ns0:g transform="translate(587.227,267.967)" id="g5443">
          <ns0:path d="M 0,0 C -0.33,-0.029 -0.892,0.084 -1.167,-0.079 -1.566,-0.312 -2.032,-0.87 -2.35,-1.199 -2.604,-1.457 -2.859,-1.716 -3.117,-1.974 -4.566,-3.424 -6.061,-4.841 -7.46,-6.335 -7.825,-6.723 -9.304,-8.094 -9.303,-8.513 l 0.134,0 0,0.046 c 0.504,0.179 0.944,0.498 1.541,0.498 0.117,0.068 0.258,0.093 0.409,0.093 0.201,0.091 0.528,0.046 0.771,0.047 0.268,0 0.659,0.055 0.873,-0.06 0.159,-0.083 0.209,-0.259 0.301,-0.395 0.317,-0.454 0.779,-0.679 1.367,-0.678 0.03,-0.933 0.005,-1.918 0.005,-2.856 0.016,-0.181 0.029,-0.364 0.042,-0.545 l 0.047,0 c 1.388,1.299 2.634,2.747 4.02,4.048 0.677,0.638 1.36,1.3 2.058,1.976 0.278,0.271 0.864,0.731 1.06,1.054 0.25,0.417 0.122,1.132 0.122,1.657 0,0.509 0.086,3.327 -0.055,3.457 C 3.277,-0.065 2.734,-0.094 2.449,-0.086 1.634,-0.062 0.787,-0.044 0,0" id="path5445" style="fill:#287ac8;fill-opacity:1;fill-rule:nonzero;stroke:none" />
        </ns0:g>
        <ns0:g transform="translate(583.459,253.474)" id="g5447">
          <ns0:path d="m 0,0 c -0.07,-0.296 0.002,-0.592 -0.007,-0.906 -0.029,-0.997 0.01,-1.971 0.011,-2.995 -0.829,0.078 -1.787,0.071 -2.676,0.041 -0.596,-0.019 -1.208,-0.111 -1.814,-0.102 -0.097,0.002 -0.497,-0.006 -0.497,-0.078 -0.051,-0.087 -0.115,-0.454 -0.227,-0.454 0.157,-0.485 0.68,-0.869 1.05,-1.214 0.154,-0.164 0.306,-0.33 0.46,-0.494 0.217,-0.19 0.436,-0.381 0.652,-0.572 0.229,-0.255 0.458,-0.51 0.685,-0.763 0.345,-0.366 0.741,-0.663 1.083,-1.006 0.345,-0.364 0.69,-0.728 1.034,-1.094 0.522,-0.489 1.06,-1.001 1.582,-1.505 0.324,-0.313 0.682,-0.569 0.981,-0.921 0.221,-0.216 0.444,-0.435 0.665,-0.651 0.245,-0.244 0.47,-0.509 0.735,-0.761 0.249,-0.233 0.563,-0.634 0.841,-0.797 0.131,-0.076 0.329,-0.096 0.499,-0.096 0.181,0.076 0.363,0.152 0.542,0.228 0.415,0.17 0.914,0.505 1.189,0.889 0.367,0.519 0.312,1.203 0.333,1.878 0.025,0.778 0.029,1.616 0.018,2.405 -0.01,0.55 0.138,1.284 -0.088,1.748 C 6.93,-6.972 6.57,-6.7 6.374,-6.504 6.041,-6.173 5.703,-5.871 5.37,-5.557 4.845,-5.008 4.322,-4.46 3.796,-3.911 3.476,-3.58 3.128,-3.298 2.804,-2.953 2.071,-2.176 1.374,-1.367 0.604,-0.622 0.394,-0.419 0.254,-0.122 0,0" id="path5449" style="fill:#287ac8;fill-opacity:1;fill-rule:nonzero;stroke:none" />
        </ns0:g>
        <ns0:g transform="translate(571.173,253.371)" id="g5451">
          <ns0:path d="m 0,0 0,-0.045 c -0.246,-0.111 -0.483,-0.399 -0.68,-0.587 -0.571,-0.532 -1.114,-1.171 -1.689,-1.713 -0.501,-0.47 -0.992,-0.963 -1.494,-1.451 -0.591,-0.575 -1.226,-1.239 -1.781,-1.852 -0.341,-0.375 -1.401,-1.212 -1.53,-1.665 -0.007,-0.029 -0.012,-0.056 -0.017,-0.082 -0.129,-0.867 -0.059,-1.731 -0.058,-2.631 0.002,-1.625 -0.327,-3.478 1.257,-4.247 0.365,-0.177 1.03,-0.542 1.28,-0.303 0.781,0.744 1.617,1.508 2.397,2.254 0.291,0.283 0.549,0.642 0.833,0.934 0.275,0.289 0.603,0.541 0.888,0.837 0.289,0.3 0.525,0.62 0.8,0.923 0.359,0.321 0.717,0.644 1.074,0.965 0.245,0.271 0.491,0.538 0.735,0.806 0.339,0.328 0.678,0.653 1.016,0.98 0.453,0.455 0.876,0.919 1.361,1.358 0.316,0.289 0.719,0.591 0.953,0.951 0.063,0.1 0.062,0.229 0.008,0.33 C 5.238,-4.031 4.974,-3.99 4.76,-3.959 4.266,-3.887 3.801,-3.976 3.313,-3.985 2.225,-3.986 1.137,-3.988 0.048,-3.989 0.047,-2.937 0.143,-1.89 0.094,-0.859 0.08,-0.583 0.149,-0.204 0,0" id="path5453" style="fill:#287ac8;fill-opacity:1;fill-rule:nonzero;stroke:none" />
        </ns0:g>
        <ns0:g transform="translate(576.004,274.868)" id="g5455">
          <ns0:path d="M 0,0 C -0.286,-0.034 -0.574,-0.069 -0.861,-0.103 -1.11,-0.143 -1.354,-0.186 -1.624,-0.196 -2.211,-0.309 -2.8,-0.421 -3.387,-0.534 -4.213,-0.703 -4.996,-1.051 -5.754,-1.364 -7.174,-1.95 -8.512,-2.63 -9.801,-3.48 c -0.305,-0.2 -2.435,-1.693 -2.435,-1.925 0.347,-0.028 0.696,-0.056 1.042,-0.083 0.836,-0.049 1.709,-0.017 2.541,-0.017 0.513,-0.025 1.026,-0.052 1.541,-0.078 0.202,0.095 0.525,0.046 0.771,0.046 0.702,0.001 1.37,-0.044 2.04,-0.043 0.345,0.145 0.902,0.018 1.269,0.005 1.133,0 2.267,0 3.4,-10e-4 1.27,-0.029 2.54,-0.057 3.81,-0.086 2.342,0.032 4.685,0.064 7.027,0.095 0.175,0.064 0.435,0.002 0.636,0.002 0.407,-0.01 0.816,-0.023 1.222,-0.034 0.212,0.01 0.423,0.02 0.636,0.031 0.398,-0.011 0.839,-0.051 1.268,-0.038 0.094,0.004 0.36,-0.015 0.456,-0.015 0.288,0 -0.23,0.411 -0.319,0.511 -0.296,0.333 -0.624,0.564 -0.974,0.796 -0.209,0.165 -0.418,0.331 -0.628,0.496 -0.427,0.286 -0.856,0.571 -1.284,0.858 C 9.54,-1.344 6.954,-0.389 3.626,-0.06 3.143,-0.05 2.662,-0.041 2.177,-0.031 1.475,-0.02 0.716,0.001 0,0" id="path5457" style="fill:#ee293d;fill-opacity:1;fill-rule:nonzero;stroke:none" />
        </ns0:g>
        <ns0:g transform="translate(562.64,268.41701)" id="g5459">
          <ns0:path d="m 0,0 c -0.291,-0.297 -0.723,-0.729 -1.014,-1.025 -0.605,-0.814 -1.208,-1.627 -1.812,-2.441 -1.271,-2.142 -2.046,-4.37 -2.594,-6.869 -0.089,-0.399 -0.087,-0.795 -0.126,-1.218 -0.195,-2.059 -0.252,-4.374 0.077,-6.404 0.09,-0.336 0.18,-0.671 0.269,-1.004 0.102,-0.555 0.184,-1.066 0.356,-1.581 0.176,-0.428 0.35,-0.853 0.524,-1.279 0.208,-0.627 0.526,-1.19 0.824,-1.769 0.707,-1.376 1.525,-2.684 2.522,-3.927 0.145,-0.18 0.508,-0.685 0.766,-0.685 l 0,0.045 c 0.201,0.38 0.061,1.531 0.047,1.997 -0.002,0.785 -0.005,1.569 -0.006,2.356 0,0.702 -0.028,1.444 0.006,2.176 0.072,1.563 0.01,3.182 0.034,4.763 0.019,1.336 0.088,2.712 0.087,4.079 -0.002,1.285 -0.077,2.695 0.032,3.94 -0.01,0.139 -0.02,0.276 -0.031,0.416 -0.001,0.391 -0.002,0.784 -0.003,1.177 0.022,0.543 0.044,1.085 0.066,1.628 -0.036,1.168 -0.028,2.355 -0.067,3.542 C -0.072,-1.25 0.032,-0.448 0,0" id="path5461" style="fill:#ee293d;fill-opacity:1;fill-rule:nonzero;stroke:none" />
        </ns0:g>
        <ns0:g transform="translate(592.54601,268.28999)" id="g5463">
          <ns0:path d="M 0,0 C -0.064,-0.8 0.068,-2.04 0.057,-2.881 0.028,-4.693 0.021,-6.494 0.022,-8.37 c 0.003,-3.062 0.004,-5.841 0.007,-8.797 10e-4,-1.654 -0.083,-3.304 -0.001,-4.985 -0.006,-0.681 -0.011,-1.362 -0.018,-2.042 10e-4,-1.25 0.145,-2.557 -0.118,-3.759 -0.017,-0.073 -0.179,-0.61 -0.05,-0.61 0.428,0 2.394,2.838 2.669,3.291 0.198,0.362 0.396,0.723 0.594,1.084 0.108,0.246 0.218,0.492 0.327,0.739 0.382,0.678 0.82,1.501 1.075,2.246 0.538,1.574 0.861,3.192 1.086,4.926 0.075,0.569 0.052,1.119 0.062,1.72 0.014,0.317 0.028,0.635 0.041,0.951 -0.027,1.698 -0.226,3.494 -0.664,5.005 C 4.598,-7.11 3.923,-5.658 3.179,-4.313 2.919,-3.845 2.596,-3.414 2.308,-2.957 1.919,-2.347 0.255,0.191 0,0" id="path5465" style="fill:#ee293d;fill-opacity:1;fill-rule:nonzero;stroke:none" />
        </ns0:g>
        <ns0:g transform="translate(589.817,237.56599)" id="g5467">
          <ns0:path d="m 0,0 c -1.162,-0.874 -3.578,-0.966 -5.115,-1.154 -0.394,-0.05 -0.788,-0.101 -1.183,-0.15 -1.918,-0.092 -4.444,-0.27 -5.134,-2.24 -0.07,-0.213 -0.063,-0.257 -0.135,-0.469 -0.032,-0.188 0.856,-0.01 1.263,-0.01 0.117,0.059 0.309,0.046 0.454,0.046 0.09,0.015 0.181,0.03 0.272,0.045 0.226,0.125 0.575,0.137 0.861,0.138 0.19,0.095 0.447,0.09 0.681,0.09 0.248,0.137 0.857,0.229 1.177,0.229 0.542,0.186 1.085,0.372 1.625,0.56 1.537,0.623 3.169,1.25 4.482,2.302 C -0.558,-0.458 -0.312,-0.407 0,0" id="path5469" style="fill:#ee293d;fill-opacity:1;fill-rule:nonzero;stroke:none" />
        </ns0:g>
        <ns0:g transform="translate(565.92599,237.17999)" id="g5471">
          <ns0:path d="m 0,0 c 0.341,-0.41 0.825,-0.505 1.249,-0.793 0.242,-0.179 0.596,-0.363 0.835,-0.539 0.93,-0.446 1.632,-0.81 2.58,-1.125 1.044,-0.347 2.065,-0.676 3.188,-0.881 0.379,-0.07 2.967,-0.54 3.064,-0.298 0.155,0.393 -0.688,1.352 -0.982,1.601 -0.273,0.232 -0.605,0.379 -0.906,0.544 -0.288,0.159 -0.63,0.251 -0.949,0.337 -0.422,0.117 -0.831,0.252 -1.28,0.327 -0.431,0.074 -0.856,0.077 -1.31,0.12 C 5.093,-0.644 4.7,-0.579 4.305,-0.515 3.793,-0.446 3.28,-0.453 2.769,-0.39 1.832,-0.272 0.956,-0.057 0,0" id="path5473" style="fill:#ee293d;fill-opacity:1;fill-rule:nonzero;stroke:none" />
        </ns0:g>
      </ns0:g>
    </ns0:g>
  </ns0:g>

  </g>
</svg>